<svg width="260" height="46" viewBox="0 0 260 46" fill="none" xmlns="http://www.w3.org/2000/svg">
<rect x="0.556687" y="0.890305" width="258.805" height="43.8919" rx="16.8514" stroke="black" stroke-width="0.783784"/>
<g clip-path="url(#clip0_690_39)">
<path d="M27.1874 22.6429C27.188 23.5364 26.889 24.4013 26.3431 25.0854C25.7973 25.7696 25.0396 26.229 24.2035 26.3827C23.3674 26.5364 22.5066 26.3746 21.7727 25.9258C21.0389 25.477 20.479 24.77 20.1918 23.9293L18.1289 25.6664C18.7704 26.95 19.8019 27.9702 21.0587 28.5644C22.3156 29.1585 23.7253 29.2922 25.0628 28.9441C26.4003 28.596 27.5884 27.7862 28.4375 26.6441C29.2866 25.5019 29.7476 24.0932 29.747 22.6429" fill="#00AC47"/>
<path d="M27.1873 22.6429C27.1868 23.2469 27.0492 23.8421 26.786 24.3788C26.5228 24.9155 26.1416 25.3782 25.6741 25.7285L27.7135 27.4459C28.353 26.8398 28.8645 26.0991 29.2147 25.2717C29.565 24.4443 29.7463 23.5488 29.7468 22.6429" fill="#4285F4"/>
<path d="M19.9741 22.643C19.975 22.2042 20.0486 21.7688 20.1917 21.3567L18.1288 19.6195C17.6598 20.5508 17.4146 21.5889 17.4146 22.643C17.4146 23.6971 17.6598 24.7352 18.1288 25.6665L20.1917 23.9293C20.0486 23.5172 19.975 23.0818 19.9741 22.643Z" fill="#FFBA00"/>
<path d="M23.5808 18.8466C24.3439 18.8468 25.0871 19.1035 25.7019 19.5793L27.5914 17.7231C26.89 17.0865 26.0611 16.625 25.1665 16.3727C24.272 16.1205 23.3349 16.0843 22.4252 16.2666C21.5154 16.4489 20.6566 16.8452 19.9126 17.4257C19.1687 18.0063 18.559 18.7562 18.1289 19.6196L20.1918 21.3567C20.4434 20.6226 20.9036 19.9878 21.51 19.5387C22.1163 19.0896 22.8394 18.848 23.5808 18.8466Z" fill="#EA4435"/>
<path d="M29.747 22.1532V22.6431L28.6999 24.3576H23.8135V21.6633H29.2816C29.405 21.6633 29.5234 21.7149 29.6107 21.8068C29.6979 21.8987 29.747 22.0233 29.747 22.1532Z" fill="#4285F4"/>
</g>
<path d="M40.2282 22.4154C40.2282 21.3495 40.4738 20.3933 40.965 19.5468C41.4666 18.7003 42.1406 18.0419 42.9871 17.5716C43.844 17.0909 44.7794 16.8506 45.7931 16.8506C46.9531 16.8506 47.9824 17.1379 48.8812 17.7127C49.7904 18.277 50.4487 19.0817 50.8563 20.1268H48.7087C48.4266 19.552 48.0347 19.1235 47.5331 18.8414C47.0314 18.5592 46.4514 18.4181 45.7931 18.4181C45.072 18.4181 44.4293 18.5801 43.865 18.9041C43.3006 19.228 42.8565 19.6931 42.5325 20.2992C42.219 20.9053 42.0622 21.6107 42.0622 22.4154C42.0622 23.2201 42.219 23.9255 42.5325 24.5316C42.8565 25.1378 43.3006 25.608 43.865 25.9424C44.4293 26.2664 45.072 26.4284 45.7931 26.4284C46.4514 26.4284 47.0314 26.2873 47.5331 26.0051C48.0347 25.723 48.4266 25.2945 48.7087 24.7197H50.8563C50.4487 25.7648 49.7904 26.5695 48.8812 27.1338C47.9824 27.6981 46.9531 27.9803 45.7931 27.9803C44.7689 27.9803 43.8336 27.7451 42.9871 27.2749C42.1406 26.7942 41.4666 26.1306 40.965 25.2841C40.4738 24.4376 40.2282 23.4814 40.2282 22.4154ZM54.7351 20.503C54.9963 20.0641 55.3412 19.7244 55.7696 19.4841C56.2086 19.2333 56.7259 19.1079 57.3215 19.1079V20.9576H56.8669C56.1668 20.9576 55.6338 21.1352 55.268 21.4906C54.9127 21.8459 54.7351 22.4624 54.7351 23.3403V27.8862H52.948V19.2489H54.7351V20.503ZM59.8734 18.1046C59.5494 18.1046 59.2777 17.9949 59.0582 17.7754C58.8388 17.556 58.729 17.2842 58.729 16.9603C58.729 16.6363 58.8388 16.3646 59.0582 16.1451C59.2777 15.9257 59.5494 15.816 59.8734 15.816C60.1869 15.816 60.4534 15.9257 60.6728 16.1451C60.8923 16.3646 61.002 16.6363 61.002 16.9603C61.002 17.2842 60.8923 17.556 60.6728 17.7754C60.4534 17.9949 60.1869 18.1046 59.8734 18.1046ZM60.7512 19.2489V27.8862H58.9642V19.2489H60.7512ZM62.5017 23.5284C62.5017 22.661 62.6794 21.8929 63.0347 21.2241C63.4005 20.5552 63.8916 20.0379 64.5082 19.6722C65.1353 19.296 65.825 19.1079 66.5774 19.1079C67.2567 19.1079 67.8471 19.2437 68.3488 19.5154C68.8608 19.7767 69.2684 20.1059 69.5715 20.503V19.2489H71.3742V27.8862H69.5715V26.6008C69.2684 27.0084 68.8556 27.348 68.3331 27.6197C67.8106 27.8915 67.2149 28.0273 66.5461 28.0273C65.8041 28.0273 65.1248 27.8392 64.5082 27.463C63.8916 27.0763 63.4005 26.5433 63.0347 25.8641C62.6794 25.1743 62.5017 24.3958 62.5017 23.5284ZM69.5715 23.5597C69.5715 22.9641 69.4461 22.4468 69.1953 22.0079C68.9549 21.5689 68.6362 21.2345 68.239 21.0046C67.8419 20.7747 67.4134 20.6597 66.9536 20.6597C66.4938 20.6597 66.0653 20.7747 65.6682 21.0046C65.2711 21.2241 64.9471 21.5533 64.6963 21.9922C64.456 22.4206 64.3358 22.9327 64.3358 23.5284C64.3358 24.1241 64.456 24.6466 64.6963 25.096C64.9471 25.5453 65.2711 25.8902 65.6682 26.1306C66.0758 26.3605 66.5043 26.4754 66.9536 26.4754C67.4134 26.4754 67.8419 26.3605 68.239 26.1306C68.6362 25.9006 68.9549 25.5662 69.1953 25.1273C69.4461 24.6779 69.5715 24.1554 69.5715 23.5597ZM75.5084 20.503C75.7696 20.0641 76.1145 19.7244 76.543 19.4841C76.9819 19.2333 77.4992 19.1079 78.0949 19.1079V20.9576H77.6403C76.9401 20.9576 76.4071 21.1352 76.0414 21.4906C75.686 21.8459 75.5084 22.4624 75.5084 23.3403V27.8862H73.7214V19.2489H75.5084V20.503ZM83.2138 23.5597C83.2138 22.6715 83.3915 21.8929 83.7468 21.2241C84.1126 20.5448 84.6142 20.0223 85.2517 19.6565C85.8892 19.2907 86.6207 19.1079 87.4463 19.1079C88.4913 19.1079 89.3535 19.3587 90.0328 19.8603C90.7225 20.3515 91.1875 21.0569 91.4279 21.9765H89.4998C89.343 21.548 89.0922 21.2136 88.7474 20.9733C88.4025 20.7329 87.9688 20.6127 87.4463 20.6127C86.7147 20.6127 86.1295 20.874 85.6906 21.3965C85.2621 21.9086 85.0479 22.6297 85.0479 23.5597C85.0479 24.4898 85.2621 25.2161 85.6906 25.7387C86.1295 26.2612 86.7147 26.5224 87.4463 26.5224C88.4809 26.5224 89.1654 26.0679 89.4998 25.1587H91.4279C91.1771 26.0365 90.7068 26.7367 90.0171 27.2592C89.3274 27.7713 88.4704 28.0273 87.4463 28.0273C86.6207 28.0273 85.8892 27.8444 85.2517 27.4787C84.6142 27.1024 84.1126 26.5799 83.7468 25.9111C83.3915 25.2318 83.2138 24.448 83.2138 23.5597ZM96.9553 28.0273C96.1401 28.0273 95.4034 27.8444 94.745 27.4787C94.0866 27.1024 93.5693 26.5799 93.1931 25.9111C92.8169 25.2318 92.6288 24.448 92.6288 23.5597C92.6288 22.6819 92.8221 21.9033 93.2088 21.2241C93.5955 20.5448 94.1232 20.0223 94.792 19.6565C95.4609 19.2907 96.2081 19.1079 97.0337 19.1079C97.8592 19.1079 98.6065 19.2907 99.2753 19.6565C99.9441 20.0223 100.472 20.5448 100.859 21.2241C101.245 21.9033 101.439 22.6819 101.439 23.5597C101.439 24.4376 101.24 25.2161 100.843 25.8954C100.446 26.5747 99.9023 27.1024 99.2126 27.4787C98.5333 27.8444 97.7809 28.0273 96.9553 28.0273ZM96.9553 26.4754C97.4151 26.4754 97.8436 26.3657 98.2407 26.1462C98.6483 25.9268 98.9774 25.5976 99.2283 25.1587C99.4791 24.7197 99.6045 24.1868 99.6045 23.5597C99.6045 22.9327 99.4843 22.405 99.2439 21.9765C99.0036 21.5376 98.6848 21.2084 98.2877 20.9889C97.8906 20.7695 97.4621 20.6597 97.0023 20.6597C96.5425 20.6597 96.114 20.7695 95.7169 20.9889C95.3302 21.2084 95.0219 21.5376 94.792 21.9765C94.5621 22.405 94.4472 22.9327 94.4472 23.5597C94.4472 24.4898 94.6823 25.2109 95.1526 25.723C95.6333 26.2246 96.2342 26.4754 96.9553 26.4754ZM107.563 19.1079C108.242 19.1079 108.848 19.2489 109.381 19.5311C109.925 19.8133 110.348 20.2313 110.651 20.7851C110.954 21.339 111.106 22.0079 111.106 22.7916V27.8862H109.334V23.0581C109.334 22.2848 109.141 21.6943 108.754 21.2868C108.368 20.8688 107.84 20.6597 107.171 20.6597C106.502 20.6597 105.969 20.8688 105.572 21.2868C105.185 21.6943 104.992 22.2848 104.992 23.0581V27.8862H103.205V19.2489H104.992V20.2365C105.285 19.8812 105.656 19.6042 106.105 19.4057C106.565 19.2071 107.051 19.1079 107.563 19.1079ZM115.47 20.7068V25.4879C115.47 25.8118 115.543 26.047 115.689 26.1933C115.846 26.3291 116.107 26.397 116.473 26.397H117.571V27.8862H116.16C115.355 27.8862 114.738 27.6981 114.31 27.3219C113.881 26.9457 113.667 26.3343 113.667 25.4879V20.7068H112.648V19.2489H113.667V17.1014H115.47V19.2489H117.571V20.7068H115.47ZM118.622 23.5284C118.622 22.661 118.8 21.8929 119.155 21.2241C119.521 20.5552 120.012 20.0379 120.628 19.6722C121.255 19.296 121.945 19.1079 122.698 19.1079C123.377 19.1079 123.967 19.2437 124.469 19.5154C124.981 19.7767 125.389 20.1059 125.692 20.503V19.2489H127.494V27.8862H125.692V26.6008C125.389 27.0084 124.976 27.348 124.453 27.6197C123.931 27.8915 123.335 28.0273 122.666 28.0273C121.924 28.0273 121.245 27.8392 120.628 27.463C120.012 27.0763 119.521 26.5433 119.155 25.8641C118.8 25.1743 118.622 24.3958 118.622 23.5284ZM125.692 23.5597C125.692 22.9641 125.566 22.4468 125.315 22.0079C125.075 21.5689 124.756 21.2345 124.359 21.0046C123.962 20.7747 123.534 20.6597 123.074 20.6597C122.614 20.6597 122.185 20.7747 121.788 21.0046C121.391 21.2241 121.067 21.5533 120.816 21.9922C120.576 22.4206 120.456 22.9327 120.456 23.5284C120.456 24.1241 120.576 24.6466 120.816 25.096C121.067 25.5453 121.391 25.8902 121.788 26.1306C122.196 26.3605 122.624 26.4754 123.074 26.4754C123.534 26.4754 123.962 26.3605 124.359 26.1306C124.756 25.9006 125.075 25.5662 125.315 25.1273C125.566 24.6779 125.692 24.1554 125.692 23.5597ZM133.318 23.5597C133.318 22.6715 133.495 21.8929 133.851 21.2241C134.217 20.5448 134.718 20.0223 135.356 19.6565C135.993 19.2907 136.725 19.1079 137.55 19.1079C138.595 19.1079 139.457 19.3587 140.137 19.8603C140.826 20.3515 141.292 21.0569 141.532 21.9765H139.604C139.447 21.548 139.196 21.2136 138.851 20.9733C138.506 20.7329 138.073 20.6127 137.55 20.6127C136.819 20.6127 136.234 20.874 135.795 21.3965C135.366 21.9086 135.152 22.6297 135.152 23.5597C135.152 24.4898 135.366 25.2161 135.795 25.7387C136.234 26.2612 136.819 26.5224 137.55 26.5224C138.585 26.5224 139.269 26.0679 139.604 25.1587H141.532C141.281 26.0365 140.811 26.7367 140.121 27.2592C139.431 27.7713 138.574 28.0273 137.55 28.0273C136.725 28.0273 135.993 27.8444 135.356 27.4787C134.718 27.1024 134.217 26.5799 133.851 25.9111C133.495 25.2318 133.318 24.448 133.318 23.5597ZM147.059 28.0273C146.244 28.0273 145.507 27.8444 144.849 27.4787C144.191 27.1024 143.673 26.5799 143.297 25.9111C142.921 25.2318 142.733 24.448 142.733 23.5597C142.733 22.6819 142.926 21.9033 143.313 21.2241C143.699 20.5448 144.227 20.0223 144.896 19.6565C145.565 19.2907 146.312 19.1079 147.138 19.1079C147.963 19.1079 148.71 19.2907 149.379 19.6565C150.048 20.0223 150.576 20.5448 150.963 21.2241C151.349 21.9033 151.543 22.6819 151.543 23.5597C151.543 24.4376 151.344 25.2161 150.947 25.8954C150.55 26.5747 150.006 27.1024 149.317 27.4787C148.637 27.8444 147.885 28.0273 147.059 28.0273ZM147.059 26.4754C147.519 26.4754 147.948 26.3657 148.345 26.1462C148.752 25.9268 149.081 25.5976 149.332 25.1587C149.583 24.7197 149.708 24.1868 149.708 23.5597C149.708 22.9327 149.588 22.405 149.348 21.9765C149.108 21.5376 148.789 21.2084 148.392 20.9889C147.995 20.7695 147.566 20.6597 147.106 20.6597C146.646 20.6597 146.218 20.7695 145.821 20.9889C145.434 21.2084 145.126 21.5376 144.896 21.9765C144.666 22.405 144.551 22.9327 144.551 23.5597C144.551 24.4898 144.786 25.2109 145.257 25.723C145.737 26.2246 146.338 26.4754 147.059 26.4754ZM163.765 19.1079C164.444 19.1079 165.05 19.2489 165.583 19.5311C166.127 19.8133 166.55 20.2313 166.853 20.7851C167.166 21.339 167.323 22.0079 167.323 22.7916V27.8862H165.552V23.0581C165.552 22.2848 165.358 21.6943 164.972 21.2868C164.585 20.8688 164.057 20.6597 163.389 20.6597C162.72 20.6597 162.187 20.8688 161.79 21.2868C161.403 21.6943 161.21 22.2848 161.21 23.0581V27.8862H159.438V23.0581C159.438 22.2848 159.245 21.6943 158.858 21.2868C158.472 20.8688 157.944 20.6597 157.275 20.6597C156.606 20.6597 156.073 20.8688 155.676 21.2868C155.289 21.6943 155.096 22.2848 155.096 23.0581V27.8862H153.309V19.2489H155.096V20.2365C155.389 19.8812 155.76 19.6042 156.209 19.4057C156.658 19.2071 157.139 19.1079 157.651 19.1079C158.341 19.1079 158.958 19.2542 159.501 19.5468C160.044 19.8394 160.462 20.2626 160.755 20.8165C161.016 20.294 161.424 19.8812 161.978 19.5781C162.532 19.2646 163.127 19.1079 163.765 19.1079ZM177.416 28.0273C176.6 28.0273 175.864 27.8444 175.205 27.4787C174.547 27.1024 174.03 26.5799 173.653 25.9111C173.277 25.2318 173.089 24.448 173.089 23.5597C173.089 22.6819 173.282 21.9033 173.669 21.2241C174.056 20.5448 174.584 20.0223 175.252 19.6565C175.921 19.2907 176.668 19.1079 177.494 19.1079C178.32 19.1079 179.067 19.2907 179.736 19.6565C180.404 20.0223 180.932 20.5448 181.319 21.2241C181.705 21.9033 181.899 22.6819 181.899 23.5597C181.899 24.4376 181.7 25.2161 181.303 25.8954C180.906 26.5747 180.363 27.1024 179.673 27.4787C178.994 27.8444 178.241 28.0273 177.416 28.0273ZM177.416 26.4754C177.875 26.4754 178.304 26.3657 178.701 26.1462C179.109 25.9268 179.438 25.5976 179.689 25.1587C179.939 24.7197 180.065 24.1868 180.065 23.5597C180.065 22.9327 179.945 22.405 179.704 21.9765C179.464 21.5376 179.145 21.2084 178.748 20.9889C178.351 20.7695 177.922 20.6597 177.463 20.6597C177.003 20.6597 176.574 20.7695 176.177 20.9889C175.791 21.2084 175.482 21.5376 175.252 21.9765C175.022 22.405 174.907 22.9327 174.907 23.5597C174.907 24.4898 175.143 25.2109 175.613 25.723C176.094 26.2246 176.695 26.4754 177.416 26.4754ZM195.622 20.1268C195.34 19.5833 194.948 19.1758 194.447 18.9041C193.945 18.6219 193.365 18.4808 192.707 18.4808C191.986 18.4808 191.343 18.6428 190.778 18.9668C190.214 19.2907 189.77 19.7506 189.446 20.3462C189.133 20.9419 188.976 21.6316 188.976 22.4154C188.976 23.1992 189.133 23.8942 189.446 24.5003C189.77 25.096 190.214 25.5558 190.778 25.8797C191.343 26.2037 191.986 26.3657 192.707 26.3657C193.678 26.3657 194.468 26.094 195.074 25.5506C195.68 25.0071 196.051 24.2704 196.187 23.3403H192.095V21.9138H198.099V23.3089C197.984 24.1554 197.681 24.934 197.19 25.6446C196.709 26.3552 196.077 26.9248 195.293 27.3533C194.52 27.7713 193.658 27.9803 192.707 27.9803C191.682 27.9803 190.747 27.7451 189.901 27.2749C189.054 26.7942 188.38 26.1306 187.878 25.2841C187.387 24.4376 187.142 23.4814 187.142 22.4154C187.142 21.3495 187.387 20.3933 187.878 19.5468C188.38 18.7003 189.054 18.0419 189.901 17.5716C190.758 17.0909 191.693 16.8506 192.707 16.8506C193.867 16.8506 194.896 17.1379 195.795 17.7127C196.704 18.277 197.362 19.0817 197.77 20.1268H195.622ZM203.608 28.0273C202.793 28.0273 202.056 27.8444 201.398 27.4787C200.739 27.1024 200.222 26.5799 199.846 25.9111C199.47 25.2318 199.282 24.448 199.282 23.5597C199.282 22.6819 199.475 21.9033 199.862 21.2241C200.248 20.5448 200.776 20.0223 201.445 19.6565C202.114 19.2907 202.861 19.1079 203.686 19.1079C204.512 19.1079 205.259 19.2907 205.928 19.6565C206.597 20.0223 207.125 20.5448 207.511 21.2241C207.898 21.9033 208.091 22.6819 208.091 23.5597C208.091 24.4376 207.893 25.2161 207.496 25.8954C207.099 26.5747 206.555 27.1024 205.865 27.4787C205.186 27.8444 204.434 28.0273 203.608 28.0273ZM203.608 26.4754C204.068 26.4754 204.496 26.3657 204.893 26.1462C205.301 25.9268 205.63 25.5976 205.881 25.1587C206.132 24.7197 206.257 24.1868 206.257 23.5597C206.257 22.9327 206.137 22.405 205.897 21.9765C205.656 21.5376 205.338 21.2084 204.94 20.9889C204.543 20.7695 204.115 20.6597 203.655 20.6597C203.195 20.6597 202.767 20.7695 202.37 20.9889C201.983 21.2084 201.675 21.5376 201.445 21.9765C201.215 22.405 201.1 22.9327 201.1 23.5597C201.1 24.4898 201.335 25.2109 201.805 25.723C202.286 26.2246 202.887 26.4754 203.608 26.4754ZM213.604 28.0273C212.789 28.0273 212.052 27.8444 211.394 27.4787C210.736 27.1024 210.218 26.5799 209.842 25.9111C209.466 25.2318 209.278 24.448 209.278 23.5597C209.278 22.6819 209.471 21.9033 209.858 21.2241C210.245 20.5448 210.772 20.0223 211.441 19.6565C212.11 19.2907 212.857 19.1079 213.683 19.1079C214.508 19.1079 215.256 19.2907 215.924 19.6565C216.593 20.0223 217.121 20.5448 217.508 21.2241C217.894 21.9033 218.088 22.6819 218.088 23.5597C218.088 24.4376 217.889 25.2161 217.492 25.8954C217.095 26.5747 216.551 27.1024 215.862 27.4787C215.182 27.8444 214.43 28.0273 213.604 28.0273ZM213.604 26.4754C214.064 26.4754 214.493 26.3657 214.89 26.1462C215.297 25.9268 215.627 25.5976 215.877 25.1587C216.128 24.7197 216.254 24.1868 216.254 23.5597C216.254 22.9327 216.133 22.405 215.893 21.9765C215.653 21.5376 215.334 21.2084 214.937 20.9889C214.54 20.7695 214.111 20.6597 213.651 20.6597C213.192 20.6597 212.763 20.7695 212.366 20.9889C211.979 21.2084 211.671 21.5376 211.441 21.9765C211.211 22.405 211.096 22.9327 211.096 23.5597C211.096 24.4898 211.331 25.2109 211.802 25.723C212.282 26.2246 212.883 26.4754 213.604 26.4754ZM223.334 19.1079C224.003 19.1079 224.593 19.2437 225.106 19.5154C225.628 19.7767 226.036 20.1059 226.328 20.503V19.2489H228.131V28.0273C228.131 28.8215 227.964 29.527 227.629 30.1435C227.295 30.7706 226.809 31.2617 226.171 31.617C225.544 31.9724 224.792 32.15 223.914 32.15C222.744 32.15 221.772 31.8731 220.998 31.3192C220.225 30.7758 219.786 30.0338 219.682 29.0933H221.453C221.589 29.5426 221.876 29.9032 222.315 30.1749C222.765 30.457 223.298 30.5981 223.914 30.5981C224.635 30.5981 225.215 30.3787 225.654 29.9397C226.104 29.5008 226.328 28.8633 226.328 28.0273V26.5851C226.025 26.9927 225.612 27.3376 225.09 27.6197C224.578 27.8915 223.993 28.0273 223.334 28.0273C222.582 28.0273 221.892 27.8392 221.265 27.463C220.648 27.0763 220.157 26.5433 219.791 25.8641C219.436 25.1743 219.258 24.3958 219.258 23.5284C219.258 22.661 219.436 21.8929 219.791 21.2241C220.157 20.5552 220.648 20.0379 221.265 19.6722C221.892 19.296 222.582 19.1079 223.334 19.1079ZM226.328 23.5597C226.328 22.9641 226.203 22.4468 225.952 22.0079C225.712 21.5689 225.393 21.2345 224.996 21.0046C224.599 20.7747 224.17 20.6597 223.71 20.6597C223.251 20.6597 222.822 20.7747 222.425 21.0046C222.028 21.2241 221.704 21.5533 221.453 21.9922C221.213 22.4206 221.093 22.9327 221.093 23.5284C221.093 24.1241 221.213 24.6466 221.453 25.096C221.704 25.5453 222.028 25.8902 222.425 26.1306C222.833 26.3605 223.261 26.4754 223.71 26.4754C224.17 26.4754 224.599 26.3605 224.996 26.1306C225.393 25.9006 225.712 25.5662 225.952 25.1273C226.203 24.6779 226.328 24.1554 226.328 23.5597ZM232.265 16.2862V27.8862H230.478V16.2862H232.265ZM242.528 23.356C242.528 23.6799 242.507 23.9725 242.465 24.2338H235.865C235.918 24.9235 236.174 25.4774 236.634 25.8954C237.093 26.3134 237.658 26.5224 238.326 26.5224C239.288 26.5224 239.967 26.1201 240.364 25.3154H242.292C242.031 26.1097 241.556 26.7628 240.866 27.2749C240.187 27.7765 239.34 28.0273 238.326 28.0273C237.501 28.0273 236.759 27.8444 236.101 27.4787C235.453 27.1024 234.941 26.5799 234.564 25.9111C234.199 25.2318 234.016 24.448 234.016 23.5597C234.016 22.6715 234.193 21.8929 234.549 21.2241C234.914 20.5448 235.421 20.0223 236.069 19.6565C236.728 19.2907 237.48 19.1079 238.326 19.1079C239.142 19.1079 239.868 19.2855 240.505 19.6408C241.143 19.9961 241.639 20.4978 241.995 21.1457C242.35 21.7832 242.528 22.5199 242.528 23.356ZM240.662 22.7916C240.652 22.1333 240.417 21.6055 239.957 21.2084C239.497 20.8113 238.927 20.6127 238.248 20.6127C237.632 20.6127 237.104 20.8113 236.665 21.2084C236.226 21.5951 235.965 22.1228 235.881 22.7916H240.662Z" fill="#0C150A"/>
<defs>
<clipPath id="clip0_690_39">
<rect width="14.8919" height="15.6757" fill="white" transform="translate(16.1348 14.8052)"/>
</clipPath>
</defs>
</svg>
