<svg width="55" height="55" viewBox="0 0 55 55" fill="none" xmlns="http://www.w3.org/2000/svg">
<path d="M27.6527 38.1945C21.6944 38.1945 16.9583 33.4583 16.9583 27.5C16.9583 21.5417 21.6944 16.8056 27.6527 16.8056C33.611 16.8056 38.3471 21.5417 38.3471 27.5C38.3471 33.4583 33.611 38.1945 27.6527 38.1945ZM27.6527 19.8611C23.3749 19.8611 20.0138 23.2222 20.0138 27.5C20.0138 31.7778 23.3749 35.1389 27.6527 35.1389C31.9305 35.1389 35.2916 31.7778 35.2916 27.5C35.2916 23.2222 31.9305 19.8611 27.6527 19.8611Z" fill="#3F463E"/>
<path d="M50.1112 32.5417L45.8334 33.9167L44.9168 36.2083L47.0557 40.1806C47.514 41.0972 47.3612 42.3195 46.5973 43.0833L42.9307 46.75C42.1668 47.5139 40.9445 47.6667 40.0279 47.2083L36.0557 45.0695L33.764 45.9861L32.389 50.2639C32.0834 51.1806 31.1668 51.9445 30.0973 51.9445H24.9029C23.8334 51.9445 22.9168 51.1806 22.764 50.1111L21.389 45.8333C20.4723 45.6806 19.7084 45.375 18.9446 44.9167L14.9723 47.0556C14.0557 47.5139 12.8334 47.3611 12.0696 46.5972L8.40289 42.9306C7.639 42.1667 7.48622 40.9445 7.94455 40.0278L9.93066 36.2083C9.62511 35.4445 9.31955 34.5278 9.014 33.7639L4.73622 32.3889C3.81955 32.0833 3.05566 31.1667 3.05566 30.0972V24.9028C3.05566 23.8333 3.81955 22.9167 4.889 22.6111L9.16677 21.2361L10.0834 18.9445L7.94455 14.9722C7.48622 14.0556 7.639 12.8333 8.40289 12.0695L12.0696 8.40279C12.8334 7.6389 14.0557 7.48613 14.9723 7.94446L18.9446 10.0834L21.2362 9.16668L22.6112 4.73612C22.9168 3.81946 23.8334 3.05557 24.9029 3.05557H30.0973C31.1668 3.05557 32.0834 3.81946 32.389 4.73612L33.764 9.16668L36.0557 10.0834L40.0279 7.94446C40.9445 7.48613 42.1668 7.6389 42.9307 8.40279L46.5973 12.0695C47.3612 12.8333 47.514 14.0556 47.0557 14.9722L44.9168 18.9445L45.8334 21.2361L50.264 22.6111C51.1807 22.9167 51.9445 23.8333 51.9445 24.9028V30.0972C51.9445 31.1667 51.1807 32.2361 50.1112 32.5417ZM48.889 25.3611L43.389 23.6806L43.2362 22.9167C42.7779 21.8472 42.3195 20.7778 41.8612 19.7083L41.4029 18.9445L44.1529 13.9028L41.0973 10.8472L36.0557 13.5972L35.2918 13.1389C34.2223 12.5278 33.1529 12.0695 32.0834 11.7639L31.3196 11.6111L29.639 6.11113H25.3612L23.6807 11.6111L22.9168 11.7639C21.8473 12.2222 20.7779 12.6806 19.7084 13.1389L18.9446 13.5972L13.9029 10.8472L10.8473 13.9028L13.5973 18.9445L13.139 19.7083C12.5279 20.7778 12.0696 21.8472 11.764 22.9167L11.6112 23.6806L6.11122 25.3611V29.6389L11.3057 31.1667L11.6112 31.9306C11.9168 33.1528 12.3751 34.2222 12.9862 35.2917L13.4446 36.0556L10.8473 41.0972L13.9029 44.1528L18.7918 41.4028L19.5557 41.8611C20.6251 42.4722 21.6946 42.9306 22.9168 43.2361L23.6807 43.5417L25.3612 48.8889H29.639L31.3196 43.5417L32.0834 43.2361C33.1529 42.9306 34.2223 42.4722 35.2918 41.8611L36.0557 41.4028L41.0973 44.1528L44.1529 41.0972L41.4029 36.0556L41.8612 35.2917C42.4723 34.2222 42.9307 33.1528 43.2362 32.0833L43.389 31.3195L48.889 29.6389V25.3611Z" fill="#3F463E"/>
</svg>
