<svg width="1031" height="101" viewBox="0 0 1031 101" fill="none" xmlns="http://www.w3.org/2000/svg">
<path d="M23.4895 1.16358C40.3162 6.90705 52.4696 16.2618 59.828 28.3215C67.1991 40.4021 69.7878 55.245 67.3851 71.9919C57.4887 73.0014 49.3178 70.6341 42.7405 66.1478C36.0703 61.5981 31.0133 54.8507 27.4722 47.1749C20.4723 32.0012 19.45 13.3204 23.4895 1.16358Z" stroke="#A6D89B"/>
<path d="M69.357 74.4522C52.6048 43.1542 33.7597 52.8857 1.95471 52.8857C9.96516 78.5368 36.5014 87.9803 69.357 74.4522Z" stroke="#6BBF59"/>
<path d="M120 55.86C166.186 77.8816 218.305 12.1968 270 55.86" stroke="#6BBF59"/>
<path d="M343.489 1.16358C360.316 6.90705 372.47 16.2618 379.828 28.3215C387.199 40.4021 389.788 55.245 387.385 71.9919C377.489 73.0014 369.318 70.6341 362.74 66.1478C356.07 61.5981 351.013 54.8507 347.472 47.1749C340.472 32.0012 339.45 13.3204 343.489 1.16358Z" stroke="#6BBF59"/>
<path d="M389.357 74.4522C372.605 43.1542 353.76 52.8857 321.955 52.8857C329.965 78.5368 356.501 87.9804 389.357 74.4522Z" stroke="#A6D89B"/>
<path d="M440 55.86C486.186 77.8816 538.305 12.1968 590 55.86" stroke="#E2F2DF"/>
<path d="M663.489 1.16358C680.316 6.90705 692.47 16.2618 699.828 28.3215C707.199 40.4021 709.788 55.245 707.385 71.9919C697.489 73.0014 689.318 70.6341 682.74 66.1478C676.07 61.5981 671.013 54.8507 667.472 47.1749C660.472 32.0012 659.45 13.3204 663.489 1.16358Z" stroke="#A6D89B"/>
<path d="M709.357 74.4522C692.605 43.1542 673.76 52.8857 641.955 52.8857C649.965 78.5368 676.501 87.9803 709.357 74.4522Z" stroke="#6BBF59"/>
<path d="M760 55.86C806.186 77.8816 858.305 12.1968 910 55.86" stroke="#6BBF59"/>
<path d="M983.489 1.16358C1000.32 6.90705 1012.47 16.2618 1019.83 28.3215C1027.2 40.4021 1029.79 55.245 1027.39 71.9919C1017.49 73.0014 1009.32 70.6341 1002.74 66.1478C996.07 61.5981 991.013 54.8507 987.472 47.1749C980.472 32.0012 979.45 13.3204 983.489 1.16358Z" stroke="#6BBF59"/>
<path d="M1029.36 74.4522C1012.6 43.1542 993.76 52.8857 961.955 52.8857C969.965 78.5368 996.501 87.9804 1029.36 74.4522Z" stroke="#A6D89B"/>
</svg>
