<svg width="177" height="180" viewBox="0 0 177 180" fill="none" xmlns="http://www.w3.org/2000/svg">
<ellipse cx="88.7125" cy="90" rx="87.9645" ry="90" fill="#6BBF59"/>
<path d="M116.079 83.3125H100.441C99.9229 83.3125 99.4257 83.0968 99.0591 82.713C98.6925 82.3291 98.4866 81.8085 98.4866 81.2656C98.4866 80.7228 98.6925 80.2021 99.0591 79.8183C99.4257 79.4344 99.9229 79.2187 100.441 79.2187H116.079C116.598 79.2187 117.095 79.4344 117.462 79.8183C117.828 80.2021 118.034 80.7228 118.034 81.2656C118.034 81.8085 117.828 82.3291 117.462 82.713C117.095 83.0968 116.598 83.3125 116.079 83.3125ZM76.9842 79.2187H71.1199V73.0781C71.1199 72.5353 70.9139 72.0146 70.5473 71.6308C70.1807 71.2469 69.6835 71.0312 69.1651 71.0312C68.6467 71.0312 68.1495 71.2469 67.7829 71.6308C67.4163 72.0146 67.2103 72.5353 67.2103 73.0781V79.2187H61.346C60.8276 79.2187 60.3304 79.4344 59.9638 79.8183C59.5972 80.2021 59.3913 80.7228 59.3913 81.2656C59.3913 81.8085 59.5972 82.3291 59.9638 82.713C60.3304 83.0968 60.8276 83.3125 61.346 83.3125H67.2103V89.4531C67.2103 89.996 67.4163 90.5166 67.7829 90.9005C68.1495 91.2843 68.6467 91.5 69.1651 91.5C69.6835 91.5 70.1807 91.2843 70.5473 90.9005C70.9139 90.5166 71.1199 89.996 71.1199 89.4531V83.3125H76.9842C77.5026 83.3125 77.9998 83.0968 78.3664 82.713C78.733 82.3291 78.9389 81.8085 78.9389 81.2656C78.9389 80.7228 78.733 80.2021 78.3664 79.8183C77.9998 79.4344 77.5026 79.2187 76.9842 79.2187ZM132.481 138.327C130.005 138.783 127.461 138.608 125.064 137.817C122.666 137.026 120.486 135.642 118.708 133.782C118.666 133.738 118.627 133.694 118.59 133.648L98.1086 109.84L79.34 109.918L58.8367 133.651C58.8007 133.696 58.7626 133.74 58.7224 133.782C56.3704 136.244 53.3301 137.857 50.0431 138.386C46.7561 138.915 43.3935 138.334 40.4437 136.725C37.4938 135.117 35.1104 132.566 33.6396 129.443C32.1687 126.32 31.687 122.787 32.2644 119.357L40.2433 76.3858C40.2474 76.3543 40.2519 76.3228 40.2571 76.2914C41.3627 69.6498 44.674 63.631 49.6062 59.2978C54.5384 54.9645 60.7742 52.5956 67.2125 52.6094L110.218 52.4764H110.224C116.641 52.4859 122.851 54.8526 127.772 59.1642C132.693 63.4758 136.014 69.4588 137.155 76.0707C137.158 76.0885 137.166 76.1045 137.169 76.1224L145.16 119.323C145.883 123.604 144.954 128.009 142.576 131.573C140.199 135.136 136.568 137.566 132.481 138.327ZM110.216 105.695C116.437 105.697 122.404 103.111 126.805 98.5058C131.205 93.9007 133.678 87.6538 133.68 81.1394C133.681 74.6251 131.212 68.3768 126.814 63.7691C122.416 59.1615 116.45 56.572 110.229 56.5702L67.2182 56.7031C61.7205 56.6898 56.3937 58.7034 52.172 62.391C47.9502 66.0786 45.103 71.2047 44.1294 76.8705C44.1237 76.9255 44.1156 76.9805 44.1053 77.0359L36.1083 120.103C35.684 122.668 36.0487 125.307 37.1498 127.641C38.251 129.974 40.0316 131.881 42.2348 133.086C44.438 134.291 46.9499 134.733 49.408 134.346C51.8661 133.959 54.1434 132.765 55.9112 130.935L77.0197 106.502C77.2021 106.291 77.4245 106.122 77.6728 106.006C77.921 105.89 78.1896 105.829 78.4615 105.828L110.216 105.695ZM141.315 120.068L135.932 90.9623C134.001 96.4777 130.501 101.24 125.904 104.607C121.307 107.973 115.834 109.782 110.224 109.789L103.351 109.818L121.52 130.936C123.29 132.768 125.57 133.963 128.031 134.347C130.493 134.732 133.007 134.288 135.211 133.078C137.415 131.868 139.194 129.955 140.291 127.616C141.389 125.278 141.747 122.634 141.315 120.068Z" fill="white"/>
</svg>
