<svg width="16" height="17" viewBox="0 0 16 17" fill="none" xmlns="http://www.w3.org/2000/svg">
<g clip-path="url(#clip0_690_40)">
<path d="M11.1874 8.64294C11.188 9.53635 10.889 10.4013 10.3431 11.0854C9.79728 11.7696 9.03956 12.229 8.20348 12.3827C7.36741 12.5364 6.50661 12.3746 5.77274 11.9258C5.03887 11.477 4.47901 10.77 4.19181 9.92928L2.12891 11.6664C2.77035 12.95 3.80186 13.9702 5.05872 14.5644C6.31557 15.1585 7.7253 15.2922 9.0628 14.9441C10.4003 14.596 11.5884 13.7862 12.4375 12.6441C13.2866 11.5019 13.7476 10.0932 13.747 8.64294" fill="#00AC47"/>
<path d="M11.1873 8.64294C11.1868 9.24695 11.0492 9.84209 10.786 10.3788C10.5228 10.9155 10.1416 11.3782 9.67407 11.7285L11.7135 13.4459C12.353 12.8398 12.8645 12.0991 13.2147 11.2717C13.565 10.4443 13.7463 9.54875 13.7468 8.64294" fill="#4285F4"/>
<path d="M3.97409 8.643C3.97499 8.20416 4.04864 7.76885 4.19175 7.35667L2.12885 5.61951C1.65979 6.55083 1.41455 7.5889 1.41455 8.643C1.41455 9.69711 1.65979 10.7352 2.12885 11.6665L4.19175 9.92934C4.04864 9.51716 3.97499 9.08185 3.97409 8.643Z" fill="#FFBA00"/>
<path d="M7.58078 4.84661C8.34393 4.84683 9.08707 5.10354 9.70194 5.57935L11.5914 3.7231C10.89 3.08655 10.0611 2.62495 9.16654 2.37275C8.272 2.12055 7.33489 2.08426 6.42516 2.26659C5.51543 2.44892 4.65656 2.84516 3.91265 3.42574C3.16873 4.00632 2.55899 4.75625 2.12891 5.61956L4.19181 7.35672C4.44339 6.6226 4.90365 5.98783 5.51 5.53873C6.11634 5.08962 6.83937 4.84796 7.58078 4.84661Z" fill="#EA4435"/>
<path d="M13.747 8.15319V8.64306L12.6999 10.3576H7.81348V7.66333L13.2816 7.66333C13.405 7.66333 13.5234 7.71494 13.6107 7.80681C13.6979 7.89868 13.747 8.02327 13.747 8.15319Z" fill="#4285F4"/>
</g>
<defs>
<clipPath id="clip0_690_40">
<rect width="14.8919" height="15.6757" fill="white" transform="translate(0.134766 0.805176)"/>
</clipPath>
</defs>
</svg>
