<svg width="177" height="180" viewBox="0 0 177 180" fill="none" xmlns="http://www.w3.org/2000/svg">
<ellipse cx="88.3072" cy="90" rx="87.9645" ry="90" fill="#6BBF59"/>
<g clip-path="url(#clip0_762_670)">
<path d="M152.78 78.4767C149.743 61.7771 140.182 47.224 125.858 37.498C111.533 27.7718 94.1602 24.0372 76.9385 26.9816C59.7173 29.9259 44.7092 39.1974 34.679 53.0878C24.6489 66.9779 20.7975 83.8248 23.8339 100.524C26.8705 117.224 36.4315 131.777 50.7563 141.503C61.8872 149.061 74.8575 153 88.1678 153C91.9872 153 95.8354 152.676 99.675 152.019C116.896 149.075 131.904 139.803 141.934 125.913C151.964 112.022 155.816 95.176 152.78 78.4767ZM142.231 61.0357L140.708 61.2959C139.029 61.5829 137.489 62.339 136.256 63.4812L134.993 64.6513C133.739 65.8126 131.882 66.1743 130.263 65.573L125.627 63.8503C124.437 63.4085 123.2 63.1176 121.946 62.9767C121.978 62.8787 122.011 62.7807 122.038 62.6805L123.186 58.4057L127.081 57.7397L127.716 61.2295C127.891 62.1941 128.756 62.8725 129.732 62.8725C129.85 62.8725 129.97 62.8623 130.091 62.842C131.206 62.6513 131.95 61.6204 131.754 60.5391L131.256 57.8052L133.026 58.3156C134.624 58.7765 136.337 58.872 137.979 58.591L140.506 58.1589C141.108 59.1022 141.684 60.0606 142.231 61.0357ZM118.971 46.5165L118.164 42.0802C118.131 41.9031 118.171 41.7245 118.275 41.5762L120.375 38.7621C121.434 39.3933 122.479 40.0569 123.506 40.7546C123.935 41.0466 124.359 41.3425 124.778 41.6429L123.159 43.0803C122.324 43.8217 122.267 45.0791 123.031 45.889C123.436 46.3173 123.989 46.5346 124.544 46.5346C125.039 46.5346 125.535 46.3622 125.928 46.013L128.035 44.1427C131.81 47.2408 135.149 50.7336 138.007 54.5495L137.268 54.6763C136.249 54.8502 135.187 54.7914 134.195 54.5054L132.244 53.9426C130.646 53.4817 128.933 53.3862 127.291 53.667L121.179 54.7123C120.389 54.8472 119.753 55.4162 119.55 56.1688L118.07 61.6784C117.842 62.5287 117.118 63.1766 116.226 63.3292L112.597 63.9498H112.596L112.53 63.9612C111.269 64.177 110.06 63.3572 109.838 62.1336L109.284 59.0881C109.101 58.081 109.642 57.0786 110.6 56.6505L114.76 54.7911C114.799 54.7733 114.839 54.7542 114.877 54.7338C115.97 54.1599 116.925 53.3348 117.637 52.3479C118.87 50.6398 119.344 48.5694 118.971 46.5165ZM38.0377 55.3683C38.7677 54.3571 39.5293 53.3753 40.3148 52.4171L42.3789 53.8185C43.3061 54.4481 44.4306 54.6902 45.5452 54.4992C46.6597 54.3087 47.631 53.7084 48.2799 52.8097L49.4205 51.2299C50.4463 49.8089 51.9819 48.8606 53.7436 48.5594L54.336 48.4582L55.0036 52.1298C55.1791 53.0945 56.044 53.7729 57.0201 53.7729C57.1383 53.7729 57.2582 53.7632 57.3785 53.7424C58.4935 53.5519 59.2381 52.5208 59.0414 51.4395L58.9169 50.7547L67.4555 46.2154L77.2204 44.5458L75.4968 45.2914C74.0615 45.9123 73.1741 47.2445 73.1815 48.7683C73.1887 50.2925 74.0886 51.6166 75.5295 52.2246L81.3607 54.6845C81.4257 54.712 81.4582 54.782 81.4362 54.8472L81.0205 56.0778C81.0047 56.1244 80.964 56.1586 80.9141 56.1671L77.666 56.7224C76.5512 56.9129 75.5799 57.5132 74.9307 58.4121C74.9146 58.4342 74.8992 58.4568 74.8841 58.4793L61.1907 79.199L57.6752 79.8003C52.9994 80.6 49.8661 84.9388 50.6906 89.4729L50.7548 89.8268L47.157 89.747C45.7554 89.7157 44.4726 89.0718 43.6377 87.9801L41.8762 85.6772C41.4137 85.0723 40.6376 84.7731 39.8736 84.9038L38.3569 85.163C36.8863 85.4143 35.4201 84.7277 34.7087 83.4542L29.1625 73.5219C31.0104 67.1109 33.9845 60.9817 38.0377 55.3683ZM138.575 123.631C129.174 136.653 115.106 145.344 98.9631 148.104C95.3627 148.719 91.7575 149.024 88.1763 149.023C75.7001 149.023 63.5404 145.33 53.1076 138.246C39.6802 129.129 30.7177 115.487 27.8717 99.8335C26.6244 92.9736 26.6172 86.0875 27.7937 79.4195L31.1035 85.3466C32.6564 88.1275 35.8573 89.6267 39.0691 89.0777L39.3377 89.0318L40.3445 90.348C41.9389 92.4323 44.3879 93.6619 47.0638 93.7212L56.5881 93.9323C57.0482 93.9427 57.4908 94.0831 57.8676 94.3391L58.4932 94.764C59.3952 95.3766 60.4207 95.7467 61.4861 95.8571L60.5627 101.743C60.5292 101.957 60.5317 102.175 60.5703 102.388L61.5278 107.654C61.9389 109.915 63.4458 111.885 65.5587 112.924L72.9375 116.549C73.9052 117.024 74.5951 117.926 74.7834 118.962L76.0598 125.982C76.6195 129.058 77.791 131.947 79.5428 134.568L83.8822 141.062C84.7583 142.372 86.258 143.147 87.8496 143.147C88.0911 143.147 88.3351 143.129 88.5789 143.093C89.8431 142.903 90.9497 142.243 91.6943 141.235C92.4389 140.226 92.727 138.998 92.5047 137.777L91.2697 130.985L94.4091 128.077C95.9058 126.691 96.8377 124.827 97.0333 122.828L97.5518 117.53C97.6086 117.254 97.834 117.039 98.122 116.99L99.4757 116.758C101.652 116.386 103.281 114.633 103.436 112.496L103.824 107.174C104.035 104.265 102.636 101.419 100.173 99.7467L99.0536 98.9865C97.1697 97.7073 94.8851 97.2159 92.6195 97.6034L91.649 97.7691C91.0387 97.874 90.4212 97.7413 89.9126 97.3957L82.33 92.247C79.4888 90.3182 76.0429 89.5775 72.628 90.1612L62.5799 91.8792C61.9693 91.9838 61.3523 91.8511 60.8438 91.5059L60.2181 91.081C59.1757 90.3733 57.9525 89.9841 56.6804 89.9561L54.9348 89.9174L54.7281 88.7803C54.2963 86.4053 55.9375 84.1324 58.3866 83.7135L60.6747 83.3223L61.0781 85.5411C61.2536 86.5057 62.1184 87.1841 63.0946 87.1841C63.2128 87.1841 63.3327 87.174 63.4529 87.1536C64.568 86.9629 65.3126 85.932 65.1159 84.8508L64.5135 81.5368L78.3001 60.6773C78.3203 60.6555 78.3479 60.6408 78.3781 60.6356L81.6263 60.08C83.1685 59.8166 84.4293 58.7562 84.9169 57.3133L85.3325 56.0825C86.0171 54.0559 85.0128 51.8865 82.9963 51.0359L77.5688 48.7465L83.7172 46.0874C84.5764 45.7161 85.0645 44.8248 84.9013 43.9269L84.4227 41.2936C84.328 40.7745 84.0249 40.3126 83.5795 40.0102C83.1339 39.7079 82.5829 39.5893 82.0476 39.6811L66.4105 42.3548C66.19 42.3925 65.9772 42.4647 65.781 42.5696L58.1648 46.6182L58.0175 45.8083C57.9228 45.2892 57.6197 44.8276 57.1743 44.5252C56.729 44.2228 56.1775 44.1043 55.6424 44.1958L53.0306 44.6425C50.1902 45.1282 47.7151 46.6572 46.0609 48.9479L44.9202 50.5277C44.9121 50.5389 44.8878 50.5726 44.832 50.5823C44.7762 50.5922 44.7414 50.5681 44.7297 50.5602L42.98 49.372C52.067 39.6808 64.1298 33.207 77.6496 30.8952C81.25 30.2798 84.8552 29.9757 88.4364 29.9757C98.32 29.9757 108.004 32.2962 116.79 36.7817L114.94 39.2611C114.933 39.2696 114.927 39.2778 114.921 39.2867C114.184 40.3067 113.902 41.5434 114.125 42.77L114.932 47.2066C115.115 48.2134 114.883 49.2287 114.278 50.0663C113.94 50.5346 113.49 50.9285 112.976 51.2088L108.883 53.0387C106.235 54.2221 104.74 56.9933 105.246 59.7771L105.8 62.8227C106.062 64.2621 106.82 65.4951 107.869 66.3958C106.782 67.4979 106.002 68.8909 105.663 70.4635L104.66 75.1169C104.276 76.8976 104.247 78.7089 104.573 80.5003C105.371 84.8894 108.295 88.7121 112.395 90.7265L112.76 90.9058C115.574 92.2887 118.836 92.7575 121.944 92.2264L122.105 92.1989C123.292 91.996 124.488 92.2535 125.475 92.9234C126.462 93.5932 127.121 94.5963 127.33 95.7465L128.605 102.759C129.067 105.301 130.04 107.685 131.498 109.845L136.258 116.899C137.354 118.523 138.977 119.7 140.82 120.287C140.113 121.42 139.366 122.536 138.575 123.631ZM87.0421 130.628L88.4674 138.467C88.5047 138.672 88.4303 138.827 88.3612 138.92C88.2924 139.013 88.1655 139.131 87.9361 139.166C87.6972 139.202 87.4554 139.097 87.3232 138.9L82.9838 132.406C81.5324 130.234 80.5614 127.841 80.0979 125.292L78.8214 118.272C78.4103 116.01 76.9034 114.04 74.7905 113.002L67.4117 109.377C66.444 108.902 65.7541 108 65.5659 106.964L64.6665 102.019L65.7076 95.3833L73.3406 94.0781C75.6776 93.6785 78.0351 94.1855 79.9789 95.5051L87.5616 100.654C88.9675 101.608 90.6716 101.975 92.3617 101.686L93.3324 101.52C94.5186 101.317 95.7157 101.574 96.7026 102.244L97.8222 103.005C99.1125 103.881 99.8454 105.372 99.7343 106.895L99.3471 112.216C99.3243 112.531 99.0846 112.789 98.7646 112.843L97.4109 113.075C95.3699 113.424 93.7941 114.994 93.4903 116.982C93.4851 117.016 93.4808 117.051 93.4775 117.086L92.952 122.453C92.8495 123.5 92.3614 124.476 91.5774 125.202L87.6445 128.846C87.1492 129.305 86.9231 129.974 87.0421 130.628ZM142.901 116.691C141.603 116.519 140.423 115.81 139.691 114.724L134.93 107.669C133.778 105.962 133.009 104.078 132.644 102.07L131.369 95.0572C130.969 92.8609 129.712 90.9468 127.828 89.6676C125.944 88.3884 123.659 87.897 121.394 88.2845L121.233 88.312C118.993 88.6947 116.642 88.3569 114.614 87.3602L114.249 87.1812C111.294 85.7293 109.186 82.9743 108.611 79.8112C108.377 78.5201 108.398 77.2146 108.674 75.9315L109.677 71.2778C110.056 69.5172 111.482 68.178 113.308 67.8652L118.277 67.0157C120.253 66.6778 122.287 66.8673 124.16 67.5633L128.797 69.2858C131.888 70.4342 135.432 69.7439 137.826 67.5266L139.089 66.3566C139.735 65.758 140.541 65.3624 141.421 65.2118L144.137 64.7475C146.269 69.29 147.825 74.1234 148.742 79.1675C151.099 92.1317 149.023 105.189 142.901 116.691Z" fill="white"/>
<path d="M69.1571 51.0932C68.4555 50.2317 67.1663 50.0849 66.2776 50.7653L62.9724 53.2964C62.084 53.9768 61.9323 55.2272 62.6342 56.0886C63.0384 56.5855 63.6383 56.8447 64.2443 56.8447C64.6891 56.8447 65.1372 56.7048 65.5138 56.4166L68.819 53.8855C69.7074 53.2048 69.8591 51.9549 69.1571 51.0932Z" fill="white"/>
<path d="M111.487 46.7784L110.728 42.6018C110.531 41.5203 109.468 40.7985 108.353 40.9893C107.238 41.1798 106.493 42.2109 106.69 43.2921L107.449 47.4687C107.625 48.4334 108.49 49.1118 109.466 49.1118C109.584 49.1118 109.704 49.1016 109.824 49.0813C110.939 48.8906 111.684 47.8597 111.487 46.7784Z" fill="white"/>
</g>
<defs>
<clipPath id="clip0_762_670">
<rect width="130.969" height="127" fill="white" transform="translate(22.8223 26)"/>
</clipPath>
</defs>
</svg>
