<svg width="177" height="180" viewBox="0 0 177 180" fill="none" xmlns="http://www.w3.org/2000/svg">
<ellipse cx="88.902" cy="90" rx="87.9645" ry="90" fill="#6BBF59"/>
<g clip-path="url(#clip0_762_669)" filter="url(#filter0_d_762_669)">
<path d="M42.4672 125.048C44.7035 129.818 48.7459 132.667 53.2856 132.667H86.8428L83.1659 136.095C82.5907 136.632 82.502 137.603 82.9724 138.263C83.2385 138.639 83.6255 138.833 84.0153 138.833C84.3136 138.833 84.6119 138.719 84.8619 138.488L91.4712 132.321C91.7508 132.062 91.9281 131.683 91.9604 131.27C91.9953 130.857 91.8825 130.447 91.6513 130.132L85.8994 122.304C85.421 121.653 84.5743 121.576 84.0045 122.115C83.4374 122.667 83.3648 123.639 83.8432 124.289L87.7352 129.583H53.2856C49.7538 129.583 46.593 127.342 44.8325 123.589C43.0155 119.71 43.1499 115.113 45.1738 111.598L54.3419 96.049C54.7585 95.3429 54.5973 94.384 53.9817 93.9092C53.3662 93.4251 52.5303 93.6162 52.1164 94.3223L42.9403 109.887C40.3626 114.358 40.1799 120.17 42.4672 125.048Z" fill="white"/>
<path d="M136.642 124.884C138.881 120.105 138.709 114.629 136.169 110.229L119.709 82.1956L125.319 83.4813C126.047 83.6571 126.754 83.1083 126.899 82.2696C127.044 81.434 126.571 80.6231 125.843 80.4566L116.677 78.3568C115.952 78.178 115.242 78.7299 115.097 79.5686L113.267 90.0828C113.122 90.9183 113.595 91.7293 114.32 91.8958C114.409 91.9173 114.498 91.9266 114.586 91.9266C115.213 91.9266 115.774 91.4209 115.903 90.6871L117.175 83.395L133.936 111.941C135.911 115.369 136.038 119.661 134.275 123.426C132.466 127.28 129.184 129.583 125.496 129.583H105.518C104.776 129.583 104.174 130.274 104.174 131.125C104.174 131.976 104.776 132.667 105.518 132.667H125.496C130.119 132.667 134.393 129.685 136.642 124.884Z" fill="white"/>
<path d="M89.3907 43.25C92.6618 43.25 95.691 45.1154 97.4945 48.245L107.98 66.4305C108.388 67.1397 109.221 67.3401 109.842 66.8683C110.46 66.3997 110.63 65.4408 110.221 64.7347L99.7361 46.5492C97.4327 42.5501 93.5649 40.1667 89.3907 40.1667C85.2166 40.1667 81.3488 42.5501 79.0615 46.5214L60.7603 76.8491L59.54 69.8838C59.3922 69.0483 58.6853 68.5025 57.9569 68.6752C57.2312 68.8448 56.7581 69.6557 56.906 70.4913L58.7471 81.0023C58.817 81.4032 59.0239 81.7547 59.3196 81.9798C59.5427 82.1524 59.8007 82.2388 60.0641 82.2388C60.1528 82.2388 60.2415 82.2295 60.3302 82.2079L69.4929 80.0928C70.2213 79.9232 70.6917 79.1123 70.5466 78.2767C70.3987 77.4411 69.6945 76.9015 68.9634 77.068L63.0718 78.4308L81.287 48.245C83.0905 45.1154 86.1197 43.25 89.3907 43.25Z" fill="white"/>
</g>
<defs>
<filter id="filter0_d_762_669" x="37.0103" y="34" width="104.761" height="119" filterUnits="userSpaceOnUse" color-interpolation-filters="sRGB">
<feFlood flood-opacity="0" result="BackgroundImageFix"/>
<feColorMatrix in="SourceAlpha" type="matrix" values="0 0 0 0 0 0 0 0 0 0 0 0 0 0 0 0 0 0 127 0" result="hardAlpha"/>
<feOffset dy="4"/>
<feGaussianBlur stdDeviation="2"/>
<feComposite in2="hardAlpha" operator="out"/>
<feColorMatrix type="matrix" values="0 0 0 0 0 0 0 0 0 0 0 0 0 0 0 0 0 0 0.25 0"/>
<feBlend mode="normal" in2="BackgroundImageFix" result="effect1_dropShadow_762_669"/>
<feBlend mode="normal" in="SourceGraphic" in2="effect1_dropShadow_762_669" result="shape"/>
</filter>
<clipPath id="clip0_762_669">
<rect width="96.7609" height="111" fill="white" transform="translate(41.0103 34)"/>
</clipPath>
</defs>
</svg>
