<svg width="57" height="57" viewBox="0 0 57 57" fill="none" xmlns="http://www.w3.org/2000/svg">
<path d="M42.8987 33.8993H48.2992M37.4981 41.0995H48.2992M37.4981 48.2998H48.2992M23.1061 48.2325C18.7982 47.9009 14.6661 46.3832 11.1678 43.8476C7.66947 41.312 4.94143 37.8575 3.28595 33.8668C1.63047 29.8761 1.11217 25.5051 1.78848 21.2379C2.46479 16.9708 4.3093 12.9742 7.11765 9.69086C9.92601 6.40755 13.5886 3.96575 17.6995 2.63599C21.8105 1.30622 26.2094 1.14042 30.4088 2.15695C34.6082 3.17347 38.4442 5.33264 41.4918 8.39523C44.5393 11.4578 46.6795 15.3043 47.6752 19.5084M15.8958 46.4973V35.6969C15.8958 35.6969 18.3176 34.5929 18.9441 33.1816C19.1368 32.7486 19.2283 32.2774 19.2117 31.8037C19.195 31.33 19.0707 30.8664 18.8481 30.4479L15.8262 24.7718C15.4982 24.1586 14.9748 23.6725 14.339 23.3908C13.7033 23.109 12.9916 23.0477 12.317 23.2165L1.51585 25.9094M12.2954 5.17749V14.6626C12.2939 15.3597 12.526 16.0372 12.9545 16.587C13.383 17.1369 13.9833 17.5274 14.6597 17.6963L19.2201 19.2564C19.6807 19.3714 20.1614 19.3798 20.6257 19.281C21.09 19.1822 21.5256 18.9788 21.8994 18.6863C22.2732 18.3937 22.5753 18.0198 22.7828 17.5929C22.9902 17.1659 23.0976 16.6973 23.0965 16.2227V12.9394L33.0912 11.2929C33.8195 11.1714 34.4812 10.7955 34.9585 10.2321C35.4357 9.66872 35.6977 8.95434 35.6979 8.21599V4.13585M30.2973 26.699H55.5V55.5H30.2973V26.699Z" stroke="#6BBF59" stroke-width="3" stroke-linecap="round" stroke-linejoin="round"/>
</svg>
