<svg width="82" height="81" viewBox="0 0 82 81" fill="none" xmlns="http://www.w3.org/2000/svg">
<path d="M0.635742 5.08118C0.635742 2.31975 2.87432 0.0811768 5.63574 0.0811768H76.4934C79.2548 0.0811768 81.4934 2.31975 81.4934 5.08118V75.9388C81.4934 78.7003 79.2548 80.9388 76.4934 80.9388H5.63574C2.87432 80.9388 0.635742 78.7003 0.635742 75.9388V5.08118Z" fill="#6BBF59" fill-opacity="0.5"/>
<path d="M48.629 49.1021C52.8766 46.4619 55.4126 41.9036 55.4126 36.9088C55.4126 31.7969 52.6594 27.0321 48.2274 24.4737C47.8238 24.2407 47.3075 24.3791 47.0746 24.7828C46.8415 25.1864 46.9798 25.7026 47.3836 25.9357C48.5826 26.628 49.6417 27.5037 50.5349 28.5146L50.2162 29.3114L48.715 31.5633H46.4658C45.8999 31.5633 45.4857 32.1363 45.6651 32.6743L46.4349 34.9836L45.5655 36.2875L44.4672 34.64C44.3107 34.4052 44.0472 34.2642 43.765 34.2642H40.6856L39.3373 31.5676L40.8662 29.2744C41.144 28.8579 40.9882 28.2747 40.5414 28.0513L36.9692 26.265L35.6525 25.475C37.2447 24.7138 39.0169 24.2756 40.8832 24.2496C42.0906 24.2323 43.2889 24.3855 44.4409 24.7034C44.8899 24.8275 45.355 24.5636 45.4791 24.1143C45.6032 23.665 45.3395 23.2001 44.89 23.0761C43.5842 22.7156 42.2277 22.5436 40.8598 22.5616C33.0744 22.6701 26.7295 29.0945 26.7157 36.8828C26.707 41.9016 29.2531 46.4761 33.5271 49.1191C34.3237 49.6117 34.8183 50.5061 34.8183 51.4535V53.1701H33.8617C33.3955 53.1701 33.0177 53.548 33.0177 54.0142V61.2165C33.0177 64.6604 35.8195 67.4623 39.2635 67.4623H42.8647C46.3086 67.4623 49.1105 64.6605 49.1105 61.2165V54.0142C49.1105 53.5481 48.7328 53.1701 48.2665 53.1701H47.3099V51.4318C47.31 50.4864 47.8031 49.6154 48.629 49.1021ZM50.1678 45.7125L49.9945 44.8458C49.9729 44.7378 49.9304 44.6349 49.8691 44.5432L48.4108 42.3558L51.4177 38.5973L53.6505 38.2784C53.3486 41.1029 52.12 43.703 50.1678 45.7125ZM34.7139 47.8888C34.6171 47.817 34.5182 47.7476 34.415 47.6837C30.6431 45.351 28.3959 41.3145 28.4037 36.8859C28.4038 36.8195 28.4054 36.7534 28.4067 36.6871L29.7924 37.611C29.9311 37.7035 30.094 37.7528 30.2606 37.7528H32.6119L35.0655 40.2065C35.2239 40.3648 35.4384 40.4537 35.6624 40.4537H38.7418L39.6984 42.3668H35.6623C35.0467 42.3668 34.6313 43.0366 34.9074 43.5883L35.6512 45.0762L34.7139 47.8888ZM42.8647 65.7745H39.2635C37.0387 65.7745 35.1825 64.1719 34.7855 62.0609H47.3428C46.9458 64.1719 45.0894 65.7745 42.8647 65.7745ZM47.4225 60.3728H34.7059V58.4597H47.4225V60.3728ZM47.4225 54.8584V56.7715H34.7059V54.8584H47.4225ZM45.6219 51.432V53.1703H36.5064V51.4537C36.5064 50.7246 36.3221 50.0152 35.9909 49.3853C35.9959 49.3722 36.0026 49.3604 36.0072 49.3468L37.3633 45.2782C37.509 44.8407 37.2159 44.4306 37.0281 44.0547H41.0641C41.6797 44.0547 42.0951 43.3849 41.819 42.8332L40.0185 39.232C39.8754 38.946 39.5833 38.7653 39.2636 38.7653H36.0119L33.5583 36.3117C33.3999 36.1534 33.1854 36.0645 32.9614 36.0645H30.5161L28.5861 34.7778C29.1792 31.3321 31.1833 28.3427 33.9775 26.4385L36.1285 27.7291C36.1469 27.7403 36.1659 27.7506 36.1852 27.7603L38.9312 29.1334L37.6611 31.0387C37.493 31.2906 37.4729 31.6134 37.6084 31.8843L39.409 35.4855C39.5521 35.7715 39.8441 35.9522 40.1639 35.9522H43.3133L44.8633 38.2771C45.1916 38.7696 45.9395 38.7698 46.2678 38.2771L48.0683 35.5763C48.2128 35.3595 48.2491 35.0883 48.1668 34.8412L47.6369 33.2513H49.1669C49.4491 33.2513 49.7127 33.1104 49.8691 32.8755L51.6697 30.1746C51.6884 30.1464 51.705 30.1168 51.7203 30.0865C52.9443 32 53.6546 34.2346 53.7187 36.5634L50.848 36.9735C50.6355 37.0039 50.4425 37.1142 50.3083 37.2819L46.7071 41.7834C46.4775 42.0704 46.4601 42.473 46.664 42.7787L48.372 45.3407L48.7048 47.0043C48.3947 47.2383 48.0727 47.4604 47.7381 47.6684C46.4129 48.4922 45.6219 49.8991 45.6219 51.432Z" fill="black"/>
<path d="M41.0642 13.5574C40.598 13.5574 40.2201 13.9353 40.2201 14.4015V18.903C40.2201 19.3691 40.5979 19.747 41.0642 19.747C41.5303 19.747 41.9082 19.3692 41.9082 18.903V14.4015C41.9082 13.9353 41.5303 13.5574 41.0642 13.5574Z" fill="black"/>
<path d="M32.3421 21.0139L30.0913 17.1155C29.8583 16.7117 29.3418 16.5734 28.9383 16.8066C28.5347 17.0397 28.3963 17.5559 28.6294 17.9595L30.8801 21.858C31.1281 22.2877 31.7115 22.4099 32.1119 22.1155C32.4538 21.864 32.554 21.3812 32.3421 21.0139Z" fill="black"/>
<path d="M25.113 27.6251L21.2145 25.3743C20.8106 25.1412 20.2946 25.2795 20.0616 25.6832C19.8285 26.0869 19.9668 26.6031 20.3705 26.8362L24.2689 29.0869C24.6996 29.3355 25.2652 29.1483 25.4644 28.6939C25.6348 28.3053 25.4801 27.837 25.113 27.6251Z" fill="black"/>
<path d="M22.158 36.9651H17.6565C17.1903 36.9651 16.8124 37.343 16.8124 37.8092C16.8124 38.2753 17.1902 38.6532 17.6565 38.6532H22.158C22.6242 38.6532 23.002 38.2753 23.002 37.8092C23.002 37.343 22.6242 36.9651 22.158 36.9651Z" fill="black"/>
<path d="M25.4219 46.8403C25.1887 46.4365 24.6725 46.2981 24.2689 46.5313L20.3705 48.782C20.0033 48.994 19.8487 49.4622 20.019 49.8509C20.2181 50.3051 20.7839 50.4926 21.2145 50.244L25.113 47.9932C25.5166 47.7601 25.655 47.2439 25.4219 46.8403Z" fill="black"/>
<path d="M61.7577 48.782L57.8593 46.5313C57.4553 46.2981 56.9393 46.4364 56.7063 46.8402C56.4732 47.2438 56.6116 47.76 57.0152 47.9931L60.9137 50.2439C61.3444 50.4924 61.91 50.3052 62.1092 49.8508C62.2796 49.4622 62.1248 48.9939 61.7577 48.782Z" fill="black"/>
<path d="M64.4718 36.9651H59.9703C59.5041 36.9651 59.1263 37.343 59.1263 37.8092C59.1263 38.2753 59.504 38.6532 59.9703 38.6532H64.4718C64.938 38.6532 65.3159 38.2753 65.3159 37.8092C65.3159 37.343 64.938 36.9651 64.4718 36.9651Z" fill="black"/>
<path d="M62.0666 25.6832C61.8334 25.2795 61.3171 25.1412 60.9137 25.3743L57.0152 27.6251C56.6839 27.8164 56.5184 28.2289 56.628 28.5957C56.733 28.9471 57.071 29.2001 57.438 29.2001C57.5812 29.2001 57.7265 29.1637 57.8593 29.0869L61.7577 26.8362C62.1614 26.6031 62.2997 26.0869 62.0666 25.6832Z" fill="black"/>
<path d="M53.19 16.8066C52.786 16.5733 52.27 16.7118 52.037 17.1155L49.7862 21.0139C49.5531 21.4176 49.6915 21.9338 50.0951 22.1669C50.4939 22.3971 51.0183 22.2562 51.2481 21.858L53.4989 17.9595C53.732 17.5559 53.5936 17.0397 53.19 16.8066Z" fill="black"/>
</svg>
