<svg width="444" height="91" viewBox="0 0 444 91" fill="none" xmlns="http://www.w3.org/2000/svg">
<path d="M97.0547 47.7713C97.2156 49.8146 97.5555 51.6377 98.0742 53.2406C98.5929 54.8436 99.219 56.1558 99.9524 57.1775C100.704 58.1991 101.571 59.0446 102.555 59.7139C103.539 60.3657 104.549 60.8325 105.587 61.1143C106.624 61.3785 107.733 61.5106 108.914 61.5106C112.688 61.5106 115.63 60.7972 117.741 59.3705C119.87 57.9261 121.569 55.7067 122.839 52.7122L129.976 55.143C129.332 56.8516 128.509 58.4633 127.507 59.9782C126.524 61.4754 125.334 62.8583 123.939 64.1265C122.544 65.3947 120.987 66.4868 119.27 67.4028C117.571 68.3011 115.648 69.0057 113.502 69.5165C111.355 70.0274 109.093 70.2828 106.714 70.2828C103.19 70.2828 99.854 69.6751 96.7059 68.4597C93.5756 67.2443 90.8479 65.5532 88.5226 63.3866C86.2151 61.2024 84.3817 58.5162 83.0223 55.328C81.6808 52.1397 81.01 48.6697 81.01 44.9178C81.01 41.1659 81.6808 37.6782 83.0223 34.4547C84.3817 31.2313 86.2151 28.5187 88.5226 26.3169C90.8479 24.0974 93.5756 22.3624 96.7059 21.1118C99.854 19.8611 103.19 19.2358 106.714 19.2358C110.237 19.2358 113.564 19.8611 116.695 21.1118C119.843 22.3624 122.57 24.0974 124.878 26.3169C127.203 28.5187 129.037 31.2313 130.378 34.4547C131.738 37.6782 132.417 41.1659 132.417 44.9178L131.747 47.7713H97.0547ZM97.2425 39.3164H116.185C115.72 35.265 114.691 32.3146 113.099 30.4651C111.507 28.6156 109.397 27.6908 106.767 27.6908C105.462 27.6908 104.29 27.9022 103.253 28.3249C102.215 28.73 101.285 29.3906 100.462 30.3065C99.6393 31.2049 98.9507 32.4115 98.3962 33.9263C97.8596 35.4235 97.475 37.2202 97.2425 39.3164Z" fill="#6BBF59"/>
<path d="M172.448 29.5667C170.409 28.3161 167.816 27.6908 164.668 27.6908C163.398 27.6908 162.217 27.8669 161.126 28.2192C160.035 28.5539 158.988 29.1352 157.987 29.9631C157.003 30.7909 156.162 31.839 155.465 33.1072C154.767 34.3755 154.213 35.9872 153.801 37.9424C153.39 39.8976 153.184 42.1171 153.184 44.6007C153.184 47.0844 153.408 49.295 153.855 51.2326C154.302 53.1702 154.892 54.7555 155.626 55.9885C156.377 57.2215 157.271 58.2343 158.309 59.027C159.364 59.8196 160.446 60.3833 161.555 60.718C162.664 61.035 163.863 61.1936 165.15 61.1936C168.925 61.1936 171.867 60.4802 173.978 59.0534C176.106 57.609 177.806 55.3896 179.076 52.3951L186.212 54.8259C185.569 56.5345 184.746 58.1463 183.744 59.6611C182.76 61.1583 181.571 62.5411 180.176 63.8094C178.78 65.0776 177.224 66.1698 175.507 67.0857C173.808 67.9841 171.885 68.6887 169.738 69.1995C167.592 69.7103 165.329 69.9657 162.95 69.9657C159.427 69.9657 156.091 69.358 152.943 68.1426C149.812 66.9272 147.085 65.2361 144.759 63.0695C142.452 60.8853 140.618 58.1991 139.259 55.0109C137.918 51.8227 137.247 48.3526 137.247 44.6007C137.247 41.5886 137.676 38.7527 138.535 36.0929C139.393 33.4331 140.601 31.0816 142.157 29.0383C143.731 26.995 145.573 25.2336 147.684 23.754C149.794 22.2743 152.138 21.1558 154.713 20.3984C157.289 19.6233 159.99 19.2358 162.816 19.2358C165.052 19.2358 167.154 19.4472 169.121 19.8699C171.089 20.2751 172.842 20.8387 174.38 21.5609C175.936 22.2655 177.385 23.1463 178.727 24.2031C180.068 25.26 181.24 26.3873 182.242 27.5851C183.261 28.7653 184.209 30.0951 185.086 31.5748C185.998 32.9663 186.454 34.49 186.454 36.1457C186.454 38.4885 185.613 40.4877 183.932 42.1435C182.268 43.7816 180.247 44.6007 177.868 44.6007C175.489 44.6007 173.459 43.7816 171.778 42.1435C170.114 40.4877 169.282 38.4885 169.282 36.1457C169.282 34.8423 169.56 33.618 170.114 32.4731C170.687 31.3282 171.465 30.3594 172.448 29.5667Z" fill="#6BBF59"/>
<path d="M207.57 21.2175C210.718 20.0021 214.054 19.3944 217.577 19.3944C221.101 19.3944 224.428 20.0021 227.558 21.2175C230.706 22.4329 233.443 24.1327 235.768 26.3169C238.094 28.4834 239.927 31.1608 241.269 34.3491C242.628 37.5373 243.308 41.0074 243.308 44.7592C243.308 48.5111 242.628 51.9812 241.269 55.1694C239.927 58.3577 238.094 61.0439 235.768 63.2281C233.443 65.3947 230.706 67.0857 227.558 68.3011C224.428 69.5165 221.101 70.1242 217.577 70.1242C214.054 70.1242 210.718 69.5165 207.57 68.3011C204.439 67.0857 201.712 65.3947 199.386 63.2281C197.079 61.0439 195.245 58.3577 193.886 55.1694C192.544 51.9812 191.874 48.5111 191.874 44.7592C191.874 41.0074 192.544 37.5373 193.886 34.3491C195.245 31.1608 197.079 28.4834 199.386 26.3169C201.712 24.1327 204.439 22.4329 207.57 21.2175ZM217.577 27.8493C216.325 27.8493 215.207 28.0255 214.223 28.3778C213.24 28.73 212.336 29.3113 211.514 30.1216C210.691 30.9319 210.011 31.9799 209.474 33.2658C208.956 34.5516 208.544 36.1545 208.24 38.0745C207.954 39.9945 207.811 42.2228 207.811 44.7592C207.811 47.2957 207.954 49.524 208.24 51.444C208.544 53.3639 208.956 54.9668 209.474 56.2527C210.011 57.5386 210.691 58.5866 211.514 59.3969C212.336 60.2072 213.24 60.7884 214.223 61.1407C215.207 61.493 216.325 61.6692 217.577 61.6692C219.151 61.6692 220.52 61.3785 221.682 60.7972C222.845 60.1983 223.856 59.2472 224.714 57.9437C225.591 56.6402 226.244 54.8876 226.673 52.6858C227.12 50.484 227.344 47.8418 227.344 44.7592C227.344 41.6767 227.12 39.0345 226.673 36.8327C226.244 34.6309 225.591 32.8782 224.714 31.5748C223.856 30.2713 222.845 29.3289 221.682 28.7477C220.52 28.1488 219.151 27.8493 217.577 27.8493Z" fill="#6BBF59"/>
<path d="M291.269 12.7177C291.269 10.375 291.976 13.1642 291.788 11.6966C292.684 10.8139 295.316 10.6756 291.788 11.6966C292.747 11.3357 291.485 14.2489 292.595 14.2489C293.49 14.2489 293.003 16.0264 293.862 16.2906C294.971 16.6253 293.669 12.9331 293.862 14.5039C289.766 24.6959 292.077 14.8341 292.595 15.4859C293.114 16.1376 293.54 13.6408 293.862 14.5039C294.184 15.3494 295.418 14.2489 299.437 10.6752C299.562 11.5207 299.625 12.4631 299.625 13.5023C299.625 14.5768 299.41 15.7041 298.981 16.8843C298.552 18.0645 297.979 19.183 297.264 20.2399C296.566 21.2791 295.797 22.2567 294.956 23.1727C294.134 24.071 293.284 24.8637 292.408 25.5506C295.073 28.14 296.405 31.3194 296.405 35.0889C296.405 37.9072 295.779 40.4173 294.527 42.6191C293.293 44.8033 291.585 46.5735 289.403 47.9299C287.22 49.2686 284.725 50.2814 281.917 50.9684C279.126 51.6553 276.086 51.9988 272.794 51.9988C270.076 51.9988 267.473 51.6994 264.987 51.1005C263.359 51.3471 262.107 51.7786 261.231 52.3951C260.354 53.0116 259.916 53.5841 259.916 54.1126C259.916 54.641 260.139 55.1254 260.587 55.5657C261.034 56.0061 261.526 56.2263 262.062 56.2263H277.087C284.654 56.2263 290.118 57.292 293.481 59.4233C296.861 61.5547 298.552 65.0689 298.552 69.9657C298.552 72.3261 298.257 74.4662 297.666 76.3862C297.076 78.3238 296.271 79.9708 295.252 81.3271C294.25 82.701 293.007 83.9076 291.522 84.9469C290.038 86.0037 288.481 86.8492 286.854 87.4833C285.226 88.1175 283.41 88.6283 281.407 89.0158C279.404 89.4034 277.463 89.6676 275.585 89.8085C273.707 89.967 271.703 90.0463 269.575 90.0463C266.176 90.0463 263.1 89.6764 260.345 88.9366C257.608 88.2144 255.355 87.2191 253.584 85.9509C251.831 84.6826 250.48 83.2206 249.532 81.5649C248.584 79.9267 248.11 78.1741 248.11 76.3069C248.11 72.4846 250.337 69.4989 254.791 67.35C253.056 66.4868 251.688 65.3066 250.686 63.8094C249.684 62.2945 249.184 60.4714 249.184 58.34C249.184 55.9621 249.881 53.8043 251.276 51.8667C252.672 49.9291 254.55 48.5199 256.911 47.6392C254.818 46.1772 253.181 44.3982 252.001 42.302C250.838 40.2059 250.257 37.8015 250.257 35.0889C250.257 32.8342 250.659 30.8086 251.464 29.0119C252.287 27.2152 253.387 25.7268 254.764 24.5466C256.16 23.3488 257.823 22.3624 259.755 21.5874C261.705 20.7947 263.753 20.231 265.899 19.8964C268.045 19.5617 270.344 19.3944 272.794 19.3944C278.447 19.3944 283.267 20.3103 287.256 22.1422C288.168 21.103 288.875 20.1254 289.376 19.2094C289.995 18.0769 291.01 16.5456 289.851 15.4135C291.407 13.1168 291.269 14.9547 291.269 12.7177ZM273.331 27.6908C270.809 27.6908 268.833 28.4042 267.402 29.831C265.988 31.2577 265.282 33.3186 265.282 36.0136C265.282 38.7263 265.997 40.84 267.428 42.3549C268.859 43.8521 270.827 44.6007 273.331 44.6007C275.817 44.6007 277.776 43.8433 279.207 42.3284C280.656 40.796 281.38 38.691 281.38 36.0136C281.38 33.3538 280.665 31.3018 279.234 29.8574C277.803 28.413 275.835 27.6908 273.331 27.6908ZM265.148 68.9088C263.091 70.3532 262.062 72.1147 262.062 74.1932C262.062 76.2893 262.724 77.6897 264.048 78.3943C265.371 79.1165 267.929 79.4776 271.721 79.4776C280.307 79.4776 284.6 77.3638 284.6 73.1363C284.6 72.0795 284.153 71.1106 283.258 70.2299C282.364 69.3492 281.38 68.9088 280.307 68.9088H265.148Z" fill="#6BBF59"/>
<path d="M301.235 20.2927H321.626V49.8851C321.626 52.6682 321.876 54.8347 322.377 56.3848C322.896 57.9349 323.629 59.0006 324.577 59.5818C325.543 60.1631 326.849 60.4538 328.495 60.4538C329.997 60.4538 331.535 59.8284 333.109 58.5778C334.701 57.3272 336.204 55.5834 337.617 53.3463L337.724 28.7477H332.358V20.2927H352.749V60.4538H358.115V68.9088H341.454L337.697 61.722C334.675 67.2177 329.675 69.9657 322.699 69.9657C320.195 69.9657 318.004 69.631 316.126 68.9617C314.248 68.2923 312.709 67.3764 311.511 66.2138C310.312 65.0336 309.338 63.5451 308.586 61.7484C307.853 59.9341 307.334 57.9966 307.03 55.9357C306.744 53.8571 306.601 51.488 306.601 48.8282V28.7477H301.235V20.2927Z" fill="#6BBF59"/>
<path d="M369.197 14.6649C367.533 13.0091 366.701 11.0099 366.701 8.66714C366.701 6.32441 367.533 4.33396 369.197 2.69581C370.086 1.81974 371.073 1.17544 372.158 0.762904C373.124 0.395745 374.167 0.212166 375.287 0.212166C377.666 0.212166 379.687 1.04005 381.351 2.69581C383.032 4.33396 383.873 6.32441 383.873 8.66714C383.873 11.0099 383.032 13.0091 381.351 14.6649C379.687 16.303 377.666 17.1221 375.287 17.1221C372.908 17.1221 370.878 16.303 369.197 14.6649ZM362.408 20.2927H382.8V60.4538H388.166V68.9088H362.408V60.4538H367.774V28.7477H362.408V20.2927Z" fill="#6BBF59"/>
<path d="M438.607 37.0705V60.4538H443.973V68.9088H427.258L424.87 63.413C423.045 65.9848 420.926 67.7463 418.511 68.6975C416.114 69.6487 412.76 70.1242 408.45 70.1242C406.214 70.1242 404.13 69.7367 402.198 68.9617C400.284 68.2043 398.647 67.165 397.288 65.8439C395.947 64.5228 394.891 62.9374 394.122 61.0879C393.371 59.2384 392.995 57.2567 392.995 55.143C392.995 51.4968 394.444 48.4759 397.342 46.0803C400.239 43.6671 403.942 42.4605 408.45 42.4605C412.081 42.4605 415.086 42.804 417.465 43.491C419.844 44.1604 421.883 45.2348 423.582 46.7145V35.5116C423.582 33.9263 423.358 32.6052 422.911 31.5483C422.482 30.4739 421.829 29.6548 420.953 29.0911C420.076 28.5099 419.092 28.1047 418.001 27.8758C416.91 27.6468 415.604 27.5323 414.084 27.5323C412.868 27.5323 411.768 27.7877 410.784 28.2985C411.338 29.4434 411.616 30.65 411.616 31.9183C411.616 34.261 410.775 36.2602 409.093 37.916C407.43 39.5542 405.409 40.3732 403.03 40.3732C400.651 40.3732 398.621 39.5542 396.939 37.916C395.276 36.2602 394.444 34.261 394.444 31.9183C394.444 30.7205 394.677 29.5932 395.142 28.5363C395.625 27.4794 396.286 26.5547 397.127 25.762C397.842 25.0222 398.585 24.3617 399.354 23.7804C400.123 23.1815 401.089 22.5914 402.252 22.0101C403.432 21.4112 404.711 20.918 406.088 20.5305C407.466 20.143 409.111 19.8347 411.025 19.6057C412.957 19.3591 415.068 19.2358 417.357 19.2358C420.326 19.2358 423.117 19.6674 425.728 20.5305C428.34 21.3936 430.594 22.5914 432.49 24.1239C434.386 25.6563 435.879 27.5411 436.97 29.7781C438.061 32.0152 438.607 34.4459 438.607 37.0705ZM423.582 57.1775V53.5313C422.473 52.492 421.221 51.6201 419.826 50.9155C418.448 50.1933 417.169 49.8322 415.989 49.8322C413.449 49.8322 411.66 50.255 410.623 51.1005C409.585 51.9284 408.45 53.2759 408.45 55.143C408.45 57.38 409.514 59.027 410.408 60.0839C411.303 61.1407 412.966 61.6692 415.399 61.6692C416.776 61.6692 418.207 61.2376 419.692 60.3745C421.194 59.4938 422.491 58.4281 423.582 57.1775Z" fill="#6BBF59"/>
<path d="M298.981 16.8843C301.727 9.33493 295.63 -1.50986 276.312 0.276597C278.825 5.31636 284.788 17.8217 298.981 16.8843Z" fill="#6BBF59"/>
<path d="M61.5565 64.9806C66.089 34.3054 52.2394 10.4751 21.2666 0.0810547C13.5553 22.2434 24.7919 69.0368 61.5565 64.9806Z" fill="#6BBF59"/>
<path d="M62.9396 66.7882C47.8223 38.5447 30.8163 47.3264 2.11526 47.3264C9.34395 70.4742 33.2905 78.9961 62.9396 66.7882Z" fill="#A6D89B"/>
</svg>
