<svg width="495" height="101" viewBox="0 0 495 101" fill="none" xmlns="http://www.w3.org/2000/svg">
<path d="M107.902 53.2136C108.082 55.4935 108.461 57.5277 109.04 59.3163C109.619 61.1049 110.317 62.5691 111.136 63.7091C111.974 64.8491 112.942 65.7925 114.04 66.5393C115.137 67.2665 116.265 67.7874 117.423 68.1019C118.58 68.3967 119.818 68.5441 121.135 68.5441C125.346 68.5441 128.629 67.7481 130.985 66.1561C133.36 64.5444 135.256 62.0679 136.673 58.7267L144.636 61.439C143.918 63.3455 143 65.1439 141.882 66.8342C140.784 68.5048 139.457 70.0478 137.9 71.4629C136.343 72.8781 134.607 74.0966 132.691 75.1187C130.795 76.1211 128.649 76.9072 126.254 77.4772C123.859 78.0472 121.335 78.3322 118.68 78.3322C114.748 78.3322 111.026 77.6541 107.513 76.298C104.02 74.9418 100.977 73.0549 98.3821 70.6374C95.8075 68.2002 93.7617 65.2029 92.2449 61.6454C90.748 58.0879 89.9995 54.2159 89.9995 50.0295C89.9995 45.8431 90.748 41.9515 92.2449 38.3547C93.7617 34.7579 95.8075 31.7312 98.3821 29.2743C100.977 26.7979 104.02 24.8619 107.513 23.4664C111.026 22.0709 114.748 21.3732 118.68 21.3732C122.612 21.3732 126.324 22.0709 129.817 23.4664C133.33 24.8619 136.373 26.7979 138.948 29.2743C141.543 31.7312 143.588 34.7579 145.085 38.3547C146.602 41.9515 147.361 45.8431 147.361 50.0295L146.612 53.2136H107.902ZM108.112 43.7794H129.248C128.729 39.2588 127.582 35.9667 125.805 33.903C124.029 31.8393 121.674 30.8074 118.74 30.8074C117.283 30.8074 115.976 31.0432 114.818 31.515C113.66 31.967 112.623 32.704 111.705 33.7261C110.786 34.7285 110.018 36.0748 109.399 37.7651C108.801 39.4357 108.371 41.4405 108.112 43.7794Z" fill="#265705"/>
<path d="M192.028 32.9006C189.753 31.5051 186.859 30.8074 183.346 30.8074C181.929 30.8074 180.612 31.0039 179.394 31.397C178.177 31.7705 177.009 32.4191 175.891 33.3428C174.794 34.2666 173.856 35.436 173.077 36.8511C172.299 38.2663 171.68 40.0647 171.221 42.2463C170.762 44.428 170.533 46.9045 170.533 49.6757C170.533 52.447 170.782 54.9137 171.281 57.0757C171.78 59.2377 172.439 61.0066 173.257 62.3824C174.095 63.7582 175.093 64.8884 176.251 65.7728C177.428 66.6573 178.636 67.2862 179.873 67.6596C181.111 68.0134 182.448 68.1903 183.885 68.1903C188.096 68.1903 191.379 67.3943 193.734 65.8023C196.109 64.1906 198.006 61.7142 199.423 58.3729L207.386 61.0852C206.668 62.9917 205.749 64.7901 204.632 66.4804C203.534 68.151 202.207 69.6939 200.65 71.1091C199.093 72.5242 197.357 73.7429 195.441 74.7649C193.545 75.7673 191.399 76.5535 189.004 77.1234C186.609 77.6934 184.084 77.9784 181.43 77.9784C177.498 77.9784 173.776 77.3003 170.263 75.9442C166.77 74.588 163.727 72.7011 161.132 70.2836C158.557 67.8464 156.512 64.8491 154.995 61.2916C153.498 57.7341 152.749 53.8622 152.749 49.6757C152.749 46.3148 153.228 43.1504 154.186 40.1826C155.144 37.2147 156.492 34.5909 158.228 32.311C159.984 30.031 162.04 28.0656 164.395 26.4146C166.75 24.7636 169.365 23.5155 172.239 22.6704C175.113 21.8056 178.127 21.3732 181.28 21.3732C183.775 21.3732 186.12 21.6091 188.316 22.0808C190.511 22.5328 192.467 23.1618 194.183 23.9676C195.92 24.7538 197.536 25.7365 199.033 26.9158C200.53 28.0951 201.838 29.353 202.955 30.6895C204.093 32.0063 205.151 33.4902 206.129 35.1412C207.147 36.6939 207.656 38.394 207.656 40.2416C207.656 42.8556 206.717 45.0864 204.841 46.9339C202.985 48.7618 200.73 49.6757 198.075 49.6757C195.421 49.6757 193.156 48.7618 191.279 46.9339C189.423 45.0864 188.495 42.8556 188.495 40.2416C188.495 38.7871 188.805 37.4211 189.423 36.1436C190.062 34.866 190.93 33.7851 192.028 32.9006Z" fill="#265705"/>
<path d="M231.217 23.5843C234.729 22.2282 238.452 21.5501 242.383 21.5501C246.315 21.5501 250.028 22.2282 253.52 23.5843C257.033 24.9405 260.087 26.8372 262.681 29.2743C265.276 31.6918 267.322 34.6793 268.819 38.2368C270.336 41.7943 271.094 45.6662 271.094 49.8526C271.094 54.0391 270.336 57.911 268.819 61.4685C267.322 65.026 265.276 68.0233 262.681 70.4604C260.087 72.878 257.033 74.7649 253.52 76.1211C250.028 77.4772 246.315 78.1553 242.383 78.1553C238.452 78.1553 234.729 77.4772 231.217 76.1211C227.724 74.7649 224.68 72.878 222.086 70.4604C219.511 68.0233 217.465 65.026 215.948 61.4685C214.451 57.911 213.703 54.0391 213.703 49.8526C213.703 45.6662 214.451 41.7943 215.948 38.2368C217.465 34.6793 219.511 31.6918 222.086 29.2743C224.68 26.8372 227.724 24.9405 231.217 23.5843ZM242.383 30.9843C240.986 30.9843 239.739 31.1808 238.641 31.5739C237.544 31.967 236.536 32.6156 235.618 33.5197C234.699 34.4238 233.941 35.5932 233.342 37.028C232.763 38.4628 232.304 40.2514 231.965 42.3937C231.646 44.5361 231.486 47.0224 231.486 49.8526C231.486 52.6829 231.646 55.1692 231.965 57.3116C232.304 59.4539 232.763 61.2424 233.342 62.6772C233.941 64.112 234.699 65.2814 235.618 66.1856C236.536 67.0897 237.544 67.7383 238.641 68.1314C239.739 68.5244 240.986 68.721 242.383 68.721C244.14 68.721 245.667 68.3967 246.964 67.7481C248.261 67.0798 249.389 66.0185 250.347 64.5641C251.325 63.1096 252.053 61.154 252.532 58.6972C253.031 56.2404 253.281 53.2922 253.281 49.8526C253.281 46.4131 253.031 43.4649 252.532 41.0081C252.053 38.5513 251.325 36.5956 250.347 35.1412C249.389 33.6867 248.261 32.6353 246.964 31.9867C245.667 31.3184 244.14 30.9843 242.383 30.9843Z" fill="#265705"/>
<path d="M324.61 14.1002C324.61 11.4861 325.398 14.5983 325.189 12.9608C326.189 11.9759 329.126 11.8215 325.189 12.9608C326.259 12.5581 324.851 15.8087 326.09 15.8087C327.088 15.8087 326.545 17.7921 327.503 18.0869C328.741 18.4603 327.288 14.3405 327.503 16.0933C322.933 27.4656 325.511 16.4617 326.09 17.189C326.669 17.9162 327.144 15.1302 327.503 16.0933C327.862 17.0367 329.239 15.8088 333.724 11.8211C333.864 12.7645 333.934 13.816 333.934 14.9757C333.934 16.1746 333.694 17.4325 333.215 18.7493C332.736 20.0662 332.097 21.3142 331.299 22.4935C330.521 23.6531 329.662 24.744 328.724 25.766C327.806 26.7684 326.858 27.6528 325.88 28.4194C328.854 31.3086 330.341 34.8562 330.341 39.0623C330.341 42.207 329.643 45.0078 328.245 47.4646C326.868 49.9018 324.962 51.8771 322.527 53.3905C320.092 54.8842 317.308 56.0144 314.175 56.7809C311.061 57.5474 307.668 57.9307 303.996 57.9307C300.962 57.9307 298.058 57.5965 295.284 56.9283C293.468 57.2035 292.07 57.685 291.092 58.3729C290.115 59.0608 289.626 59.6996 289.626 60.2892C289.626 60.8788 289.875 61.4193 290.374 61.9107C290.873 62.4021 291.422 62.6478 292.021 62.6478H308.786C317.228 62.6478 323.326 63.8368 327.078 66.215C330.85 68.5932 332.736 72.5145 332.736 77.9784C332.736 80.6121 332.407 83.0002 331.748 85.1425C331.09 87.3045 330.191 89.1422 329.054 90.6556C327.936 92.1887 326.549 93.535 324.892 94.6946C323.236 95.8739 321.499 96.8173 319.683 97.5249C317.867 98.2324 315.841 98.8025 313.606 99.2349C311.37 99.6673 309.205 99.9621 307.109 100.119C305.014 100.296 302.778 100.385 300.403 100.385C296.611 100.385 293.178 99.9719 290.105 99.1464C287.051 98.3406 284.536 97.2301 282.56 95.8149C280.604 94.3998 279.097 92.7685 278.04 90.9209C276.982 89.0931 276.453 87.1374 276.453 85.0541C276.453 80.789 278.938 77.4576 283.907 75.0597C281.971 74.0966 280.445 72.7797 279.327 71.1091C278.209 69.4188 277.65 67.3845 277.65 65.0063C277.65 62.3529 278.429 59.9453 279.986 57.7833C281.542 55.6213 283.638 54.0489 286.272 53.0662C283.937 51.4348 282.111 49.4497 280.794 47.1108C279.497 44.7719 278.848 42.0891 278.848 39.0623C278.848 36.5465 279.297 34.2862 280.195 32.2815C281.113 30.2767 282.341 28.6159 283.877 27.2991C285.434 25.9625 287.29 24.8619 289.446 23.9971C291.621 23.1126 293.907 22.4837 296.302 22.1102C298.697 21.7368 301.261 21.5501 303.996 21.5501C310.303 21.5501 315.681 22.5721 320.132 24.6162C321.15 23.4566 321.939 22.3658 322.497 21.3437C323.188 20.08 324.321 18.3714 323.028 17.1081C324.763 14.5455 324.61 16.5963 324.61 14.1002ZM304.594 30.8074C301.78 30.8074 299.575 31.6034 297.978 33.1954C296.401 34.7874 295.613 37.087 295.613 40.0941C295.613 43.1209 296.411 45.4795 298.008 47.1698C299.605 48.8404 301.8 49.6757 304.594 49.6757C307.369 49.6757 309.554 48.8306 311.151 47.1403C312.768 45.4304 313.576 43.0816 313.576 40.0941C313.576 37.1263 312.777 34.8366 311.181 33.2249C309.584 31.6132 307.389 30.8074 304.594 30.8074ZM295.463 76.7991C293.168 78.4108 292.021 80.3763 292.021 82.6955C292.021 85.0344 292.759 86.5969 294.236 87.3831C295.713 88.189 298.567 88.5919 302.798 88.5919C312.378 88.5919 317.168 86.2333 317.168 81.5162C317.168 80.337 316.669 79.256 315.671 78.2732C314.674 77.2905 313.576 76.7991 312.378 76.7991H295.463Z" fill="#265705"/>
<path d="M335.73 22.5525H358.483V55.5721C358.483 58.6775 358.762 61.095 359.321 62.8246C359.9 64.5542 360.718 65.7433 361.776 66.3919C362.854 67.0405 364.311 67.3648 366.147 67.3648C367.823 67.3648 369.54 66.6671 371.296 65.2716C373.072 63.8761 374.749 61.9304 376.326 59.4342L376.445 31.9867H370.458V22.5525H393.211V67.3648H399.198V76.7991H380.607L376.416 68.78C373.043 74.9122 367.464 77.9784 359.68 77.9784C356.886 77.9784 354.441 77.605 352.345 76.8581C350.25 76.1112 348.533 75.0892 347.196 73.792C345.859 72.4751 344.771 70.8142 343.933 68.8094C343.115 66.785 342.536 64.623 342.196 62.3235C341.877 60.0042 341.717 57.3607 341.717 54.3928V31.9867H335.73V22.5525Z" fill="#265705"/>
<path d="M411.563 16.2728C409.706 14.4253 408.778 12.1945 408.778 9.58049C408.778 6.96643 409.706 4.74546 411.563 2.91759C412.555 1.94006 413.657 1.22114 414.867 0.760818C415.945 0.351137 417.109 0.146296 418.359 0.146296C421.013 0.146296 423.268 1.07006 425.124 2.91759C427.001 4.74546 427.939 6.96643 427.939 9.58049C427.939 12.1945 427.001 14.4253 425.124 16.2728C423.268 18.1007 421.013 19.0146 418.359 19.0146C415.704 19.0146 413.439 18.1007 411.563 16.2728ZM403.988 22.5525H426.741V67.3648H432.729V76.7991H403.988V67.3648H409.976V31.9867H403.988V22.5525Z" fill="#265705"/>
<path d="M489.012 41.2734V67.3648H495V76.7991H476.348L473.684 70.6668C471.648 73.5364 469.283 75.5019 466.589 76.5633C463.914 77.6246 460.172 78.1553 455.362 78.1553C452.867 78.1553 450.542 77.7229 448.386 76.8581C446.251 76.013 444.424 74.8533 442.908 73.3792C441.411 71.9052 440.233 70.1361 439.375 68.0724C438.537 66.0087 438.118 63.7975 438.118 61.439C438.118 57.3705 439.734 53.9997 442.967 51.3267C446.201 48.6341 450.332 47.2877 455.362 47.2877C459.413 47.2877 462.766 47.671 465.421 48.4375C468.075 49.1844 470.351 50.3833 472.247 52.0343V39.534C472.247 37.7651 471.997 36.291 471.498 35.1117C471.019 33.9128 470.291 32.9989 469.313 32.3699C468.335 31.7213 467.237 31.2693 466.02 31.0138C464.802 30.7583 463.345 30.6305 461.649 30.6305C460.292 30.6305 459.064 30.9155 457.966 31.4855C458.585 32.763 458.894 34.1093 458.894 35.5245C458.894 38.1385 457.956 40.3693 456.08 42.2168C454.224 44.0447 451.969 44.9587 449.314 44.9587C446.66 44.9587 444.395 44.0447 442.518 42.2168C440.662 40.3693 439.734 38.1385 439.734 35.5245C439.734 34.1879 439.994 32.9301 440.513 31.7508C441.051 30.5715 441.79 29.5397 442.728 28.6552C443.526 27.8297 444.355 27.0927 445.213 26.4441C446.071 25.7758 447.149 25.1174 448.446 24.4688C449.763 23.8005 451.19 23.2502 452.727 22.8178C454.264 22.3854 456.1 22.0415 458.236 21.7859C460.391 21.5108 462.746 21.3732 465.301 21.3732C468.614 21.3732 471.728 21.8547 474.642 22.8178C477.556 23.7809 480.071 25.1174 482.186 26.8273C484.302 28.5373 485.968 30.6403 487.186 33.1365C488.403 35.6326 489.012 38.3449 489.012 41.2734ZM472.247 63.7091V59.6406C471.009 58.481 469.612 57.5081 468.055 56.7219C466.519 55.9161 465.092 55.5131 463.774 55.5131C460.94 55.5131 458.944 55.9849 457.787 56.9283C456.629 57.8521 455.362 59.3556 455.362 61.439C455.362 63.9351 456.549 65.7728 457.547 66.9521C458.545 68.1314 460.401 68.721 463.116 68.721C464.652 68.721 466.249 68.2395 467.906 67.2764C469.582 66.2937 471.029 65.1046 472.247 63.7091Z" fill="#265705"/>
<path d="M333.215 18.7493C336.279 10.3256 329.476 -1.77517 307.921 0.21819C310.725 5.84163 317.378 19.7952 333.215 18.7493Z" fill="#265705"/>
<path d="M68.2941 72.4159C73.3516 38.1881 57.8979 11.5979 23.3381 0C14.7336 24.7291 27.2716 76.9419 68.2941 72.4159Z" fill="#265705"/>
<path d="M69.837 74.4338C52.9689 42.9193 33.9933 52.7181 1.96824 52.7181C10.0341 78.5467 36.754 88.0556 69.837 74.4338Z" fill="#7FB972"/>
</svg>
