<svg width="180" height="41" viewBox="0 0 180 41" fill="none" xmlns="http://www.w3.org/2000/svg">
<path d="M39.2377 21.8678C39.303 22.7658 39.4409 23.567 39.6514 24.2715C39.8618 24.976 40.1159 25.5527 40.4134 26.0017C40.7182 26.4507 41.0702 26.8223 41.4694 27.1164C41.8686 27.4029 42.2786 27.608 42.6996 27.7319C43.1205 27.848 43.5705 27.906 44.0495 27.906C45.5809 27.906 46.7748 27.5925 47.6312 26.9655C48.4948 26.3307 49.1843 25.3553 49.6996 24.0393L52.5954 25.1076C52.3342 25.8585 52.0003 26.5668 51.5939 27.2325C51.1947 27.8906 50.7121 28.4983 50.146 29.0557C49.5799 29.6131 48.9484 30.093 48.2517 30.4956C47.5622 30.8904 46.782 31.2 45.9111 31.4245C45.0402 31.649 44.1221 31.7613 43.1568 31.7613C41.7271 31.7613 40.3735 31.4942 39.0961 30.96C37.8261 30.4259 36.7193 29.6827 35.7758 28.7305C34.8395 27.7706 34.0956 26.59 33.544 25.1889C32.9997 23.7877 32.7275 22.2626 32.7275 20.6137C32.7275 18.9648 32.9997 17.4321 33.544 16.0154C34.0956 14.5987 34.8395 13.4066 35.7758 12.4389C36.7193 11.4635 37.8261 10.701 39.0961 10.1514C40.3735 9.60174 41.7271 9.32692 43.1568 9.32692C44.5866 9.32692 45.9365 9.60174 47.2066 10.1514C48.484 10.701 49.5907 11.4635 50.527 12.4389C51.4705 13.4066 52.2144 14.5987 52.7587 16.0154C53.3103 17.4321 53.5861 18.9648 53.5861 20.6137L53.3139 21.8678H39.2377ZM39.3139 18.152H46.9998C46.8111 16.3715 46.3937 15.0748 45.7478 14.262C45.1019 13.4492 44.2455 13.0427 43.1786 13.0427C42.6488 13.0427 42.1734 13.1356 41.7525 13.3214C41.3315 13.4995 40.9541 13.7898 40.6203 14.1923C40.2864 14.5871 40.007 15.1174 39.782 15.7832C39.5643 16.4412 39.4082 17.2308 39.3139 18.152Z" fill="white"/>
<path d="M69.8288 13.8672C69.0014 13.3176 67.949 13.0427 66.6717 13.0427C66.1564 13.0427 65.6774 13.1202 65.2347 13.275C64.7919 13.4221 64.3674 13.6775 63.9609 14.0414C63.5618 14.4052 63.2207 14.8658 62.9376 15.4232C62.6546 15.9806 62.4296 16.6889 62.2627 17.5482C62.0957 18.4075 62.0123 19.3829 62.0123 20.4744C62.0123 21.5659 62.103 22.5375 62.2844 23.389C62.4659 24.2405 62.7054 24.9373 63.0029 25.4792C63.3078 26.021 63.6706 26.4662 64.0916 26.8145C64.5198 27.1629 64.9589 27.4106 65.4089 27.5577C65.8588 27.697 66.3451 27.7667 66.8676 27.7667C68.399 27.7667 69.5929 27.4532 70.4493 26.8261C71.313 26.1913 72.0024 25.2159 72.5177 23.8999L75.4136 24.9682C75.1523 25.7191 74.8184 26.4275 74.412 27.0932C74.0128 27.7512 73.5302 28.3589 72.9641 28.9163C72.398 29.4737 71.7666 29.9537 71.0698 30.3562C70.3804 30.751 69.6002 31.0607 68.7292 31.2852C67.8583 31.5097 66.9402 31.6219 65.9749 31.6219C64.5452 31.6219 63.1916 31.3548 61.9143 30.8207C60.6442 30.2865 59.5374 29.5433 58.5939 28.5912C57.6577 27.6312 56.9137 26.4507 56.3622 25.0495C55.8178 23.6483 55.5457 22.1233 55.5457 20.4744C55.5457 19.1506 55.7199 17.9043 56.0682 16.7353C56.4166 15.5664 56.9065 14.5329 57.5379 13.635C58.1766 12.737 58.9241 11.9628 59.7805 11.3126C60.6369 10.6623 61.5877 10.1707 62.6328 9.83784C63.6779 9.49723 64.7738 9.32692 65.9205 9.32692C66.8277 9.32692 67.6805 9.41981 68.4788 9.60561C69.2772 9.78366 69.9884 10.0314 70.6126 10.3488C71.244 10.6584 71.8319 11.0455 72.3762 11.51C72.9205 11.9744 73.3959 12.4699 73.8023 12.9963C74.216 13.515 74.6007 14.0994 74.9563 14.7497C75.3265 15.3613 75.5115 16.0309 75.5115 16.7586C75.5115 17.7882 75.1704 18.6668 74.4882 19.3945C73.8132 20.1144 72.9931 20.4744 72.0278 20.4744C71.0626 20.4744 70.2388 20.1144 69.5566 19.3945C68.8816 18.6668 68.5442 17.7882 68.5442 16.7586C68.5442 16.1857 68.6567 15.6477 68.8816 15.1445C69.1139 14.6413 69.4296 14.2156 69.8288 13.8672Z" fill="white"/>
<path d="M84.0792 10.1978C85.3566 9.66366 86.7101 9.39659 88.1399 9.39659C89.5696 9.39659 90.9196 9.66366 92.1897 10.1978C93.467 10.732 94.5774 11.479 95.5209 12.4389C96.4644 13.3911 97.2084 14.5678 97.7527 15.969C98.3043 17.3701 98.5801 18.8952 98.5801 20.5441C98.5801 22.193 98.3043 23.718 97.7527 25.1192C97.2084 26.5204 96.4644 27.7009 95.5209 28.6608C94.5774 29.613 93.467 30.3562 92.1897 30.8904C90.9196 31.4245 89.5696 31.6916 88.1399 31.6916C86.7101 31.6916 85.3566 31.4245 84.0792 30.8904C82.8091 30.3562 81.7023 29.613 80.7588 28.6608C79.8226 27.7009 79.0787 26.5204 78.5271 25.1192C77.9828 23.718 77.7106 22.193 77.7106 20.5441C77.7106 18.8952 77.9828 17.3701 78.5271 15.969C79.0787 14.5678 79.8226 13.3911 80.7588 12.4389C81.7023 11.479 82.8091 10.732 84.0792 10.1978ZM88.1399 13.1124C87.6318 13.1124 87.1782 13.1898 86.7791 13.3447C86.3799 13.4995 86.0134 13.7549 85.6795 14.111C85.3457 14.4671 85.0699 14.9277 84.8522 15.4929C84.6417 16.058 84.4748 16.7624 84.3514 17.6062C84.2353 18.45 84.1772 19.4293 84.1772 20.5441C84.1772 21.6588 84.2353 22.6381 84.3514 23.4819C84.4748 24.3257 84.6417 25.0302 84.8522 25.5953C85.0699 26.1604 85.3457 26.621 85.6795 26.9771C86.0134 27.3332 86.3799 27.5886 86.7791 27.7435C87.1782 27.8983 87.6318 27.9757 88.1399 27.9757C88.7786 27.9757 89.3338 27.848 89.8055 27.5925C90.2773 27.3293 90.6873 26.9113 91.0357 26.3384C91.3913 25.7656 91.6562 24.9953 91.8304 24.0277C92.0119 23.06 92.1026 21.8988 92.1026 20.5441C92.1026 19.1893 92.0119 18.0281 91.8304 17.0605C91.6562 16.0928 91.3913 15.3225 91.0357 14.7497C90.6873 14.1768 90.2773 13.7627 89.8055 13.5072C89.3338 13.244 88.7786 13.1124 88.1399 13.1124Z" fill="white"/>
<path d="M118.041 6.4623C118.041 5.4327 118.327 6.65852 118.251 6.01355C118.615 5.62562 119.683 5.56481 118.251 6.01355C118.64 5.85493 118.128 7.13525 118.579 7.13525C118.941 7.13525 118.744 7.91642 119.092 8.03254C119.542 8.17963 119.014 6.55695 119.092 7.24732C117.43 11.7265 118.368 7.39245 118.579 7.67888C118.789 7.96531 118.962 6.86799 119.092 7.24732C119.223 7.6189 119.724 7.13526 121.355 5.56465C121.405 5.93623 121.431 6.35039 121.431 6.80713C121.431 7.27935 121.344 7.77478 121.17 8.29345C120.995 8.81212 120.763 9.30369 120.473 9.76817C120.19 10.2249 119.878 10.6546 119.537 11.0571C119.203 11.4519 118.858 11.8003 118.502 12.1022C119.584 13.2402 120.124 14.6374 120.124 16.2941C120.124 17.5327 119.87 18.6358 119.362 19.6035C118.862 20.5634 118.169 21.3414 117.283 21.9375C116.398 22.5258 115.385 22.971 114.246 23.2729C113.114 23.5748 111.88 23.7257 110.544 23.7257C109.441 23.7257 108.385 23.5941 107.376 23.3309C106.716 23.4393 106.208 23.629 105.852 23.8999C105.497 24.1709 105.319 24.4225 105.319 24.6547C105.319 24.8869 105.41 25.0998 105.591 25.2934C105.772 25.4869 105.972 25.5837 106.19 25.5837H112.286C115.356 25.5837 117.573 26.052 118.938 26.9887C120.31 27.9254 120.995 29.4698 120.995 31.6219C120.995 32.6593 120.876 33.5998 120.636 34.4436C120.397 35.2952 120.07 36.019 119.656 36.6151C119.25 37.2189 118.745 37.7492 118.143 38.2059C117.541 38.6704 116.909 39.042 116.249 39.3207C115.588 39.5993 114.852 39.8238 114.039 39.9942C113.226 40.1645 112.439 40.2806 111.677 40.3425C110.914 40.4122 110.102 40.447 109.238 40.447C107.859 40.447 106.611 40.2845 105.493 39.9593C104.383 39.6419 103.468 39.2045 102.75 38.6472C102.038 38.0898 101.49 37.4473 101.106 36.7196C100.721 35.9996 100.529 35.2294 100.529 34.4088C100.529 32.7289 101.432 31.4168 103.239 30.4723C102.535 30.093 101.98 29.5743 101.574 28.9163C101.167 28.2505 100.964 27.4493 100.964 26.5126C100.964 25.4675 101.247 24.5192 101.813 23.6677C102.379 22.8161 103.141 22.1968 104.1 21.8098C103.25 21.1672 102.586 20.3854 102.107 19.4642C101.636 18.5429 101.4 17.4862 101.4 16.2941C101.4 15.3032 101.563 14.413 101.89 13.6233C102.223 12.8337 102.67 12.1796 103.229 11.6609C103.795 11.1345 104.47 10.701 105.253 10.3604C106.045 10.012 106.876 9.7643 107.746 9.61722C108.617 9.47013 109.55 9.39659 110.544 9.39659C112.838 9.39659 114.794 9.79914 116.412 10.6042C116.782 10.1475 117.069 9.71785 117.272 9.31531C117.523 8.81758 117.935 8.14461 117.465 7.64705C118.096 6.63769 118.041 7.44544 118.041 6.4623ZM110.762 13.0427C109.739 13.0427 108.937 13.3563 108.356 13.9833C107.783 14.6104 107.496 15.5161 107.496 16.7005C107.496 17.8927 107.786 18.8216 108.367 19.4874C108.948 20.1454 109.746 20.4744 110.762 20.4744C111.771 20.4744 112.566 20.1415 113.146 19.4758C113.734 18.8023 114.028 17.8772 114.028 16.7005C114.028 15.5316 113.738 14.6297 113.157 13.9949C112.576 13.3601 111.778 13.0427 110.762 13.0427ZM107.442 31.1574C106.607 31.7922 106.19 32.5664 106.19 33.4798C106.19 34.4011 106.458 35.0165 106.995 35.3261C107.532 35.6435 108.57 35.8022 110.109 35.8022C113.593 35.8022 115.334 34.8733 115.334 33.0154C115.334 32.5509 115.153 32.1251 114.79 31.738C114.427 31.351 114.028 31.1574 113.593 31.1574H107.442Z" fill="white"/>
<path d="M122.084 9.7914H130.358V22.7968C130.358 24.0199 130.459 24.9721 130.663 25.6533C130.873 26.3346 131.171 26.8029 131.555 27.0584C131.947 27.3138 132.477 27.4416 133.145 27.4416C133.754 27.4416 134.379 27.1667 135.017 26.6171C135.663 26.0675 136.273 25.3011 136.846 24.3179L136.89 13.5072H134.712V9.7914H142.986V27.4416H145.163V31.1574H138.403L136.879 27.9989C135.652 30.4142 133.624 31.6219 130.793 31.6219C129.777 31.6219 128.888 31.4748 128.126 31.1807C127.364 30.8865 126.74 30.4839 126.254 29.973C125.767 29.4544 125.372 28.8002 125.067 28.0106C124.769 27.2132 124.559 26.3617 124.436 25.4559C124.319 24.5425 124.261 23.5012 124.261 22.3323V13.5072H122.084V9.7914Z" fill="white"/>
<path d="M149.66 7.31805C148.985 6.59036 148.647 5.71174 148.647 4.68214C148.647 3.65255 148.985 2.77778 149.66 2.05784C150.021 1.67282 150.421 1.38966 150.861 1.20835C151.253 1.04699 151.676 0.966313 152.131 0.966313C153.096 0.966313 153.916 1.33015 154.591 2.05784C155.273 2.77778 155.614 3.65255 155.614 4.68214C155.614 5.71174 155.273 6.59036 154.591 7.31805C153.916 8.03799 153.096 8.39796 152.131 8.39796C151.166 8.39796 150.342 8.03799 149.66 7.31805ZM146.905 9.7914H155.179V27.4416H157.356V31.1574H146.905V27.4416H149.083V13.5072H146.905V9.7914Z" fill="white"/>
<path d="M177.823 17.165V27.4416H180V31.1574H173.218L172.249 28.7421C171.509 29.8724 170.649 30.6465 169.669 31.0645C168.696 31.4826 167.336 31.6916 165.587 31.6916C164.679 31.6916 163.834 31.5213 163.05 31.1807C162.273 30.8478 161.609 30.3911 161.058 29.8105C160.513 29.2299 160.085 28.5331 159.773 27.7203C159.468 26.9074 159.316 26.0365 159.316 25.1076C159.316 23.5051 159.904 22.1775 161.08 21.1247C162.255 20.0641 163.758 19.5338 165.587 19.5338C167.06 19.5338 168.279 19.6848 169.244 19.9867C170.21 20.2809 171.037 20.7531 171.727 21.4034V16.4799C171.727 15.7832 171.636 15.2026 171.454 14.7381C171.28 14.2659 171.015 13.9059 170.66 13.6582C170.304 13.4027 169.905 13.2247 169.462 13.124C169.019 13.0234 168.49 12.9731 167.873 12.9731C167.379 12.9731 166.933 13.0853 166.534 13.3098C166.759 13.813 166.871 14.3433 166.871 14.9006C166.871 15.9302 166.53 16.8089 165.848 17.5366C165.173 18.2565 164.353 18.6165 163.387 18.6165C162.422 18.6165 161.598 18.2565 160.916 17.5366C160.241 16.8089 159.904 15.9302 159.904 14.9006C159.904 14.3742 159.998 13.8788 160.187 13.4143C160.383 12.9499 160.651 12.5434 160.992 12.1951C161.283 11.8699 161.584 11.5796 161.896 11.3242C162.208 11.061 162.6 10.8016 163.072 10.5462C163.551 10.283 164.07 10.0662 164.629 9.8959C165.187 9.7256 165.855 9.59012 166.632 9.48949C167.415 9.38111 168.272 9.32692 169.201 9.32692C170.406 9.32692 171.538 9.51658 172.597 9.8959C173.657 10.2752 174.572 10.8016 175.341 11.4751C176.11 12.1486 176.716 12.9769 177.159 13.9601C177.602 14.9432 177.823 16.0115 177.823 17.165ZM171.727 26.0017V24.3992C171.277 23.9425 170.769 23.5593 170.202 23.2497C169.644 22.9323 169.125 22.7736 168.646 22.7736C167.615 22.7736 166.889 22.9594 166.468 23.3309C166.047 23.6948 165.587 24.287 165.587 25.1076C165.587 26.0907 166.018 26.8145 166.381 27.279C166.744 27.7435 167.419 27.9757 168.406 27.9757C168.965 27.9757 169.546 27.7861 170.148 27.4067C170.758 27.0197 171.284 26.5513 171.727 26.0017Z" fill="white"/>
<path d="M121.17 8.29345C122.284 4.97563 119.81 0.209508 111.972 0.994629C112.991 3.20953 115.411 8.70541 121.17 8.29345Z" fill="white"/>
<path d="M24.8341 29.431C26.6731 15.9498 21.0536 5.47672 8.48639 0.908691C5.35749 10.6487 9.91678 31.2137 24.8341 29.431Z" fill="#E2F2DF"/>
<path d="M25.3953 30.2263C19.2614 17.8137 12.3612 21.6732 0.715723 21.6732C3.64877 31.8463 13.3651 35.5915 25.3953 30.2263Z" fill="#6BBF59"/>
</svg>
