<svg width="183" height="38" viewBox="0 0 183 38" fill="none" xmlns="http://www.w3.org/2000/svg">
<path d="M40.1736 19.8139C40.2397 20.6622 40.3791 21.4191 40.5919 22.0846C40.8047 22.7501 41.0616 23.2949 41.3625 23.719C41.6707 24.1432 42.0266 24.4942 42.4302 24.7721C42.8338 25.0427 43.2484 25.2365 43.674 25.3535C44.0996 25.4632 44.5546 25.518 45.0389 25.518C46.5873 25.518 47.7945 25.2218 48.6604 24.6295C49.5337 24.0298 50.2308 23.1084 50.7518 21.8652L53.6798 22.8744C53.4156 23.5838 53.0781 24.2529 52.6671 24.8818C52.2635 25.5034 51.7755 26.0775 51.2031 26.604C50.6307 27.1306 49.9923 27.584 49.2878 27.9642C48.5907 28.3372 47.8018 28.6297 46.9212 28.8418C46.0406 29.0539 45.1123 29.1599 44.1363 29.1599C42.6907 29.1599 41.3221 28.9076 40.0305 28.403C38.7463 27.8984 37.6273 27.1963 36.6733 26.2969C35.7266 25.3901 34.9745 24.2748 34.4167 22.9512C33.8664 21.6276 33.5912 20.1869 33.5912 18.6293C33.5912 17.0716 33.8664 15.6236 34.4167 14.2854C34.9745 12.9471 35.7266 11.8209 36.6733 10.9068C37.6273 9.98539 38.7463 9.26507 40.0305 8.74585C41.3221 8.22663 42.6907 7.96703 44.1363 7.96703C45.582 7.96703 46.9469 8.22663 48.2311 8.74585C49.5226 9.26507 50.6417 9.98539 51.5884 10.9068C52.5424 11.8209 53.2945 12.9471 53.8449 14.2854C54.4026 15.6236 54.6815 17.0716 54.6815 18.6293L54.4063 19.8139H40.1736ZM40.2507 16.3037H48.022C47.8312 14.6218 47.4092 13.3969 46.7561 12.629C46.103 11.8612 45.2371 11.4772 44.1583 11.4772C43.6227 11.4772 43.142 11.565 42.7164 11.7405C42.2907 11.9087 41.9092 12.1829 41.5716 12.5632C41.234 12.9362 40.9515 13.4371 40.724 14.066C40.5039 14.6876 40.3461 15.4335 40.2507 16.3037Z" fill="#6BBF59"/>
<path d="M71.1046 12.2561C70.268 11.7368 69.204 11.4772 67.9124 11.4772C67.3914 11.4772 66.9071 11.5504 66.4594 11.6966C66.0118 11.8356 65.5825 12.0769 65.1716 12.4206C64.768 12.7643 64.4231 13.1994 64.1369 13.7259C63.8507 14.2525 63.6232 14.9216 63.4544 15.7333C63.2856 16.5451 63.2013 17.4665 63.2013 18.4976C63.2013 19.5287 63.293 20.4465 63.4764 21.2509C63.6599 22.0554 63.9021 22.7135 64.2029 23.2254C64.5111 23.7373 64.878 24.1578 65.3037 24.4869C65.7366 24.816 66.1806 25.05 66.6356 25.1889C67.0905 25.3206 67.5822 25.3864 68.1106 25.3864C69.659 25.3864 70.8661 25.0902 71.732 24.4979C72.6053 23.8982 73.3024 22.9768 73.8234 21.7336L76.7514 22.7428C76.4872 23.4521 76.1497 24.1212 75.7387 24.7502C75.3351 25.3718 74.8471 25.9458 74.2747 26.4724C73.7024 26.9989 73.0639 27.4523 72.3595 27.8326C71.6623 28.2056 70.8734 28.4981 69.9928 28.7102C69.1122 28.9222 68.1839 29.0283 67.208 29.0283C65.7623 29.0283 64.3937 28.776 63.1022 28.2714C61.818 27.7668 60.6989 27.0647 59.7449 26.1652C58.7983 25.2584 58.0461 24.1432 57.4884 22.8196C56.938 21.4959 56.6628 20.0553 56.6628 18.4976C56.6628 17.2471 56.8389 16.0697 57.1912 14.9655C57.5434 13.8612 58.0387 12.885 58.6772 12.0367C59.323 11.1884 60.0788 10.4571 60.9447 9.84279C61.8106 9.22851 62.772 8.76413 63.8287 8.44968C64.8854 8.12791 65.9935 7.96703 67.1529 7.96703C68.0702 7.96703 68.9325 8.05478 69.7397 8.23029C70.5469 8.39849 71.266 8.6325 71.8971 8.93233C72.5356 9.22485 73.13 9.5905 73.6803 10.0293C74.2307 10.468 74.7114 10.9361 75.1223 11.4334C75.5406 11.9233 75.9295 12.4754 76.2891 13.0897C76.6634 13.6674 76.8505 14.3 76.8505 14.9874C76.8505 15.96 76.5056 16.7901 75.8158 17.4775C75.1333 18.1576 74.3041 18.4976 73.3281 18.4976C72.3521 18.4976 71.5192 18.1576 70.8294 17.4775C70.1469 16.7901 69.8057 15.96 69.8057 14.9874C69.8057 14.4463 69.9195 13.938 70.1469 13.4627C70.3818 12.9873 70.701 12.5851 71.1046 12.2561Z" fill="#6BBF59"/>
<path d="M85.5134 8.78973C86.8049 8.28514 88.1735 8.03284 89.6191 8.03284C91.0648 8.03284 92.4297 8.28514 93.7139 8.78973C95.0055 9.29432 96.1282 10 97.0822 10.9068C98.0362 11.8063 98.7884 12.9179 99.3387 14.2415C99.8964 15.5651 100.175 17.0058 100.175 18.5634C100.175 20.1211 99.8964 21.5617 99.3387 22.8854C98.7884 24.209 98.0362 25.3242 97.0822 26.231C96.1282 27.1305 95.0055 27.8326 93.7139 28.3372C92.4297 28.8418 91.0648 29.0941 89.6191 29.0941C88.1735 29.0941 86.8049 28.8418 85.5134 28.3372C84.2292 27.8326 83.1101 27.1305 82.1561 26.231C81.2094 25.3242 80.4573 24.209 79.8996 22.8854C79.3492 21.5617 79.074 20.1211 79.074 18.5634C79.074 17.0058 79.3492 15.5651 79.8996 14.2415C80.4573 12.9179 81.2094 11.8063 82.1561 10.9068C83.1101 10 84.2292 9.29432 85.5134 8.78973ZM89.6191 11.543C89.1055 11.543 88.6468 11.6162 88.2432 11.7624C87.8396 11.9087 87.469 12.15 87.1315 12.4864C86.7939 12.8228 86.515 13.2579 86.2949 13.7918C86.0821 14.3256 85.9133 14.9911 85.7885 15.7882C85.6711 16.5853 85.6124 17.5104 85.6124 18.5634C85.6124 19.6165 85.6711 20.5416 85.7885 21.3387C85.9133 22.1358 86.0821 22.8013 86.2949 23.3351C86.515 23.869 86.7939 24.3041 87.1315 24.6405C87.469 24.9769 87.8396 25.2182 88.2432 25.3644C88.6468 25.5107 89.1055 25.5838 89.6191 25.5838C90.2649 25.5838 90.8263 25.4632 91.3033 25.2218C91.7803 24.9732 92.1949 24.5783 92.5471 24.0372C92.9067 23.496 93.1746 22.7684 93.3507 21.8542C93.5341 20.9401 93.6259 19.8432 93.6259 18.5634C93.6259 17.2837 93.5341 16.1867 93.3507 15.2726C93.1746 14.3585 92.9067 13.6309 92.5471 13.0897C92.1949 12.5486 91.7803 12.1573 91.3033 11.916C90.8263 11.6674 90.2649 11.543 89.6191 11.543Z" fill="#6BBF59"/>
<path d="M119.852 5.26093C119.852 4.28831 120.142 5.44629 120.065 4.83702C120.432 4.47055 121.512 4.41311 120.065 4.83702C120.458 4.68717 119.94 5.89664 120.396 5.89664C120.763 5.89664 120.563 6.63458 120.916 6.74428C121.371 6.88322 120.837 5.35034 120.916 6.00251C119.235 10.2338 120.183 6.13961 120.396 6.41019C120.609 6.68076 120.784 5.64418 120.916 6.00251C121.048 6.35353 121.554 5.89665 123.203 4.41295C123.254 4.76397 123.28 5.15522 123.28 5.58668C123.28 6.03277 123.192 6.50078 123.016 6.99075C122.84 7.48072 122.605 7.94509 122.311 8.38386C122.025 8.81532 121.71 9.22119 121.365 9.60146C121.027 9.97442 120.679 10.3035 120.319 10.5887C121.412 11.6637 121.959 12.9837 121.959 14.5486C121.959 15.7187 121.702 16.7608 121.189 17.6749C120.682 18.5817 119.981 19.3167 119.086 19.8798C118.191 20.4355 117.167 20.856 116.015 21.1412C114.87 21.4265 113.623 21.5691 112.272 21.5691C111.157 21.5691 110.089 21.4447 109.069 21.1961C108.402 21.2985 107.888 21.4776 107.528 21.7336C107.169 21.9895 106.989 22.2272 106.989 22.4466C106.989 22.666 107.081 22.8671 107.264 23.0499C107.448 23.2327 107.649 23.3241 107.87 23.3241H114.034C117.138 23.3241 119.38 23.7666 120.759 24.6514C122.146 25.5363 122.84 26.9953 122.84 29.0283C122.84 30.0082 122.719 30.8967 122.476 31.6938C122.234 32.4982 121.904 33.182 121.486 33.7451C121.075 34.3155 120.565 34.8164 119.956 35.2479C119.347 35.6867 118.708 36.0377 118.04 36.301C117.373 36.5642 116.628 36.7763 115.806 36.9372C114.984 37.0981 114.188 37.2078 113.417 37.2663C112.647 37.3321 111.825 37.365 110.952 37.365C109.557 37.365 108.295 37.2114 107.165 36.9043C106.042 36.6045 105.118 36.1913 104.391 35.6647C103.672 35.1382 103.118 34.5312 102.729 33.8438C102.34 33.1637 102.146 32.4361 102.146 31.6609C102.146 30.074 103.059 28.8345 104.886 27.9423C104.175 27.584 103.613 27.094 103.202 26.4724C102.791 25.8435 102.586 25.0866 102.586 24.2017C102.586 23.2144 102.872 22.3186 103.445 21.5142C104.017 20.7098 104.787 20.1247 105.756 19.7591C104.897 19.1521 104.226 18.4135 103.742 17.5433C103.265 16.673 103.026 15.6748 103.026 14.5486C103.026 13.6126 103.191 12.7716 103.522 12.0257C103.859 11.2798 104.31 10.6618 104.875 10.1719C105.448 9.67459 106.13 9.26507 106.923 8.9433C107.723 8.61422 108.563 8.38021 109.444 8.24126C110.324 8.10231 111.267 8.03284 112.272 8.03284C114.591 8.03284 116.569 8.41311 118.206 9.17366C118.58 8.7422 118.87 8.33633 119.075 7.95606C119.329 7.48587 119.746 6.85014 119.27 6.38012C119.908 5.42662 119.852 6.18967 119.852 5.26093ZM112.493 11.4772C111.458 11.4772 110.647 11.7734 110.06 12.3657C109.48 12.9581 109.19 13.8137 109.19 14.9326C109.19 16.0588 109.484 16.9363 110.071 17.5652C110.658 18.1868 111.465 18.4976 112.493 18.4976C113.513 18.4976 114.316 18.1832 114.903 17.5543C115.498 16.918 115.795 16.0441 115.795 14.9326C115.795 13.8283 115.501 12.9764 114.914 12.3767C114.327 11.7771 113.52 11.4772 112.493 11.4772ZM109.135 28.5895C108.291 29.1891 107.87 29.9204 107.87 30.7834C107.87 31.6536 108.141 32.235 108.684 32.5275C109.227 32.8273 110.276 32.9772 111.832 32.9772C115.355 32.9772 117.116 32.0997 117.116 30.3446C117.116 29.9058 116.932 29.5036 116.565 29.138C116.198 28.7723 115.795 28.5895 115.355 28.5895H109.135Z" fill="#6BBF59"/>
<path d="M123.94 8.4058H132.306V20.6915C132.306 21.8469 132.409 22.7464 132.614 23.39C132.827 24.0335 133.128 24.4759 133.517 24.7173C133.913 24.9586 134.449 25.0792 135.124 25.0792C135.74 25.0792 136.371 24.8196 137.017 24.3004C137.67 23.7812 138.287 23.0572 138.866 22.1285L138.911 11.916H136.709V8.4058H145.075V25.0792H147.276V28.5895H140.441L138.9 25.6058C137.659 27.8874 135.608 29.0283 132.746 29.0283C131.719 29.0283 130.82 28.8893 130.05 28.6114C129.279 28.3335 128.648 27.9533 128.156 27.4706C127.665 26.9806 127.265 26.3627 126.956 25.6167C126.656 24.8635 126.443 24.0591 126.318 23.2035C126.201 22.3406 126.142 21.357 126.142 20.2527V11.916H123.94V8.4058Z" fill="#6BBF59"/>
<path d="M151.822 6.06932C151.14 5.38191 150.799 4.5519 150.799 3.57928C150.799 2.60667 151.14 1.7803 151.822 1.1002C152.187 0.73649 152.592 0.468999 153.037 0.297728C153.434 0.145297 153.861 0.0690812 154.321 0.0690812C155.297 0.0690812 156.126 0.412788 156.809 1.1002C157.498 1.7803 157.843 2.60667 157.843 3.57928C157.843 4.5519 157.498 5.38191 156.809 6.06932C156.126 6.74942 155.297 7.08947 154.321 7.08947C153.345 7.08947 152.512 6.74942 151.822 6.06932ZM149.037 8.4058H157.403V25.0792H159.605V28.5895H149.037V25.0792H151.239V11.916H149.037V8.4058Z" fill="#6BBF59"/>
<path d="M180.299 15.3713V25.0792H182.5V28.5895H175.642L174.663 26.3078C173.914 27.3755 173.045 28.1068 172.054 28.5017C171.071 28.8966 169.695 29.0941 167.926 29.0941C167.009 29.0941 166.154 28.9332 165.361 28.6114C164.576 28.297 163.905 27.8655 163.347 27.317C162.797 26.7686 162.364 26.1104 162.048 25.3425C161.74 24.5746 161.586 23.752 161.586 22.8744C161.586 21.3606 162.18 20.1065 163.369 19.1119C164.558 18.11 166.077 17.6091 167.926 17.6091C169.416 17.6091 170.649 17.7517 171.625 18.0369C172.601 18.3148 173.437 18.7609 174.134 19.3752V14.7242C174.134 14.066 174.043 13.5175 173.859 13.0787C173.683 12.6327 173.415 12.2926 173.056 12.0586C172.696 11.8173 172.292 11.6491 171.845 11.554C171.397 11.4589 170.862 11.4114 170.238 11.4114C169.739 11.4114 169.287 11.5174 168.884 11.7295C169.111 12.2049 169.225 12.7058 169.225 13.2323C169.225 14.2049 168.88 15.035 168.19 15.7224C167.508 16.4025 166.679 16.7425 165.703 16.7425C164.727 16.7425 163.894 16.4025 163.204 15.7224C162.522 15.035 162.18 14.2049 162.18 13.2323C162.18 12.735 162.276 12.267 162.466 11.8282C162.665 11.3895 162.936 11.0055 163.281 10.6765C163.575 10.3693 163.879 10.0951 164.195 9.85376C164.51 9.60512 164.906 9.36014 165.383 9.11881C165.868 8.87017 166.392 8.66541 166.958 8.50453C167.523 8.34364 168.198 8.21566 168.983 8.1206C169.775 8.01822 170.641 7.96703 171.581 7.96703C172.799 7.96703 173.944 8.14619 175.015 8.50453C176.086 8.86286 177.011 9.36014 177.789 9.99636C178.567 10.6326 179.179 11.4151 179.627 12.3438C180.075 13.2725 180.299 14.2817 180.299 15.3713ZM174.134 23.719V22.2053C173.679 21.7738 173.166 21.4118 172.593 21.1193C172.028 20.8195 171.504 20.6696 171.019 20.6696C169.977 20.6696 169.243 20.8451 168.818 21.1961C168.392 21.5398 167.926 22.0992 167.926 22.8744C167.926 23.8031 168.363 24.4869 168.73 24.9257C169.097 25.3644 169.779 25.5838 170.777 25.5838C171.342 25.5838 171.929 25.4047 172.538 25.0463C173.155 24.6807 173.687 24.2383 174.134 23.719Z" fill="#6BBF59"/>
<path d="M123.016 6.99075C124.142 3.85653 121.641 -0.645843 113.716 0.0958308C114.747 2.18816 117.193 7.37991 123.016 6.99075Z" fill="#6BBF59"/>
<path d="M25.61 26.9586C27.4695 14.2234 21.7876 4.32989 9.08075 0.0146484C5.91709 9.21567 10.527 28.6426 25.61 26.9586Z" fill="#6BBF59"/>
<path d="M26.1774 27.7093C19.9754 15.9836 12.9985 19.6295 1.22367 19.6295C4.18931 29.2396 14.0136 32.7776 26.1774 27.7093Z" fill="#A6D89B"/>
</svg>
