<svg width="82" height="82" viewBox="0 0 82 82" fill="none" xmlns="http://www.w3.org/2000/svg">
<circle cx="41" cy="41" r="41" fill="#6BBF59"/>
<path d="M41.9964 39.7489H57.7464V57.7489H41.9964V39.7489Z" fill="white"/>
<path d="M49.8714 44.2489H53.2464H49.8714Z" fill="white"/>
<path d="M46.4964 48.7489H53.2464H46.4964Z" fill="white"/>
<path d="M46.4964 53.2489H53.2464H46.4964Z" fill="white"/>
<path d="M37.5024 53.2069C34.8102 52.9996 32.228 52.0511 30.0417 50.4664C27.8555 48.8817 26.1507 46.7227 25.1161 44.2286C24.0815 41.7345 23.7576 39.0027 24.1803 36.3358C24.6029 33.6689 25.7556 31.1711 27.5107 29.1191C29.2657 27.0671 31.5545 25.541 34.1236 24.71C36.6927 23.8789 39.4417 23.7753 42.0661 24.4106C44.6904 25.0459 47.0877 26.3953 48.9922 28.3094C50.8967 30.2234 52.2342 32.6274 52.8564 35.2549" fill="white"/>
<path d="M32.9964 52.1224V45.3724C32.9964 45.3724 34.5099 44.6824 34.9014 43.8004C35.0218 43.5297 35.079 43.2352 35.0686 42.9392C35.0582 42.6431 34.9805 42.3534 34.8414 42.0919L32.9529 38.5444C32.748 38.1611 32.4209 37.8574 32.0235 37.6813C31.6262 37.5052 31.1815 37.4668 30.7599 37.5724L24.0099 39.2554" fill="white"/>
<path d="M30.7464 26.2984V32.2264C30.7455 32.662 30.8905 33.0854 31.1583 33.4291C31.4261 33.7727 31.8012 34.0168 32.2239 34.1224L35.0739 35.0974C35.3617 35.1692 35.6621 35.1745 35.9523 35.1128C36.2424 35.051 36.5147 34.9239 36.7483 34.7411C36.9819 34.5582 37.1707 34.3245 37.3003 34.0577C37.43 33.7909 37.497 33.498 37.4964 33.2014V31.1494L43.7424 30.1204C44.1976 30.0444 44.611 29.8095 44.9093 29.4574C45.2076 29.1053 45.3713 28.6588 45.3714 28.1974V25.6474" fill="white"/>
<path d="M49.8714 44.2489H53.2464M46.4964 48.7489H53.2464M46.4964 53.2489H53.2464M37.5024 53.2069C34.8102 52.9996 32.228 52.0511 30.0417 50.4664C27.8555 48.8817 26.1507 46.7227 25.1161 44.2286C24.0815 41.7345 23.7576 39.0027 24.1803 36.3358C24.6029 33.6689 25.7556 31.1711 27.5107 29.1191C29.2657 27.0671 31.5545 25.541 34.1236 24.71C36.6927 23.8789 39.4417 23.7753 42.0661 24.4106C44.6904 25.0459 47.0877 26.3953 48.9922 28.3094C50.8967 30.2234 52.2342 32.6274 52.8564 35.2549M32.9964 52.1224V45.3724C32.9964 45.3724 34.5099 44.6824 34.9014 43.8004C35.0218 43.5297 35.079 43.2352 35.0686 42.9392C35.0582 42.6431 34.9805 42.3534 34.8414 42.0919L32.9529 38.5444C32.748 38.1611 32.4209 37.8574 32.0235 37.6813C31.6262 37.5052 31.1815 37.4668 30.7599 37.5724L24.0099 39.2554M30.7464 26.2984V32.2264C30.7455 32.662 30.8905 33.0854 31.1583 33.4291C31.4261 33.7727 31.8012 34.0168 32.2239 34.1224L35.0739 35.0974C35.3617 35.1692 35.6621 35.1745 35.9523 35.1128C36.2424 35.051 36.5147 34.9239 36.7483 34.7411C36.9819 34.5582 37.1707 34.3245 37.3003 34.0577C37.43 33.7909 37.497 33.498 37.4964 33.2014V31.1494L43.7424 30.1204C44.1976 30.0444 44.611 29.8095 44.9093 29.4574C45.2076 29.1053 45.3713 28.6588 45.3714 28.1974V25.6474M41.9964 39.7489H57.7464V57.7489H41.9964V39.7489Z" stroke="white" stroke-width="7" stroke-linecap="round" stroke-linejoin="round"/>
<path d="M49.8714 44.2489H53.2464M46.4964 48.7489H53.2464M46.4964 53.2489H53.2464M37.5024 53.2069C34.8102 52.9996 32.228 52.0511 30.0417 50.4664C27.8555 48.8817 26.1507 46.7227 25.1161 44.2286C24.0815 41.7345 23.7576 39.0027 24.1803 36.3358C24.6029 33.6689 25.7556 31.1711 27.5107 29.1191C29.2657 27.0671 31.5545 25.541 34.1236 24.71C36.6927 23.8789 39.4417 23.7753 42.0661 24.4106C44.6904 25.0459 47.0877 26.3953 48.9922 28.3094C50.8967 30.2234 52.2342 32.6274 52.8564 35.2549M32.9964 52.1224V45.3724C32.9964 45.3724 34.5099 44.6824 34.9014 43.8004C35.0218 43.5297 35.079 43.2352 35.0686 42.9392C35.0582 42.6431 34.9805 42.3534 34.8414 42.0919L32.9529 38.5444C32.748 38.1611 32.4209 37.8574 32.0235 37.6813C31.6262 37.5052 31.1815 37.4668 30.7599 37.5724L24.0099 39.2554M30.7464 26.2984V32.2264C30.7455 32.662 30.8905 33.0854 31.1583 33.4291C31.4261 33.7727 31.8012 34.0168 32.2239 34.1224L35.0739 35.0974C35.3617 35.1692 35.6621 35.1745 35.9523 35.1128C36.2424 35.051 36.5147 34.9239 36.7483 34.7411C36.9819 34.5582 37.1707 34.3245 37.3003 34.0577C37.43 33.7909 37.497 33.498 37.4964 33.2014V31.1494L43.7424 30.1204C44.1976 30.0444 44.611 29.8095 44.9093 29.4574C45.2076 29.1053 45.3713 28.6588 45.3714 28.1974V25.6474M41.9964 39.7489H57.7464V57.7489H41.9964V39.7489Z" stroke="black" stroke-width="2" stroke-linecap="round" stroke-linejoin="round"/>
</svg>
