<svg width="82" height="82" viewBox="0 0 82 82" fill="none" xmlns="http://www.w3.org/2000/svg">
<circle cx="41" cy="41" r="41" fill="#6BBF59"/>
<path d="M25 31.94V55.7L35.5 49.76L47.5 55.7L58 49.76V26L47.5 31.94L35.5 26L25 31.94Z" fill="white"/>
<path d="M35.5 49.76L25 55.7V31.94L35.5 26M35.5 49.76L47.5 55.7M35.5 49.76V26M47.5 55.7L58 49.76V26L47.5 31.94M47.5 55.7V31.94M47.5 31.94L35.5 26" stroke="white" stroke-width="7" stroke-linecap="round" stroke-linejoin="round"/>
<path d="M35.5 49.76L25 55.7V31.94L35.5 26M35.5 49.76L47.5 55.7M35.5 49.76V26M47.5 55.7L58 49.76V26L47.5 31.94M47.5 55.7V31.94M47.5 31.94L35.5 26" stroke="#0C150A" stroke-width="2" stroke-linecap="round" stroke-linejoin="round"/>
</svg>
