<svg width="82" height="82" viewBox="0 0 82 82" fill="none" xmlns="http://www.w3.org/2000/svg">
<circle cx="41" cy="41" r="41" fill="#6BBF59"/>
<path d="M47.499 45.0943C47.0148 45.3092 45.0589 46.568 45.2085 46.4775C44.3343 47.0065 43.5842 47.3498 42.8221 47.5338C41.8629 47.7657 40.9335 47.7654 39.4158 47.6111C37.8752 47.4543 37.6926 47.4425 37.1306 47.5455C35.7973 47.7899 35.0993 48.9238 35.4256 50.2976C36.1509 53.3494 40.7501 55.9172 44.5907 54.9904C48.4325 54.0615 51.3807 49.6685 50.6553 46.6165C50.2682 44.988 48.8928 44.4757 47.499 45.0943ZM43.8729 51.9645C42.2739 52.3504 40.3432 51.6392 39.2537 50.7214C41.0102 50.8934 42.194 50.8851 43.5399 50.5596C44.6538 50.2908 45.6731 49.8243 46.7941 49.1459C46.826 49.1267 47.1013 48.9502 47.4367 48.7376C46.8797 50.0552 45.4753 51.577 43.8729 51.9645Z" fill="black"/>
<path d="M45.8771 41.5274C45.6152 41.9032 45.5138 42.3175 45.6313 42.6985C45.8918 43.5401 47.1159 43.9026 48.3661 43.509C49.6164 43.1154 50.4196 42.1151 50.1591 41.2735C49.8986 40.4319 48.6745 40.0694 47.4242 40.463C47.1481 40.5499 46.894 40.6666 46.6681 40.8045L48.9706 38.3221C49.5524 37.6948 49.5202 36.7104 48.8985 36.1233C48.2768 35.5362 47.3013 35.5687 46.7195 36.196L44.0386 39.0865C43.4568 39.7137 43.489 40.6982 44.1107 41.2853C44.6017 41.7491 45.3129 41.8246 45.8771 41.5274Z" fill="black"/>
<path d="M37.5746 45.0647C38.8062 44.6771 39.6032 43.7008 39.3778 42.8673C40.0012 42.96 40.643 42.6602 40.9594 42.0681C41.3635 41.3119 41.0836 40.3682 40.3342 39.9604L36.8809 38.0812C36.1315 37.6734 35.1963 37.9558 34.7922 38.712C34.3881 39.4682 34.668 40.4119 35.4174 40.8197L37.3531 41.8731C37.1185 41.8945 36.8761 41.9421 36.6326 42.0188C35.3823 42.4123 34.5806 43.4142 34.8396 44.2543C35.1003 45.0958 36.3244 45.4583 37.5746 45.0647Z" fill="black"/>
<path d="M60.8543 40.8113C60.5583 39.5481 59.8522 38.4903 58.9195 37.9099C58.235 37.4837 57.4596 37.3484 56.7242 37.521C56.6481 37.5396 56.5215 37.5794 56.3702 37.6301C55.8471 36.4124 55.214 35.3154 54.4823 34.334H56.3746C57.226 34.334 57.9162 33.6375 57.9162 32.7784C57.9162 31.9192 57.226 31.2227 56.3746 31.2227H54.833V26.5557C54.833 25.6965 54.1428 25 53.2913 25C52.4398 25 51.7496 25.6965 51.7496 26.5557V31.4732L51.6868 31.4844C51.1261 31.0501 50.5343 30.6554 49.9133 30.3001C48.208 29.3245 46.3932 28.708 44.5681 28.3763C43.4034 28.1646 42.4281 28.0989 41.736 28.1123C41.1413 28.1236 40.2307 28.2191 39.081 28.4716C37.1808 28.889 35.2797 29.6123 33.4963 30.7209C31.504 31.9594 29.8135 33.5826 28.4956 35.6143L26.8153 35.9135C25.9768 36.0628 25.417 36.8697 25.565 37.7158C25.6802 38.3746 26.1906 38.8627 26.8065 38.9762C26.535 39.6946 26.299 40.4497 26.0999 41.2416C24.8262 41.7457 24 43.2438 24 45.2231C24 47.1698 24.7985 48.6502 26.0353 49.179C26.4954 50.8948 27.2742 52.5144 28.3633 53.9485C31.0535 57.4956 35.1989 59.225 41.7289 59.225C47.9679 59.225 52.1907 57.1078 55.0949 53.2807C56.7692 51.0748 57.7116 48.4314 57.8864 45.6737C57.9719 45.6763 58.0469 45.6775 58.1117 45.6775C58.4184 45.6775 58.5264 45.6526 58.6374 45.6262C60.4134 45.1968 61.3877 43.0826 60.8543 40.8113ZM35.1135 33.37C36.5781 32.4595 38.1571 31.8588 39.7369 31.5118C40.2882 31.3906 40.7976 31.3103 41.2502 31.2628C41.5098 31.2356 41.6839 31.2253 41.7575 31.2239C42.2954 31.2134 43.0712 31.2657 44.0217 31.4383C45.0302 31.6216 46.0323 31.9104 47 32.319L33.2492 34.7677C33.8268 34.2483 34.449 33.783 35.1135 33.37ZM52.647 51.389C50.3244 54.4497 47.0054 56.1137 41.7289 56.1137C36.0947 56.1137 32.8667 54.767 30.8112 52.0568C28.9144 49.5591 28.2231 46.3102 28.8491 43.08C29.1901 41.3178 29.7229 39.7745 30.4256 38.43L50.7911 34.8034C52.6471 36.6042 53.9662 39.0922 54.6087 42.4123C55.2348 45.6414 54.5435 48.8905 52.647 51.389Z" fill="black"/>
<path d="M47.499 45.0943C47.0148 45.3092 45.0589 46.568 45.2085 46.4775C44.3343 47.0065 43.5842 47.3498 42.8221 47.5338C41.8629 47.7657 40.9335 47.7654 39.4158 47.6111C37.8752 47.4543 37.6926 47.4425 37.1306 47.5455C35.7973 47.7899 35.0993 48.9238 35.4256 50.2976C36.1509 53.3494 40.7501 55.9172 44.5907 54.9904C48.4325 54.0615 51.3807 49.6685 50.6553 46.6165C50.2682 44.988 48.8928 44.4757 47.499 45.0943ZM43.8729 51.9645C42.2739 52.3504 40.3432 51.6392 39.2537 50.7214C41.0102 50.8934 42.194 50.8851 43.5399 50.5596C44.6538 50.2908 45.6731 49.8243 46.7941 49.1459C46.826 49.1267 47.1013 48.9502 47.4367 48.7376C46.8797 50.0552 45.4753 51.577 43.8729 51.9645Z" stroke="white" stroke-width="6"/>
<path d="M45.8771 41.5274C45.6152 41.9032 45.5138 42.3175 45.6313 42.6985C45.8918 43.5401 47.1159 43.9026 48.3661 43.509C49.6164 43.1154 50.4196 42.1151 50.1591 41.2735C49.8986 40.4319 48.6745 40.0694 47.4242 40.463C47.1481 40.5499 46.894 40.6666 46.6681 40.8045L48.9706 38.3221C49.5524 37.6948 49.5202 36.7104 48.8985 36.1233C48.2768 35.5362 47.3013 35.5687 46.7195 36.196L44.0386 39.0865C43.4568 39.7137 43.489 40.6982 44.1107 41.2853C44.6017 41.7491 45.3129 41.8246 45.8771 41.5274Z" stroke="white" stroke-width="6"/>
<path d="M37.5746 45.0647C38.8062 44.6771 39.6032 43.7008 39.3778 42.8673C40.0012 42.96 40.643 42.6602 40.9594 42.0681C41.3635 41.3119 41.0836 40.3682 40.3342 39.9604L36.8809 38.0812C36.1315 37.6734 35.1963 37.9558 34.7922 38.712C34.3881 39.4682 34.668 40.4119 35.4174 40.8197L37.3531 41.8731C37.1185 41.8945 36.8761 41.9421 36.6326 42.0188C35.3823 42.4123 34.5806 43.4142 34.8396 44.2543C35.1003 45.0958 36.3244 45.4583 37.5746 45.0647Z" stroke="white" stroke-width="6"/>
<path d="M60.8543 40.8113C60.5583 39.5481 59.8522 38.4903 58.9195 37.9099C58.235 37.4837 57.4596 37.3484 56.7242 37.521C56.6481 37.5396 56.5215 37.5794 56.3702 37.6301C55.8471 36.4124 55.214 35.3154 54.4823 34.334H56.3746C57.226 34.334 57.9162 33.6375 57.9162 32.7784C57.9162 31.9192 57.226 31.2227 56.3746 31.2227H54.833V26.5557C54.833 25.6965 54.1428 25 53.2913 25C52.4398 25 51.7496 25.6965 51.7496 26.5557V31.4732L51.6868 31.4844C51.1261 31.0501 50.5343 30.6554 49.9133 30.3001C48.208 29.3245 46.3932 28.708 44.5681 28.3763C43.4034 28.1646 42.4281 28.0989 41.736 28.1123C41.1413 28.1236 40.2307 28.2191 39.081 28.4716C37.1808 28.889 35.2797 29.6123 33.4963 30.7209C31.504 31.9594 29.8135 33.5826 28.4956 35.6143L26.8153 35.9135C25.9768 36.0628 25.417 36.8697 25.565 37.7158C25.6802 38.3746 26.1906 38.8627 26.8065 38.9762C26.535 39.6946 26.299 40.4497 26.0999 41.2416C24.8262 41.7457 24 43.2438 24 45.2231C24 47.1698 24.7985 48.6502 26.0353 49.179C26.4954 50.8948 27.2742 52.5144 28.3633 53.9485C31.0535 57.4956 35.1989 59.225 41.7289 59.225C47.9679 59.225 52.1907 57.1078 55.0949 53.2807C56.7692 51.0748 57.7116 48.4314 57.8864 45.6737C57.9719 45.6763 58.0469 45.6775 58.1117 45.6775C58.4184 45.6775 58.5264 45.6526 58.6374 45.6262C60.4134 45.1968 61.3877 43.0826 60.8543 40.8113ZM35.1135 33.37C36.5781 32.4595 38.1571 31.8588 39.7369 31.5118C40.2882 31.3906 40.7976 31.3103 41.2502 31.2628C41.5098 31.2356 41.6839 31.2253 41.7575 31.2239C42.2954 31.2134 43.0712 31.2657 44.0217 31.4383C45.0302 31.6216 46.0323 31.9104 47 32.319L33.2492 34.7677C33.8268 34.2483 34.449 33.783 35.1135 33.37ZM52.647 51.389C50.3244 54.4497 47.0054 56.1137 41.7289 56.1137C36.0947 56.1137 32.8667 54.767 30.8112 52.0568C28.9144 49.5591 28.2231 46.3102 28.8491 43.08C29.1901 41.3178 29.7229 39.7745 30.4256 38.43L50.7911 34.8034C52.6471 36.6042 53.9662 39.0922 54.6087 42.4123C55.2348 45.6414 54.5435 48.8905 52.647 51.389Z" stroke="white" stroke-width="6"/>
<path d="M47.499 45.0943C47.0148 45.3092 45.0589 46.568 45.2085 46.4775C44.3343 47.0065 43.5842 47.3498 42.8221 47.5338C41.8629 47.7657 40.9335 47.7654 39.4158 47.6111C37.8752 47.4543 37.6926 47.4425 37.1306 47.5455C35.7973 47.7899 35.0993 48.9238 35.4256 50.2976C36.1509 53.3494 40.7501 55.9172 44.5907 54.9904C48.4325 54.0615 51.3807 49.6685 50.6553 46.6165C50.2682 44.988 48.8928 44.4757 47.499 45.0943ZM43.8729 51.9645C42.2739 52.3504 40.3432 51.6392 39.2537 50.7214C41.0102 50.8934 42.194 50.8851 43.5399 50.5596C44.6538 50.2908 45.6731 49.8243 46.7941 49.1459C46.826 49.1267 47.1013 48.9502 47.4367 48.7376C46.8797 50.0552 45.4753 51.577 43.8729 51.9645Z" fill="black"/>
<path d="M45.8771 41.5274C45.6152 41.9032 45.5138 42.3175 45.6313 42.6985C45.8918 43.5401 47.1159 43.9026 48.3661 43.509C49.6164 43.1154 50.4196 42.1151 50.1591 41.2735C49.8986 40.4319 48.6745 40.0694 47.4242 40.463C47.1481 40.5499 46.894 40.6666 46.6681 40.8045L48.9706 38.3221C49.5524 37.6948 49.5202 36.7104 48.8985 36.1233C48.2768 35.5362 47.3013 35.5687 46.7195 36.196L44.0386 39.0865C43.4568 39.7137 43.489 40.6982 44.1107 41.2853C44.6017 41.7491 45.3129 41.8246 45.8771 41.5274Z" fill="black"/>
<path d="M37.5746 45.0647C38.8062 44.6771 39.6032 43.7008 39.3778 42.8673C40.0012 42.96 40.643 42.6602 40.9594 42.0681C41.3635 41.3119 41.0836 40.3682 40.3342 39.9604L36.8809 38.0812C36.1315 37.6734 35.1963 37.9558 34.7922 38.712C34.3881 39.4682 34.668 40.4119 35.4174 40.8197L37.3531 41.8731C37.1185 41.8945 36.8761 41.9421 36.6326 42.0188C35.3823 42.4123 34.5806 43.4142 34.8396 44.2543C35.1003 45.0958 36.3244 45.4583 37.5746 45.0647Z" fill="black"/>
<path d="M60.8543 40.8113C60.5583 39.5481 59.8522 38.4903 58.9195 37.9099C58.235 37.4837 57.4596 37.3484 56.7242 37.521C56.6481 37.5396 56.5215 37.5794 56.3702 37.6301C55.8471 36.4124 55.214 35.3154 54.4823 34.334H56.3746C57.226 34.334 57.9162 33.6375 57.9162 32.7784C57.9162 31.9192 57.226 31.2227 56.3746 31.2227H54.833V26.5557C54.833 25.6965 54.1428 25 53.2913 25C52.4398 25 51.7496 25.6965 51.7496 26.5557V31.4732L51.6868 31.4844C51.1261 31.0501 50.5343 30.6554 49.9133 30.3001C48.208 29.3245 46.3932 28.708 44.5681 28.3763C43.4034 28.1646 42.4281 28.0989 41.736 28.1123C41.1413 28.1236 40.2307 28.2191 39.081 28.4716C37.1808 28.889 35.2797 29.6123 33.4963 30.7209C31.504 31.9594 29.8135 33.5826 28.4956 35.6143L26.8153 35.9135C25.9768 36.0628 25.417 36.8697 25.565 37.7158C25.6802 38.3746 26.1906 38.8627 26.8065 38.9762C26.535 39.6946 26.299 40.4497 26.0999 41.2416C24.8262 41.7457 24 43.2438 24 45.2231C24 47.1698 24.7985 48.6502 26.0353 49.179C26.4954 50.8948 27.2742 52.5144 28.3633 53.9485C31.0535 57.4956 35.1989 59.225 41.7289 59.225C47.9679 59.225 52.1907 57.1078 55.0949 53.2807C56.7692 51.0748 57.7116 48.4314 57.8864 45.6737C57.9719 45.6763 58.0469 45.6775 58.1117 45.6775C58.4184 45.6775 58.5264 45.6526 58.6374 45.6262C60.4134 45.1968 61.3877 43.0826 60.8543 40.8113ZM35.1135 33.37C36.5781 32.4595 38.1571 31.8588 39.7369 31.5118C40.2882 31.3906 40.7976 31.3103 41.2502 31.2628C41.5098 31.2356 41.6839 31.2253 41.7575 31.2239C42.2954 31.2134 43.0712 31.2657 44.0217 31.4383C45.0302 31.6216 46.0323 31.9104 47 32.319L33.2492 34.7677C33.8268 34.2483 34.449 33.783 35.1135 33.37ZM52.647 51.389C50.3244 54.4497 47.0054 56.1137 41.7289 56.1137C36.0947 56.1137 32.8667 54.767 30.8112 52.0568C28.9144 49.5591 28.2231 46.3102 28.8491 43.08C29.1901 41.3178 29.7229 39.7745 30.4256 38.43L50.7911 34.8034C52.6471 36.6042 53.9662 39.0922 54.6087 42.4123C55.2348 45.6414 54.5435 48.8905 52.647 51.389Z" fill="black"/>
</svg>
