<svg width="82" height="82" viewBox="0 0 82 82" fill="none" xmlns="http://www.w3.org/2000/svg">
<circle cx="41" cy="41" r="41" fill="#6BBF59"/>
<g clip-path="url(#clip0_1596_218)">
<mask id="path-2-outside-1_1596_218" maskUnits="userSpaceOnUse" x="18.2217" y="12.8105" width="48" height="52" fill="black">
<rect fill="white" x="18.2217" y="12.8105" width="48" height="52"/>
<path d="M62.125 19.1416H58.0488C57.5523 19.1429 57.0765 19.341 56.7258 19.6924C56.3751 20.0439 56.178 20.5201 56.1777 21.0166V32.4102H49.1201C48.8037 32.1966 48.4782 31.9971 48.1436 31.8115V21.0166C48.1433 20.5201 47.9462 20.0439 47.5955 19.6924C47.2447 19.341 46.769 19.1429 46.2725 19.1416H42.1953C41.6988 19.1429 41.223 19.341 40.8723 19.6924C40.5216 20.0439 40.3245 20.5201 40.3242 21.0166V30.3398C39.423 30.4584 38.5374 30.6742 37.6826 30.9834C37.5296 29.8532 37.0929 28.7801 36.4131 27.8643L32.2139 22.165V20.0166H33.5439C33.6337 20.0166 33.7226 19.9989 33.8055 19.9646C33.8885 19.9302 33.9638 19.8799 34.0273 19.8164C34.0908 19.7529 34.1411 19.6775 34.1755 19.5946C34.2099 19.5117 34.2275 19.4228 34.2275 19.333V16.6963C34.2265 16.1966 34.0276 15.7177 33.6744 15.3644C33.3212 15.011 32.8424 14.8118 32.3428 14.8105H25.7227C25.2223 14.8113 24.7427 15.0105 24.3891 15.3644C24.0354 15.7182 23.8365 16.1979 23.8359 16.6982V19.335C23.8359 19.5163 23.908 19.6901 24.0362 19.8183C24.1644 19.9465 24.3382 20.0186 24.5195 20.0186H25.7275V22.3701L21.5977 27.8389C20.7079 29.0215 20.2252 30.4605 20.2217 31.9404V59.208C20.223 60.2405 20.6337 61.2303 21.3638 61.9604C22.0939 62.6905 23.0837 63.1012 24.1162 63.1025H33.8516C34.8841 63.1012 35.8739 62.6905 36.604 61.9604C37.3341 61.2303 37.7448 60.2405 37.7461 59.208V54.9707C38.5813 55.2674 39.4455 55.4756 40.3242 55.5918V59.9473C40.324 60.7825 40.655 61.5837 41.2446 62.1752C41.8343 62.7667 42.6345 63.1002 43.4697 63.1025H60.8477C61.6828 63.1002 62.4829 62.7667 63.0724 62.1752C63.6619 61.5836 63.9927 60.7824 63.9922 59.9473V21.0166C63.9922 20.5207 63.7957 20.0449 63.4458 19.6935C63.0958 19.3421 62.6209 19.1437 62.125 19.1416ZM56.168 33.7773C56.1252 34.1526 55.9461 34.4991 55.6647 34.7511C55.3834 35.0032 55.0193 35.1431 54.6416 35.1445H52.0439C51.667 34.6597 51.2554 34.2028 50.8125 33.7773H56.168ZM53.1758 42.9658C53.1758 45.1757 52.5205 47.336 51.2928 49.1735C50.0651 51.0109 48.3201 52.4431 46.2784 53.2889C44.2368 54.1347 41.9902 54.3561 39.8228 53.9251C37.6553 53.4941 35.6643 52.4301 34.1016 50.8676C32.5388 49.3051 31.4744 47.3143 31.0431 45.1469C30.6117 42.9795 30.8327 40.7329 31.6781 38.6911C32.5235 36.6494 33.9554 34.9041 35.7927 33.6761C37.63 32.448 39.7901 31.7924 42 31.792C44.9625 31.7954 47.8026 32.9737 49.8974 35.0684C51.9921 37.1632 53.1705 40.0034 53.1738 42.9658H53.1758ZM41.6914 22.9453H44.6211C44.8024 22.9453 44.9763 22.8733 45.1045 22.7451C45.2327 22.6169 45.3047 22.443 45.3047 22.2617C45.3047 22.0804 45.2327 21.9065 45.1045 21.7783C44.9763 21.6501 44.8024 21.5781 44.6211 21.5781H41.6914V21.0166C41.6911 20.8825 41.744 20.7538 41.8385 20.6586C41.9329 20.5634 42.0612 20.5096 42.1953 20.5088H46.2715C46.4056 20.5096 46.5339 20.5634 46.6283 20.6586C46.7228 20.7538 46.7757 20.8825 46.7754 21.0166V31.1592C45.2587 30.5434 43.6369 30.2277 42 30.2295C41.8965 30.2295 41.7939 30.2295 41.6914 30.2295V22.9453ZM25.2031 18.6533V16.7002C25.2031 16.5621 25.258 16.4298 25.3556 16.3321C25.4532 16.2345 25.5856 16.1797 25.7236 16.1797H32.3437C32.4818 16.1797 32.6142 16.2345 32.7118 16.3321C32.8094 16.4298 32.8643 16.5621 32.8643 16.7002V18.6533H25.2031ZM30.8506 20.0205V21.334H27.0947V20.0205H30.8506ZM36.3799 59.208C36.3791 59.8781 36.1126 60.5205 35.6388 60.9943C35.165 61.4681 34.5226 61.7346 33.8525 61.7354H33.3574L34.3008 60.1592C34.3855 60.0042 34.407 59.8224 34.3607 59.652C34.3144 59.4815 34.2039 59.3356 34.0524 59.2448C33.9008 59.154 33.72 59.1254 33.5479 59.165C33.3757 59.2045 33.2256 59.3092 33.1289 59.457L31.7617 61.7354H29.8477V59.8076C29.8477 59.6263 29.7756 59.4524 29.6474 59.3242C29.5192 59.196 29.3454 59.124 29.1641 59.124C28.9828 59.124 28.8089 59.196 28.6807 59.3242C28.5525 59.4524 28.4805 59.6263 28.4805 59.8076V61.7354H26.5703L25.2031 59.457C25.159 59.3763 25.099 59.3053 25.0267 59.2483C24.9544 59.1913 24.8714 59.1495 24.7826 59.1253C24.6938 59.1012 24.601 59.0953 24.5098 59.1079C24.4186 59.1204 24.331 59.1513 24.252 59.1986C24.1731 59.2459 24.1045 59.3087 24.0504 59.3831C23.9963 59.4576 23.9577 59.5422 23.9371 59.6319C23.9165 59.7216 23.9142 59.8145 23.9304 59.9051C23.9466 59.9957 23.9809 60.0822 24.0312 60.1592L24.9736 61.7354H24.1143C23.4447 61.7338 22.8031 61.4669 22.3299 60.9932C21.8567 60.5195 21.5906 59.8776 21.5898 59.208V47.7646H27.6982C27.8795 47.7646 28.0534 47.6926 28.1816 47.5644C28.3098 47.4362 28.3818 47.2624 28.3818 47.0811C28.3818 46.8998 28.3098 46.7259 28.1816 46.5977C28.0534 46.4695 27.8795 46.3975 27.6982 46.3975H21.5898V41.1602H27.6982C27.8795 41.1602 28.0534 41.0881 28.1816 40.9599C28.3098 40.8317 28.3818 40.6579 28.3818 40.4766C28.3818 40.2953 28.3098 40.1214 28.1816 39.9932C28.0534 39.865 27.8795 39.793 27.6982 39.793H21.5898V31.9453C21.5923 30.7615 21.9781 29.6103 22.6895 28.6641L27.1914 22.7012H30.9131L35.3164 28.6758C35.9349 29.5114 36.2994 30.5075 36.3662 31.5449C34.232 32.5958 32.4349 34.2237 31.1786 36.2438C29.9224 38.264 29.2572 40.5957 29.2585 42.9747C29.2598 45.3536 29.9276 47.6846 31.1861 49.7033C32.4446 51.7221 34.2435 53.3479 36.3789 54.3965L36.3799 59.208ZM60.8477 61.7354H43.4648C43.0123 61.7335 42.5773 61.5596 42.2482 61.249C41.9191 60.9384 41.7204 60.5142 41.6924 60.0625H62.6221C62.5943 60.5146 62.3954 60.9392 62.0658 61.2499C61.7362 61.5607 61.3006 61.7342 60.8477 61.7354ZM62.625 58.6953H41.6914V55.6992C41.7891 55.6992 41.8965 55.6992 42 55.6992C49.0225 55.6992 54.7363 49.9854 54.7363 42.9629C54.7389 40.6911 54.13 38.4604 52.9736 36.5049H54.6396C55.411 36.5031 56.1501 36.1953 56.6947 35.6492C57.2394 35.103 57.5452 34.3631 57.5449 33.5918V22.9453H60.4746C60.6559 22.9453 60.8298 22.8733 60.958 22.7451C61.0862 22.6169 61.1582 22.443 61.1582 22.2617C61.1582 22.0804 61.0862 21.9065 60.958 21.7783C60.8298 21.6501 60.6559 21.5781 60.4746 21.5781H57.5449V21.0166C57.5447 20.8825 57.5975 20.7538 57.692 20.6586C57.7864 20.5634 57.9147 20.5096 58.0488 20.5088H62.125C62.2589 20.5098 62.387 20.5638 62.4812 20.659C62.5754 20.7541 62.6282 20.8827 62.6279 21.0166L62.625 58.6953Z"/>
</mask>
<path d="M62.125 19.1416H58.0488C57.5523 19.1429 57.0765 19.341 56.7258 19.6924C56.3751 20.0439 56.178 20.5201 56.1777 21.0166V32.4102H49.1201C48.8037 32.1966 48.4782 31.9971 48.1436 31.8115V21.0166C48.1433 20.5201 47.9462 20.0439 47.5955 19.6924C47.2447 19.341 46.769 19.1429 46.2725 19.1416H42.1953C41.6988 19.1429 41.223 19.341 40.8723 19.6924C40.5216 20.0439 40.3245 20.5201 40.3242 21.0166V30.3398C39.423 30.4584 38.5374 30.6742 37.6826 30.9834C37.5296 29.8532 37.0929 28.7801 36.4131 27.8643L32.2139 22.165V20.0166H33.5439C33.6337 20.0166 33.7226 19.9989 33.8055 19.9646C33.8885 19.9302 33.9638 19.8799 34.0273 19.8164C34.0908 19.7529 34.1411 19.6775 34.1755 19.5946C34.2099 19.5117 34.2275 19.4228 34.2275 19.333V16.6963C34.2265 16.1966 34.0276 15.7177 33.6744 15.3644C33.3212 15.011 32.8424 14.8118 32.3428 14.8105H25.7227C25.2223 14.8113 24.7427 15.0105 24.3891 15.3644C24.0354 15.7182 23.8365 16.1979 23.8359 16.6982V19.335C23.8359 19.5163 23.908 19.6901 24.0362 19.8183C24.1644 19.9465 24.3382 20.0186 24.5195 20.0186H25.7275V22.3701L21.5977 27.8389C20.7079 29.0215 20.2252 30.4605 20.2217 31.9404V59.208C20.223 60.2405 20.6337 61.2303 21.3638 61.9604C22.0939 62.6905 23.0837 63.1012 24.1162 63.1025H33.8516C34.8841 63.1012 35.8739 62.6905 36.604 61.9604C37.3341 61.2303 37.7448 60.2405 37.7461 59.208V54.9707C38.5813 55.2674 39.4455 55.4756 40.3242 55.5918V59.9473C40.324 60.7825 40.655 61.5837 41.2446 62.1752C41.8343 62.7667 42.6345 63.1002 43.4697 63.1025H60.8477C61.6828 63.1002 62.4829 62.7667 63.0724 62.1752C63.6619 61.5836 63.9927 60.7824 63.9922 59.9473V21.0166C63.9922 20.5207 63.7957 20.0449 63.4458 19.6935C63.0958 19.3421 62.6209 19.1437 62.125 19.1416ZM56.168 33.7773C56.1252 34.1526 55.9461 34.4991 55.6647 34.7511C55.3834 35.0032 55.0193 35.1431 54.6416 35.1445H52.0439C51.667 34.6597 51.2554 34.2028 50.8125 33.7773H56.168ZM53.1758 42.9658C53.1758 45.1757 52.5205 47.336 51.2928 49.1735C50.0651 51.0109 48.3201 52.4431 46.2784 53.2889C44.2368 54.1347 41.9902 54.3561 39.8228 53.9251C37.6553 53.4941 35.6643 52.4301 34.1016 50.8676C32.5388 49.3051 31.4744 47.3143 31.0431 45.1469C30.6117 42.9795 30.8327 40.7329 31.6781 38.6911C32.5235 36.6494 33.9554 34.9041 35.7927 33.6761C37.63 32.448 39.7901 31.7924 42 31.792C44.9625 31.7954 47.8026 32.9737 49.8974 35.0684C51.9921 37.1632 53.1705 40.0034 53.1738 42.9658H53.1758ZM41.6914 22.9453H44.6211C44.8024 22.9453 44.9763 22.8733 45.1045 22.7451C45.2327 22.6169 45.3047 22.443 45.3047 22.2617C45.3047 22.0804 45.2327 21.9065 45.1045 21.7783C44.9763 21.6501 44.8024 21.5781 44.6211 21.5781H41.6914V21.0166C41.6911 20.8825 41.744 20.7538 41.8385 20.6586C41.9329 20.5634 42.0612 20.5096 42.1953 20.5088H46.2715C46.4056 20.5096 46.5339 20.5634 46.6283 20.6586C46.7228 20.7538 46.7757 20.8825 46.7754 21.0166V31.1592C45.2587 30.5434 43.6369 30.2277 42 30.2295C41.8965 30.2295 41.7939 30.2295 41.6914 30.2295V22.9453ZM25.2031 18.6533V16.7002C25.2031 16.5621 25.258 16.4298 25.3556 16.3321C25.4532 16.2345 25.5856 16.1797 25.7236 16.1797H32.3437C32.4818 16.1797 32.6142 16.2345 32.7118 16.3321C32.8094 16.4298 32.8643 16.5621 32.8643 16.7002V18.6533H25.2031ZM30.8506 20.0205V21.334H27.0947V20.0205H30.8506ZM36.3799 59.208C36.3791 59.8781 36.1126 60.5205 35.6388 60.9943C35.165 61.4681 34.5226 61.7346 33.8525 61.7354H33.3574L34.3008 60.1592C34.3855 60.0042 34.407 59.8224 34.3607 59.652C34.3144 59.4815 34.2039 59.3356 34.0524 59.2448C33.9008 59.154 33.72 59.1254 33.5479 59.165C33.3757 59.2045 33.2256 59.3092 33.1289 59.457L31.7617 61.7354H29.8477V59.8076C29.8477 59.6263 29.7756 59.4524 29.6474 59.3242C29.5192 59.196 29.3454 59.124 29.1641 59.124C28.9828 59.124 28.8089 59.196 28.6807 59.3242C28.5525 59.4524 28.4805 59.6263 28.4805 59.8076V61.7354H26.5703L25.2031 59.457C25.159 59.3763 25.099 59.3053 25.0267 59.2483C24.9544 59.1913 24.8714 59.1495 24.7826 59.1253C24.6938 59.1012 24.601 59.0953 24.5098 59.1079C24.4186 59.1204 24.331 59.1513 24.252 59.1986C24.1731 59.2459 24.1045 59.3087 24.0504 59.3831C23.9963 59.4576 23.9577 59.5422 23.9371 59.6319C23.9165 59.7216 23.9142 59.8145 23.9304 59.9051C23.9466 59.9957 23.9809 60.0822 24.0312 60.1592L24.9736 61.7354H24.1143C23.4447 61.7338 22.8031 61.4669 22.3299 60.9932C21.8567 60.5195 21.5906 59.8776 21.5898 59.208V47.7646H27.6982C27.8795 47.7646 28.0534 47.6926 28.1816 47.5644C28.3098 47.4362 28.3818 47.2624 28.3818 47.0811C28.3818 46.8998 28.3098 46.7259 28.1816 46.5977C28.0534 46.4695 27.8795 46.3975 27.6982 46.3975H21.5898V41.1602H27.6982C27.8795 41.1602 28.0534 41.0881 28.1816 40.9599C28.3098 40.8317 28.3818 40.6579 28.3818 40.4766C28.3818 40.2953 28.3098 40.1214 28.1816 39.9932C28.0534 39.865 27.8795 39.793 27.6982 39.793H21.5898V31.9453C21.5923 30.7615 21.9781 29.6103 22.6895 28.6641L27.1914 22.7012H30.9131L35.3164 28.6758C35.9349 29.5114 36.2994 30.5075 36.3662 31.5449C34.232 32.5958 32.4349 34.2237 31.1786 36.2438C29.9224 38.264 29.2572 40.5957 29.2585 42.9747C29.2598 45.3536 29.9276 47.6846 31.1861 49.7033C32.4446 51.7221 34.2435 53.3479 36.3789 54.3965L36.3799 59.208ZM60.8477 61.7354H43.4648C43.0123 61.7335 42.5773 61.5596 42.2482 61.249C41.9191 60.9384 41.7204 60.5142 41.6924 60.0625H62.6221C62.5943 60.5146 62.3954 60.9392 62.0658 61.2499C61.7362 61.5607 61.3006 61.7342 60.8477 61.7354ZM62.625 58.6953H41.6914V55.6992C41.7891 55.6992 41.8965 55.6992 42 55.6992C49.0225 55.6992 54.7363 49.9854 54.7363 42.9629C54.7389 40.6911 54.13 38.4604 52.9736 36.5049H54.6396C55.411 36.5031 56.1501 36.1953 56.6947 35.6492C57.2394 35.103 57.5452 34.3631 57.5449 33.5918V22.9453H60.4746C60.6559 22.9453 60.8298 22.8733 60.958 22.7451C61.0862 22.6169 61.1582 22.443 61.1582 22.2617C61.1582 22.0804 61.0862 21.9065 60.958 21.7783C60.8298 21.6501 60.6559 21.5781 60.4746 21.5781H57.5449V21.0166C57.5447 20.8825 57.5975 20.7538 57.692 20.6586C57.7864 20.5634 57.9147 20.5096 58.0488 20.5088H62.125C62.2589 20.5098 62.387 20.5638 62.4812 20.659C62.5754 20.7541 62.6282 20.8827 62.6279 21.0166L62.625 58.6953Z" fill="black"/>
<path d="M62.125 19.1416H58.0488C57.5523 19.1429 57.0765 19.341 56.7258 19.6924C56.3751 20.0439 56.178 20.5201 56.1777 21.0166V32.4102H49.1201C48.8037 32.1966 48.4782 31.9971 48.1436 31.8115V21.0166C48.1433 20.5201 47.9462 20.0439 47.5955 19.6924C47.2447 19.341 46.769 19.1429 46.2725 19.1416H42.1953C41.6988 19.1429 41.223 19.341 40.8723 19.6924C40.5216 20.0439 40.3245 20.5201 40.3242 21.0166V30.3398C39.423 30.4584 38.5374 30.6742 37.6826 30.9834C37.5296 29.8532 37.0929 28.7801 36.4131 27.8643L32.2139 22.165V20.0166H33.5439C33.6337 20.0166 33.7226 19.9989 33.8055 19.9646C33.8885 19.9302 33.9638 19.8799 34.0273 19.8164C34.0908 19.7529 34.1411 19.6775 34.1755 19.5946C34.2099 19.5117 34.2275 19.4228 34.2275 19.333V16.6963C34.2265 16.1966 34.0276 15.7177 33.6744 15.3644C33.3212 15.011 32.8424 14.8118 32.3428 14.8105H25.7227C25.2223 14.8113 24.7427 15.0105 24.3891 15.3644C24.0354 15.7182 23.8365 16.1979 23.8359 16.6982V19.335C23.8359 19.5163 23.908 19.6901 24.0362 19.8183C24.1644 19.9465 24.3382 20.0186 24.5195 20.0186H25.7275V22.3701L21.5977 27.8389C20.7079 29.0215 20.2252 30.4605 20.2217 31.9404V59.208C20.223 60.2405 20.6337 61.2303 21.3638 61.9604C22.0939 62.6905 23.0837 63.1012 24.1162 63.1025H33.8516C34.8841 63.1012 35.8739 62.6905 36.604 61.9604C37.3341 61.2303 37.7448 60.2405 37.7461 59.208V54.9707C38.5813 55.2674 39.4455 55.4756 40.3242 55.5918V59.9473C40.324 60.7825 40.655 61.5837 41.2446 62.1752C41.8343 62.7667 42.6345 63.1002 43.4697 63.1025H60.8477C61.6828 63.1002 62.4829 62.7667 63.0724 62.1752C63.6619 61.5836 63.9927 60.7824 63.9922 59.9473V21.0166C63.9922 20.5207 63.7957 20.0449 63.4458 19.6935C63.0958 19.3421 62.6209 19.1437 62.125 19.1416ZM56.168 33.7773C56.1252 34.1526 55.9461 34.4991 55.6647 34.7511C55.3834 35.0032 55.0193 35.1431 54.6416 35.1445H52.0439C51.667 34.6597 51.2554 34.2028 50.8125 33.7773H56.168ZM53.1758 42.9658C53.1758 45.1757 52.5205 47.336 51.2928 49.1735C50.0651 51.0109 48.3201 52.4431 46.2784 53.2889C44.2368 54.1347 41.9902 54.3561 39.8228 53.9251C37.6553 53.4941 35.6643 52.4301 34.1016 50.8676C32.5388 49.3051 31.4744 47.3143 31.0431 45.1469C30.6117 42.9795 30.8327 40.7329 31.6781 38.6911C32.5235 36.6494 33.9554 34.9041 35.7927 33.6761C37.63 32.448 39.7901 31.7924 42 31.792C44.9625 31.7954 47.8026 32.9737 49.8974 35.0684C51.9921 37.1632 53.1705 40.0034 53.1738 42.9658H53.1758ZM41.6914 22.9453H44.6211C44.8024 22.9453 44.9763 22.8733 45.1045 22.7451C45.2327 22.6169 45.3047 22.443 45.3047 22.2617C45.3047 22.0804 45.2327 21.9065 45.1045 21.7783C44.9763 21.6501 44.8024 21.5781 44.6211 21.5781H41.6914V21.0166C41.6911 20.8825 41.744 20.7538 41.8385 20.6586C41.9329 20.5634 42.0612 20.5096 42.1953 20.5088H46.2715C46.4056 20.5096 46.5339 20.5634 46.6283 20.6586C46.7228 20.7538 46.7757 20.8825 46.7754 21.0166V31.1592C45.2587 30.5434 43.6369 30.2277 42 30.2295C41.8965 30.2295 41.7939 30.2295 41.6914 30.2295V22.9453ZM25.2031 18.6533V16.7002C25.2031 16.5621 25.258 16.4298 25.3556 16.3321C25.4532 16.2345 25.5856 16.1797 25.7236 16.1797H32.3437C32.4818 16.1797 32.6142 16.2345 32.7118 16.3321C32.8094 16.4298 32.8643 16.5621 32.8643 16.7002V18.6533H25.2031ZM30.8506 20.0205V21.334H27.0947V20.0205H30.8506ZM36.3799 59.208C36.3791 59.8781 36.1126 60.5205 35.6388 60.9943C35.165 61.4681 34.5226 61.7346 33.8525 61.7354H33.3574L34.3008 60.1592C34.3855 60.0042 34.407 59.8224 34.3607 59.652C34.3144 59.4815 34.2039 59.3356 34.0524 59.2448C33.9008 59.154 33.72 59.1254 33.5479 59.165C33.3757 59.2045 33.2256 59.3092 33.1289 59.457L31.7617 61.7354H29.8477V59.8076C29.8477 59.6263 29.7756 59.4524 29.6474 59.3242C29.5192 59.196 29.3454 59.124 29.1641 59.124C28.9828 59.124 28.8089 59.196 28.6807 59.3242C28.5525 59.4524 28.4805 59.6263 28.4805 59.8076V61.7354H26.5703L25.2031 59.457C25.159 59.3763 25.099 59.3053 25.0267 59.2483C24.9544 59.1913 24.8714 59.1495 24.7826 59.1253C24.6938 59.1012 24.601 59.0953 24.5098 59.1079C24.4186 59.1204 24.331 59.1513 24.252 59.1986C24.1731 59.2459 24.1045 59.3087 24.0504 59.3831C23.9963 59.4576 23.9577 59.5422 23.9371 59.6319C23.9165 59.7216 23.9142 59.8145 23.9304 59.9051C23.9466 59.9957 23.9809 60.0822 24.0312 60.1592L24.9736 61.7354H24.1143C23.4447 61.7338 22.8031 61.4669 22.3299 60.9932C21.8567 60.5195 21.5906 59.8776 21.5898 59.208V47.7646H27.6982C27.8795 47.7646 28.0534 47.6926 28.1816 47.5644C28.3098 47.4362 28.3818 47.2624 28.3818 47.0811C28.3818 46.8998 28.3098 46.7259 28.1816 46.5977C28.0534 46.4695 27.8795 46.3975 27.6982 46.3975H21.5898V41.1602H27.6982C27.8795 41.1602 28.0534 41.0881 28.1816 40.9599C28.3098 40.8317 28.3818 40.6579 28.3818 40.4766C28.3818 40.2953 28.3098 40.1214 28.1816 39.9932C28.0534 39.865 27.8795 39.793 27.6982 39.793H21.5898V31.9453C21.5923 30.7615 21.9781 29.6103 22.6895 28.6641L27.1914 22.7012H30.9131L35.3164 28.6758C35.9349 29.5114 36.2994 30.5075 36.3662 31.5449C34.232 32.5958 32.4349 34.2237 31.1786 36.2438C29.9224 38.264 29.2572 40.5957 29.2585 42.9747C29.2598 45.3536 29.9276 47.6846 31.1861 49.7033C32.4446 51.7221 34.2435 53.3479 36.3789 54.3965L36.3799 59.208ZM60.8477 61.7354H43.4648C43.0123 61.7335 42.5773 61.5596 42.2482 61.249C41.9191 60.9384 41.7204 60.5142 41.6924 60.0625H62.6221C62.5943 60.5146 62.3954 60.9392 62.0658 61.2499C61.7362 61.5607 61.3006 61.7342 60.8477 61.7354ZM62.625 58.6953H41.6914V55.6992C41.7891 55.6992 41.8965 55.6992 42 55.6992C49.0225 55.6992 54.7363 49.9854 54.7363 42.9629C54.7389 40.6911 54.13 38.4604 52.9736 36.5049H54.6396C55.411 36.5031 56.1501 36.1953 56.6947 35.6492C57.2394 35.103 57.5452 34.3631 57.5449 33.5918V22.9453H60.4746C60.6559 22.9453 60.8298 22.8733 60.958 22.7451C61.0862 22.6169 61.1582 22.443 61.1582 22.2617C61.1582 22.0804 61.0862 21.9065 60.958 21.7783C60.8298 21.6501 60.6559 21.5781 60.4746 21.5781H57.5449V21.0166C57.5447 20.8825 57.5975 20.7538 57.692 20.6586C57.7864 20.5634 57.9147 20.5096 58.0488 20.5088H62.125C62.2589 20.5098 62.387 20.5638 62.4812 20.659C62.5754 20.7541 62.6282 20.8827 62.6279 21.0166L62.625 58.6953Z" stroke="white" stroke-width="3" mask="url(#path-2-outside-1_1596_218)"/>
<path d="M48.4896 45.3322L48.4905 45.3327C48.6582 45.4199 48.807 45.5394 48.9283 45.6844C49.0497 45.8293 49.1412 45.9968 49.1975 46.1773C49.2538 46.3577 49.2739 46.5476 49.2566 46.7358C49.2395 46.9224 49.1859 47.1037 49.099 47.2697C48.4402 48.5512 47.4407 49.6262 46.2103 50.3764C44.9789 51.1272 43.5642 51.5235 42.1219 51.5215M48.4896 45.3322L42.123 50.7715M48.4896 45.3322C48.3224 45.2455 48.1397 45.1926 47.9519 45.1766C47.7642 45.1605 47.5752 45.1816 47.3956 45.2387C47.2161 45.2958 47.0495 45.3876 46.9055 45.5091C46.7615 45.6306 46.6428 45.7793 46.5563 45.9466L46.5554 45.9485C46.0989 46.8377 45.3851 47.5687 44.5072 48.0464C43.6293 48.5241 42.628 48.7264 41.6336 48.6268L48.4896 45.3322ZM42.1219 51.5215L42.123 50.7715M42.1219 51.5215C42.1223 51.5215 42.1226 51.5215 42.123 51.5215V50.7715M42.1219 51.5215C41.8668 51.5215 41.6078 51.5097 41.3465 51.4836L41.3457 51.4836C39.7708 51.3251 38.2798 50.6975 37.0656 49.682C36.0167 48.8048 35.2162 47.6731 34.7376 46.4001M42.123 50.7715C41.8905 50.7715 41.6562 50.7608 41.4208 50.7373C39.9953 50.5939 38.6457 50.0258 37.5467 49.1067C36.4478 48.1876 35.65 46.9597 35.2567 45.5821M34.7376 46.4001L35.3465 46.3267L35.2567 45.5821M34.7376 46.4001L34.4959 46.4292L34.4709 46.4322L34.4458 46.4335C34.399 46.436 34.3521 46.4363 34.3053 46.4345M34.7376 46.4001C34.6622 46.1994 34.5947 45.9952 34.5355 45.7879L35.2567 45.5821M35.2567 45.5821L34.4062 45.6846M34.3251 45.6846C34.3521 45.686 34.3792 45.686 34.4062 45.6846M34.3251 45.6846C34.1955 45.6847 34.0684 45.648 33.9589 45.5786C33.8493 45.5093 33.7618 45.4103 33.7064 45.293C33.651 45.1758 33.6301 45.0453 33.6461 44.9166C33.6621 44.788 33.7144 44.6665 33.7968 44.5664M34.3251 45.6846L34.2855 46.4335C34.2921 46.4339 34.2987 46.4342 34.3053 46.4345M34.3251 45.6846L34.3258 46.4346C34.319 46.4346 34.3122 46.4346 34.3053 46.4345M34.4062 45.6846L33.7968 44.5664M34.4062 45.6846L34.3053 46.4345M33.7968 44.5664L33.2178 44.0896C33.2178 44.0896 33.2178 44.0896 33.2178 44.0896L33.7968 44.5664ZM36.5558 42.199L36.5541 42.1977L36.1044 42.7979L36.5583 42.2008C36.5575 42.2002 36.5567 42.1996 36.5558 42.199ZM36.9288 46.1337C36.8164 45.9011 36.7194 45.6605 36.6386 45.4131L37.4001 45.3218C37.4414 45.4365 37.4867 45.5495 37.536 45.6604C37.5361 45.6608 37.5363 45.6611 37.5364 45.6614C37.5925 45.7876 37.6537 45.9113 37.7197 46.0321C37.675 46.0419 37.6297 46.0496 37.584 46.0552L37.5833 46.0552L36.9288 46.1337Z" fill="black" stroke="white" stroke-width="1.5"/>
<path d="M34.9415 39.4444C34.9234 39.3967 34.9078 39.3478 34.8948 39.2979C34.7991 38.9311 34.8527 38.5414 35.0436 38.2139L36.4415 35.8173V36.4705C37.0249 35.9231 37.6916 35.4648 38.4207 35.1148C39.8287 34.4389 41.406 34.1973 42.9517 34.4207C44.4975 34.6441 45.9418 35.3224 47.1008 36.3693C48.0947 37.2671 48.8402 38.401 49.2715 39.6613L49.7317 39.606C49.7318 39.606 49.7318 39.606 49.7319 39.6059C50.0162 39.5718 50.3042 39.6235 50.5588 39.7545C50.8135 39.8855 51.0231 40.0897 51.1606 40.3409C51.2981 40.5922 51.3572 40.8788 51.3303 41.1639C51.3034 41.4491 51.1917 41.7196 51.0097 41.9407L51.0096 41.9408L49.5116 43.7591L49.5115 43.7592C49.277 44.0438 48.9418 44.2271 48.5757 44.2709C48.2095 44.3148 47.8405 44.2159 47.5454 43.9947L47.5445 43.994L45.6605 42.5776L34.9415 39.4444ZM34.9415 39.4444V41.3485L35.6148 40.2051C35.9282 40.3699 36.2925 40.4133 36.6372 40.3251C37.0044 40.2312 37.3195 39.9957 37.5135 39.6701L37.5135 39.6701L37.5155 39.6667C38.0128 38.8223 38.7471 38.1425 39.6274 37.7118C40.5076 37.281 41.495 37.1183 42.4669 37.2437C43.4388 37.3692 44.3524 37.7773 45.0944 38.4175C45.6097 38.862 46.0264 39.4048 46.3222 40.0108C46.048 40.0491 45.7904 40.1661 45.581 40.3478C45.3648 40.5354 45.2097 40.7834 45.1357 41.0599C45.0617 41.3363 45.0721 41.6286 45.1656 41.8991C45.2591 42.1693 45.4311 42.4054 45.6597 42.577L34.9415 39.4444Z" fill="black" stroke="white" stroke-width="1.5"/>
</g>
<defs>
<clipPath id="clip0_1596_218">
<rect width="50" height="50" fill="white" transform="translate(17 14)"/>
</clipPath>
</defs>
</svg>
