<svg width="82" height="82" viewBox="0 0 82 82" fill="none" xmlns="http://www.w3.org/2000/svg">
<circle cx="41" cy="41" r="41" fill="#6BBF59"/>
<g clip-path="url(#clip0_1596_219)">
<path d="M61.1875 24.4688H57.0156V23.8125C57.0156 21.8429 55.4218 20.25 53.4531 20.25H29.5469C27.5782 20.25 25.9844 21.8429 25.9844 23.8125V24.4688H21.8125C19.8438 24.4688 18.25 26.0616 18.25 28.0312V33.6562C18.25 38.1386 21.7272 41.8104 26.1317 42.1195C27.0437 48.7333 32.1288 54.003 38.6406 55.2182V59.625H34.4688C32.5 59.625 30.9062 61.2179 30.9062 63.1875V65.2969C30.9062 66.0987 31.5558 66.75 32.3594 66.75H50.6406C51.4442 66.75 52.0938 66.0987 52.0938 65.2969V63.1875C52.0938 61.2179 50.5 59.625 48.5312 59.625H44.3594V55.2182C50.8711 54.0031 55.9529 48.7345 56.8648 42.1198C61.2709 41.8123 64.75 38.1398 64.75 33.6562V28.0312C64.75 26.0616 63.1562 24.4688 61.1875 24.4688ZM25.9844 36.319C24.8212 35.9921 23.9688 34.9236 23.9688 33.6562V30.1875H25.9844V36.319ZM22.0005 27.375C21.6122 27.522 21.3034 27.8304 21.1562 28.2191V28.0312C21.1562 27.6688 21.4502 27.375 21.8125 27.375H22.0005ZM48.5312 62.5312C48.8935 62.5312 49.1875 62.825 49.1875 63.1875V63.8438H33.8125V63.1875C33.8125 62.825 34.1065 62.5312 34.4688 62.5312H48.5312ZM54.1094 39.9844C54.1094 46.9474 48.4637 52.5938 41.5 52.5938C34.5363 52.5938 28.8906 46.9474 28.8906 39.9844V23.8125C28.8906 23.45 29.1846 23.1562 29.5469 23.1562H53.4531C53.8154 23.1562 54.1094 23.45 54.1094 23.8125V39.9844ZM57.0156 30.1875H59.0312V33.6562C59.0312 34.9236 58.1788 35.9921 57.0156 36.319V30.1875ZM60.9995 27.375H61.1875C61.5498 27.375 61.8438 27.6688 61.8438 28.0312V28.2191C61.6966 27.8304 61.3878 27.522 60.9995 27.375Z" fill="black" stroke="white" stroke-width="1.5"/>
<path d="M46.6411 33.8715L46.6384 33.8711L44.0043 33.4688L42.8133 30.9325C42.8132 30.9324 42.8132 30.9322 42.8131 30.9321C42.573 30.4204 42.0596 30.0966 41.4979 30.0966C40.9349 30.0966 40.4224 30.4222 40.1828 30.9318L40.1827 30.9321L38.9915 33.4688L36.3573 33.8711L36.3573 33.8711L36.3544 33.8715C35.8213 33.9551 35.3726 34.3268 35.1988 34.8465C35.0259 35.3639 35.1573 35.9316 35.535 36.3209L35.5362 36.3222L37.4841 38.3203L37.0214 41.1553C37.0214 41.1554 37.0213 41.1556 37.0213 41.1557C37.0213 41.1558 37.0213 41.1558 37.0213 41.1559C36.9311 41.7073 37.1661 42.2577 37.617 42.5771C38.073 42.9001 38.6717 42.93 39.1567 42.6644L39.1593 42.663L41.4972 41.3708L43.8351 42.663L43.8351 42.663L43.8403 42.6658C44.0586 42.7842 44.299 42.8437 44.5396 42.8437C44.8348 42.8437 45.1289 42.7532 45.3785 42.5761C45.8291 42.2567 46.064 41.7064 45.9738 41.1552C45.9738 41.155 45.9737 41.1548 45.9737 41.1546L45.5109 38.3196L47.4588 36.3215L47.4591 36.3213C47.8385 35.9317 47.9704 35.3626 47.7956 34.844C47.6215 34.3275 47.1769 33.9553 46.6411 33.8715ZM42.5247 38.0642L42.6234 38.6686L42.2026 38.4358L42.2009 38.4349C41.9842 38.3157 41.7432 38.2542 41.4993 38.2542C41.2554 38.2542 41.0144 38.3157 40.7977 38.4348L40.796 38.4358L40.3752 38.6686L40.4739 38.0642L40.474 38.0638C40.5482 37.6084 40.4013 37.1455 40.0806 36.816L40.0799 36.8153L39.5941 36.3177L40.1987 36.2252C40.1989 36.2251 40.1991 36.2251 40.1993 36.2251C40.1994 36.225 40.1995 36.225 40.1995 36.225C40.678 36.152 41.0888 35.8453 41.2949 35.4069L41.2951 35.4065L41.5 34.97L41.7047 35.4061C41.7048 35.4062 41.7048 35.4063 41.7049 35.4065C41.9107 35.8453 42.3217 36.1531 42.8018 36.2252C42.8023 36.2253 42.8029 36.2254 42.8035 36.2255L43.4051 36.3176L42.919 36.815L42.918 36.816C42.5962 37.1466 42.4505 37.609 42.5246 38.0638L42.5247 38.0642Z" fill="white" stroke="black" stroke-width="1.5"/>
</g>
<defs>
<clipPath id="clip0_1596_219">
<rect width="45" height="45" fill="white" transform="translate(19 21)"/>
</clipPath>
</defs>
</svg>
