<svg width="82" height="82" viewBox="0 0 82 82" fill="none" xmlns="http://www.w3.org/2000/svg">
<circle cx="41" cy="41" r="41" fill="#6BBF59"/>
<path d="M34.2959 53.6026H34.2958V53.6135V54.6872C34.2958 56.0782 35.4231 57.2148 36.8234 57.2148H46.0996C47.5004 57.2148 48.6255 56.076 48.6255 54.6838V53.6018H48.6255L48.6255 53.5939C48.6188 52.7466 48.6683 52.2628 48.7205 52.0692C49.1764 50.4309 50.5283 48.8129 51.9368 47.1558L51.9371 47.1554C51.984 47.1002 52.031 47.045 52.078 46.9897C52.4294 46.5765 52.7816 46.1623 53.0926 45.7632C55.1567 43.1452 56.2484 39.9967 56.2484 36.6659C56.2484 28.5323 49.6315 21.9191 41.5 21.9191C33.3672 21.9191 26.7483 28.532 26.7483 36.6659C26.7483 39.9972 27.8464 43.1421 29.9046 45.7604C30.303 46.2689 30.7325 46.769 31.1726 47.2761C32.5409 48.8658 33.7473 50.293 34.1982 51.9416C34.2557 52.1577 34.3059 52.6808 34.2959 53.6026ZM43.8463 50.7312L43.846 50.7325C43.7531 51.0687 43.6649 51.499 43.6141 52.1562H39.3171C39.2671 51.4388 39.1755 50.9825 39.085 50.6308L39.0831 50.6233L39.081 50.6158C38.3147 47.8176 36.4412 45.6422 35.0546 44.0322L35.0051 43.9746L35.0033 43.9726C34.9797 43.9454 34.9563 43.9183 34.933 43.8914C34.5457 43.4442 34.2001 43.0451 33.8845 42.6412L33.8824 42.6385C32.523 40.9112 31.8085 38.8507 31.8085 36.6675C31.8085 31.3238 36.158 26.9743 41.5017 26.9743C46.845 26.9743 51.1916 31.3234 51.1916 36.6675C51.1916 38.8546 50.4761 40.913 49.1188 42.6405C48.8262 43.0088 48.496 43.3974 48.1055 43.857L48.0619 43.9084L48.0611 43.9093L48.0334 43.9418C46.5123 45.7275 44.6185 47.9508 43.8463 50.7312Z" fill="white" stroke="black" stroke-width="2"/>
<path d="M36.8235 61.2599H46.0996C47.4997 61.2599 48.6256 60.1235 48.6256 58.7289C48.6256 57.3324 47.4961 56.203 46.0996 56.203H36.8235C35.4261 56.203 34.2959 57.3317 34.2959 58.7289C34.2959 60.1242 35.4225 61.2599 36.8235 61.2599Z" fill="white" stroke="black" stroke-width="2"/>
<path d="M39.1433 65.3H43.7813C45.1737 65.3 46.3089 64.1679 46.3089 62.7724C46.3089 61.3773 45.1759 60.2415 43.7813 60.2415H39.1433C37.7444 60.2415 36.6123 61.3766 36.6123 62.7724C36.6123 64.1686 37.7465 65.3 39.1433 65.3Z" fill="white" stroke="black" stroke-width="2"/>
<path d="M65.9416 38.1952H59.8312C58.987 38.1952 58.3003 37.5134 58.3003 36.6676C58.3003 35.8234 58.987 35.14 59.8312 35.14H65.9416C66.7858 35.14 67.4676 35.8234 67.4676 36.6676C67.4676 37.5134 66.7858 38.1952 65.9416 38.1952Z" fill="white" stroke="black" stroke-width="2"/>
<path d="M23.1705 38.1952H17.0584C16.2142 38.1952 15.5325 37.5134 15.5325 36.6676C15.5325 35.8234 16.2142 35.14 17.0584 35.14H23.1688C24.013 35.14 24.6997 35.8234 24.6997 36.6676C24.7014 37.5134 24.0147 38.1952 23.1705 38.1952Z" fill="white" stroke="black" stroke-width="2"/>
<path d="M41.4999 19.869C40.6541 19.869 39.969 19.1872 39.969 18.3414V12.2276C39.969 11.3851 40.6541 10.7 41.4999 10.7C42.3458 10.7 43.0275 11.3851 43.0275 12.2276V18.3397C43.0275 19.1856 42.3458 19.869 41.4999 19.869Z" fill="white" stroke="black" stroke-width="2"/>
<path d="M58.7759 55.4778C58.3873 55.4778 57.9971 55.3287 57.6972 55.0289L53.3774 50.7074C52.7811 50.1128 52.7811 49.143 53.3774 48.545C53.9754 47.9487 54.9419 47.952 55.5382 48.5483L59.858 52.8682C60.456 53.4661 60.456 54.436 59.858 55.0323C59.5598 55.3321 59.1712 55.4778 58.7759 55.4778Z" fill="white" stroke="black" stroke-width="2"/>
<path d="M28.5355 25.2373C28.1469 25.2373 27.7549 25.0883 27.4534 24.7885L23.137 20.4703C22.539 19.8723 22.539 18.9025 23.137 18.3045C23.7349 17.7082 24.7014 17.7082 25.2977 18.3045L29.6175 22.6244C30.2155 23.2207 30.2155 24.1922 29.6175 24.7885C29.3194 25.0883 28.9291 25.2373 28.5355 25.2373Z" fill="white" stroke="black" stroke-width="2"/>
<path d="M24.2173 55.4778C23.8271 55.4778 23.4368 55.332 23.137 55.0322C22.539 54.4359 22.539 53.4661 23.137 52.8681L27.4601 48.5449C28.0531 47.9486 29.0196 47.9486 29.6175 48.5449C30.2155 49.1429 30.2155 50.1127 29.6175 50.7107L25.2977 55.0322C24.9979 55.3304 24.6093 55.4778 24.2173 55.4778Z" fill="white" stroke="black" stroke-width="2"/>
<path d="M54.4611 25.2373C54.0708 25.2373 53.6805 25.0883 53.379 24.7884C52.7861 24.1921 52.7861 23.224 53.379 22.6277L57.6989 18.3079C58.2918 17.7116 59.265 17.7082 59.8596 18.3045C60.4576 18.9025 60.4576 19.869 59.8596 20.4669L55.5431 24.7851C55.245 25.0849 54.8547 25.2373 54.4611 25.2373Z" fill="white" stroke="black" stroke-width="2"/>
</svg>
